<svg xmlns="http://www.w3.org/2000/svg" xmlns:xlink="http://www.w3.org/1999/xlink" width="1080" zoomAndPan="magnify" viewBox="0 0 810 809.999993" height="1080" preserveAspectRatio="xMidYMid meet" version="1.0"><defs><clipPath id="d68996e06a"><path d="M 250 549 L 257 549 L 257 592.5 L 250 592.5 Z M 250 549 " clip-rule="nonzero"/></clipPath><clipPath id="6a80e61813"><path d="M 231.816406 567 L 275 567 L 275 575 L 231.816406 575 Z M 231.816406 567 " clip-rule="nonzero"/></clipPath><clipPath id="ad4508c422"><path d="M 560 217.5 L 567 217.5 L 567 247 L 560 247 Z M 560 217.5 " clip-rule="nonzero"/></clipPath><clipPath id="60e6e9aae5"><path d="M 549 228 L 578.316406 228 L 578.316406 236 L 549 236 Z M 549 228 " clip-rule="nonzero"/></clipPath></defs><path fill="#4385f3" d="M 325.953125 573.203125 C 316.539062 573.203125 308.875 565.539062 308.875 556.128906 L 308.875 262.222656 C 308.875 252.8125 316.539062 245.148438 325.953125 245.148438 L 481.1875 245.148438 C 490.609375 245.148438 498.273438 252.8125 498.273438 262.222656 L 498.273438 556.128906 C 498.273438 565.539062 490.609375 573.203125 481.1875 573.203125 L 325.953125 573.203125 " fill-opacity="1" fill-rule="nonzero"/><path fill="#545454" d="M 481.1875 241.941406 L 325.953125 241.941406 C 314.765625 241.941406 305.667969 251.042969 305.667969 262.222656 L 305.667969 556.128906 C 305.667969 567.308594 314.765625 576.40625 325.953125 576.40625 L 481.1875 576.40625 C 492.375 576.40625 501.480469 567.308594 501.480469 556.128906 L 501.480469 262.222656 C 501.480469 251.042969 492.375 241.941406 481.1875 241.941406 Z M 481.1875 248.355469 C 488.851562 248.355469 495.066406 254.5625 495.066406 262.222656 L 495.066406 556.128906 C 495.066406 563.789062 488.851562 569.996094 481.1875 569.996094 L 325.953125 569.996094 C 318.289062 569.996094 312.078125 563.789062 312.078125 556.128906 L 312.078125 262.222656 C 312.078125 254.5625 318.289062 248.355469 325.953125 248.355469 L 481.1875 248.355469 " fill-opacity="1" fill-rule="nonzero"/><path fill="#feffff" d="M 485.226562 532.75 L 485.226562 277.691406 C 485.226562 270.851562 479.683594 265.3125 472.84375 265.3125 L 439.039062 265.3125 L 439.039062 273.015625 C 439.039062 275.570312 436.96875 277.640625 434.414062 277.640625 L 372.726562 277.640625 C 370.171875 277.640625 368.101562 275.570312 368.101562 273.015625 L 368.101562 265.3125 L 334.296875 265.3125 C 327.457031 265.3125 321.914062 270.851562 321.914062 277.691406 L 321.914062 532.75 L 485.226562 532.75 " fill-opacity="1" fill-rule="nonzero"/><path stroke-linecap="round" transform="matrix(0.142481, 0, 0, -0.142423, 102.15375, 707.720264)" fill="none" stroke-linejoin="round" d="M 2688.590163 1228.524566 L 2688.590163 3019.375996 C 2688.590163 3067.40082 2649.686929 3106.292424 2601.6816 3106.292424 L 2364.423963 3106.292424 L 2364.423963 3052.206215 C 2364.423963 3034.268903 2349.893509 3019.732548 2331.963477 3019.732548 L 1899.010785 3019.732548 C 1881.080753 3019.732548 1866.5503 3034.268903 1866.5503 3052.206215 L 1866.5503 3106.292424 L 1629.292663 3106.292424 C 1581.287333 3106.292424 1542.384099 3067.40082 1542.384099 3019.375996 L 1542.384099 1228.524566 Z M 2688.590163 1228.524566 " stroke="#313185" stroke-width="45" stroke-opacity="1" stroke-miterlimit="10"/><path fill="#fabc04" d="M 386.609375 562.089844 C 382.289062 562.089844 378.777344 558.582031 378.777344 554.265625 L 378.777344 551.949219 C 378.777344 547.632812 382.289062 544.121094 386.609375 544.121094 L 420.539062 544.121094 C 424.855469 544.121094 428.367188 547.632812 428.367188 551.949219 L 428.367188 554.265625 C 428.367188 558.582031 424.855469 562.089844 420.539062 562.089844 L 386.609375 562.089844 " fill-opacity="1" fill-rule="nonzero"/><path fill="#545454" d="M 420.539062 540.917969 L 386.609375 540.917969 C 380.519531 540.917969 375.574219 545.867188 375.574219 551.949219 L 375.574219 554.265625 C 375.574219 560.351562 380.519531 565.296875 386.609375 565.296875 L 420.539062 565.296875 C 426.621094 565.296875 431.574219 560.351562 431.574219 554.265625 L 431.574219 551.949219 C 431.574219 545.867188 426.621094 540.917969 420.539062 540.917969 Z M 420.539062 547.328125 C 423.09375 547.328125 425.164062 549.394531 425.164062 551.949219 L 425.164062 554.265625 C 425.164062 556.816406 423.09375 558.886719 420.539062 558.886719 L 386.609375 558.886719 C 384.054688 558.886719 381.984375 556.816406 381.984375 554.265625 L 381.984375 551.949219 C 381.984375 549.394531 384.054688 547.328125 386.609375 547.328125 L 420.539062 547.328125 " fill-opacity="1" fill-rule="nonzero"/><path fill="#fabc04" d="M 383.609375 266.992188 C 380.925781 266.992188 378.746094 264.8125 378.746094 262.128906 L 378.746094 261.300781 C 378.746094 258.617188 380.925781 256.4375 383.609375 256.4375 L 423.53125 256.4375 C 426.214844 256.4375 428.402344 258.617188 428.402344 261.300781 L 428.402344 262.128906 C 428.402344 264.8125 426.214844 266.992188 423.53125 266.992188 L 383.609375 266.992188 " fill-opacity="1" fill-rule="nonzero"/><path fill="#545454" d="M 423.53125 253.234375 L 383.609375 253.234375 C 379.164062 253.234375 375.539062 256.851562 375.539062 261.300781 L 375.539062 262.128906 C 375.539062 266.574219 379.164062 270.195312 383.609375 270.195312 L 423.53125 270.195312 C 427.984375 270.195312 431.609375 266.574219 431.609375 262.128906 L 431.609375 261.300781 C 431.609375 256.851562 427.984375 253.234375 423.53125 253.234375 Z M 423.53125 259.644531 C 424.449219 259.644531 425.195312 260.382812 425.195312 261.300781 L 425.195312 262.128906 C 425.195312 263.042969 424.449219 263.789062 423.53125 263.789062 L 383.609375 263.789062 C 382.695312 263.789062 381.949219 263.042969 381.949219 262.128906 L 381.949219 261.300781 C 381.949219 260.382812 382.695312 259.644531 383.609375 259.644531 L 423.53125 259.644531 " fill-opacity="1" fill-rule="nonzero"/><path fill="#e94335" d="M 390.628906 362.421875 C 390.628906 348.800781 379.578125 337.757812 365.949219 337.757812 L 306.84375 337.757812 C 293.210938 337.757812 282.167969 348.800781 282.167969 362.421875 C 282.167969 376.039062 293.210938 387.082031 306.84375 387.082031 L 352.941406 387.082031 C 355.183594 393.507812 360.746094 404.140625 373.664062 408.046875 C 373.664062 408.046875 367.679688 398.355469 367.546875 387.003906 C 380.425781 386.175781 390.628906 375.507812 390.628906 362.421875 " fill-opacity="1" fill-rule="nonzero"/><path stroke-linecap="round" transform="matrix(0.142481, 0, 0, -0.142423, 102.15375, 707.720264)" fill="none" stroke-linejoin="round" d="M 2024.658087 2424.455124 C 2024.658087 2520.093365 1947.098363 2597.62973 1851.444111 2597.62973 L 1436.613362 2597.62973 C 1340.931694 2597.62973 1263.426802 2520.093365 1263.426802 2424.455124 C 1263.426802 2328.84431 1340.931694 2251.307944 1436.613362 2251.307944 L 1760.148995 2251.307944 C 1775.885751 2206.190392 1814.926065 2131.53387 1905.590613 2104.106786 C 1905.590613 2104.106786 1863.589377 2172.153381 1862.657235 2251.856486 C 1953.047624 2257.671028 2024.658087 2332.574393 2024.658087 2424.455124 Z M 2024.658087 2424.455124 " stroke="#313185" stroke-width="45" stroke-opacity="1" stroke-miterlimit="10"/><path fill="#e94335" d="M 405.03125 423.046875 C 405.03125 406.539062 418.417969 393.152344 434.9375 393.152344 L 506.566406 393.152344 C 523.074219 393.152344 536.464844 406.539062 536.464844 423.046875 C 536.464844 439.550781 523.074219 452.933594 506.566406 452.933594 L 450.699219 452.933594 C 447.980469 460.714844 441.234375 473.601562 425.585938 478.335938 C 425.585938 478.335938 432.832031 466.597656 433 452.832031 C 417.394531 451.835938 405.03125 438.902344 405.03125 423.046875 " fill-opacity="1" fill-rule="nonzero"/><path stroke-linecap="round" transform="matrix(0.142481, 0, 0, -0.142423, 102.15375, 707.720264)" fill="none" stroke-linejoin="round" d="M 2125.740697 1998.786785 C 2125.740697 2114.69364 2219.69516 2208.686256 2335.637215 2208.686256 L 2838.363501 2208.686256 C 2954.223309 2208.686256 3048.205187 2114.69364 3048.205187 1998.786785 C 3048.205187 1882.907356 2954.223309 1788.942167 2838.363501 1788.942167 L 2446.260576 1788.942167 C 2427.179074 1734.307417 2379.831727 1643.825467 2270.003429 1610.583842 C 2270.003429 1610.583842 2320.860017 1693.002229 2322.038903 1789.655271 C 2212.512181 1796.649178 2125.740697 1887.460252 2125.740697 1998.786785 Z M 2125.740697 1998.786785 " stroke="#313185" stroke-width="45" stroke-opacity="1" stroke-miterlimit="10"/><path stroke-linecap="round" transform="matrix(0.142481, 0, 0, -0.142423, 102.15375, 707.720264)" fill="none" stroke-linejoin="round" d="M 1239.766836 1247.421827 L 1239.766836 1088.289887 " stroke="#313185" stroke-width="45" stroke-opacity="1" stroke-miterlimit="10"/><path stroke-linecap="round" transform="matrix(0.142481, 0, 0, -0.142423, 102.15375, 707.720264)" fill="none" stroke-linejoin="round" d="M 1319.300509 1167.855857 L 1160.205748 1167.855857 " stroke="#313185" stroke-width="45" stroke-opacity="1" stroke-miterlimit="10"/><g clip-path="url(#d68996e06a)"><path stroke-linecap="round" transform="matrix(0.142481, 0, 0, -0.142423, 102.15375, 707.720264)" fill="none" stroke-linejoin="round" d="M 1061.563157 1088.289887 L 1061.563157 832.066071 " stroke="#313185" stroke-width="45" stroke-opacity="1" stroke-miterlimit="10"/></g><g clip-path="url(#6a80e61813)"><path stroke-linecap="round" transform="matrix(0.142481, 0, 0, -0.142423, 102.15375, 707.720264)" fill="none" stroke-linejoin="round" d="M 1189.677895 960.150552 L 933.475836 960.150552 " stroke="#313185" stroke-width="45" stroke-opacity="1" stroke-miterlimit="10"/></g><g clip-path="url(#ad4508c422)"><path stroke-linecap="round" transform="matrix(0.142481, 0, 0, -0.142423, 102.15375, 707.720264)" fill="none" stroke-linejoin="round" d="M 3238.992788 3419.921127 L 3238.992788 3260.789187 " stroke="#313185" stroke-width="45" stroke-opacity="1" stroke-miterlimit="10"/></g><g clip-path="url(#60e6e9aae5)"><path stroke-linecap="round" transform="matrix(0.142481, 0, 0, -0.142423, 102.15375, 707.720264)" fill="none" stroke-linejoin="round" d="M 3318.526461 3340.355157 L 3159.404283 3340.355157 " stroke="#313185" stroke-width="45" stroke-opacity="1" stroke-miterlimit="10"/></g><path stroke-linecap="round" transform="matrix(0.142481, 0, 0, -0.142423, 102.15375, 707.720264)" fill="none" stroke-linejoin="round" d="M 3060.816525 3260.789187 L 3060.816525 3004.565371 " stroke="#313185" stroke-width="45" stroke-opacity="1" stroke-miterlimit="10"/><path stroke-linecap="round" transform="matrix(0.142481, 0, 0, -0.142423, 102.15375, 707.720264)" fill="none" stroke-linejoin="round" d="M 3188.903846 3132.677279 L 2932.701787 3132.677279 " stroke="#313185" stroke-width="45" stroke-opacity="1" stroke-miterlimit="10"/><path stroke-linecap="round" transform="matrix(0.142481, 0, 0, -0.142423, 102.15375, 707.720264)" fill="none" stroke-linejoin="round" d="M 1126.401881 3078.837914 L 1126.401881 2919.733401 " stroke="#313185" stroke-width="45" stroke-opacity="1" stroke-miterlimit="10"/><path stroke-linecap="round" transform="matrix(0.142481, 0, 0, -0.142423, 102.15375, 707.720264)" fill="none" stroke-linejoin="round" d="M 1205.935553 2999.299371 L 1046.840792 2999.299371 " stroke="#313185" stroke-width="45" stroke-opacity="1" stroke-miterlimit="10"/><path stroke-linecap="round" transform="matrix(0.142481, 0, 0, -0.142423, 102.15375, 707.720264)" fill="none" stroke-linejoin="round" d="M 3205.161505 1100.083533 L 3205.161505 940.951594 " stroke="#313185" stroke-width="45" stroke-opacity="1" stroke-miterlimit="10"/><path stroke-linecap="round" transform="matrix(0.142481, 0, 0, -0.142423, 102.15375, 707.720264)" fill="none" stroke-linejoin="round" d="M 3284.722594 1020.517563 L 3125.627832 1020.517563 " stroke="#313185" stroke-width="45" stroke-opacity="1" stroke-miterlimit="10"/></svg>