<svg xmlns="http://www.w3.org/2000/svg" xmlns:xlink="http://www.w3.org/1999/xlink" width="1080" zoomAndPan="magnify" viewBox="0 0 810 809.999993" height="1080" preserveAspectRatio="xMidYMid meet" version="1.0"><defs><clipPath id="8314489314"><path d="M 106.949219 225 L 702 225 L 702 592.5 L 106.949219 592.5 Z M 106.949219 225 " clip-rule="nonzero"/></clipPath><clipPath id="d9f5031ae4"><path d="M 405 217.5 L 409 217.5 L 409 233 L 405 233 Z M 405 217.5 " clip-rule="nonzero"/></clipPath></defs><path fill="#ffffff" d="M 290.335938 553.902344 L 303.484375 590.039062 L 280.851562 590.773438 Z M 460.117188 571.429688 C 461.582031 577.996094 457.933594 584.941406 448.433594 585.292969 C 438.933594 585.660156 375.050781 582.742188 375.050781 582.742188 C 372.5 584.207031 371.765625 588.589844 371.765625 588.589844 L 349.5 589.6875 L 303.496094 590.054688 L 288.53125 548.8125 L 289.261719 557.578125 L 280.863281 590.800781 L 247.632812 590.433594 C 247.632812 590.433594 248.796875 589.648438 250.628906 588.328125 C 248.378906 588.796875 245.8125 588.957031 242.882812 588.617188 C 230.46875 587.148438 196.148438 556.855469 188.484375 541.894531 C 188.484375 541.894531 189.214844 525.832031 198.335938 519.265625 C 207.46875 512.699219 221.335938 514.882812 221.335938 514.882812 L 246.535156 538.246094 L 285.964844 483.125 C 285.964844 483.125 279.03125 480.941406 280.117188 469.261719 C 281.203125 457.582031 281.949219 453.566406 281.949219 453.566406 C 281.949219 453.566406 265.699219 451.382812 260.230469 450.648438 C 257.378906 450.269531 254.109375 449.589844 251.726562 448.019531 C 253.167969 449.957031 255.574219 451.222656 259.683594 451.863281 C 259.683594 451.863281 267.714844 469.144531 251.164062 473.277344 C 234.613281 477.410156 218.546875 465.496094 209.78125 452.347656 C 209.78125 452.347656 214.007812 452.035156 218.078125 447.730469 C 215.238281 449.535156 211.246094 450.636719 205.648438 450.398438 L 211 421.191406 L 224.632812 429.957031 C 224.632812 429.957031 224.828125 431.027344 224.867188 432.691406 C 226.410156 425.785156 226.816406 419.257812 226.816406 419.257812 C 226.816406 419.257812 212.949219 412.691406 214.886719 407.09375 C 216.835938 401.496094 220 399.546875 224.984375 400.644531 C 229.96875 401.742188 226.816406 395.164062 226.816406 395.164062 L 220.734375 382.515625 C 220.734375 382.515625 217.816406 375.949219 225.601562 374 C 233.386719 372.050781 237.769531 371.320312 243.132812 368.402344 C 248.484375 365.484375 253.847656 357.453125 258.214844 362.804688 C 258.738281 363.445312 259.355469 364.296875 260.046875 365.328125 C 259.160156 363.679688 258.832031 362.542969 258.035156 360.320312 C 256.386719 355.753906 253.652344 349.738281 242.332031 350.640625 C 231.015625 351.554688 218.785156 357.207031 218.785156 357.207031 C 218.785156 357.207031 222.066406 341.144531 232.652344 336.03125 C 243.238281 330.914062 255.285156 332.132812 255.285156 332.132812 C 281.570312 336.03125 274.753906 296.605469 274.753906 296.605469 C 271.351562 293.207031 265.019531 282.492188 269.402344 278.597656 C 273.785156 274.699219 281.085938 279.5625 281.085938 279.5625 C 293.738281 276.648438 319.054688 253.769531 319.054688 253.769531 C 319.054688 253.769531 325.871094 265.449219 327.335938 284.914062 C 328.800781 304.375 300.070312 309.242188 300.070312 309.242188 C 300.070312 309.242188 295.6875 320.4375 302.503906 326.769531 C 309.320312 333.101562 324.40625 325.304688 324.40625 325.304688 C 324.40625 325.304688 344.003906 321.039062 357.503906 337.835938 C 371.019531 354.628906 378.320312 370.691406 378.320312 370.691406 C 378.320312 370.691406 371.097656 372.300781 364.9375 379.453125 C 373.007812 372.351562 378.320312 370.691406 378.320312 370.691406 L 383.070312 377.625 L 382.335938 330.171875 C 382.335938 330.171875 382.335938 317.390625 387.085938 317.390625 C 391.835938 317.390625 389.636719 328.703125 392.203125 332.355469 C 394.765625 336.003906 394.753906 336.003906 394.753906 336.003906 C 394.753906 336.003906 414.101562 320.675781 419.953125 318.125 C 425.800781 315.574219 429.449219 313.742188 431.269531 316.660156 C 433.085938 319.574219 420.316406 329.070312 420.316406 329.070312 C 420.316406 329.070312 442.585938 327.605469 443.316406 332.355469 C 444.050781 337.101562 441.488281 337.101562 442.21875 340.386719 C 442.953125 343.667969 440.035156 346.230469 438.203125 348.417969 C 436.371094 350.601562 435.652344 352.796875 427.984375 354.261719 C 420.316406 355.726562 409 358.644531 408.269531 366.308594 C 407.535156 373.972656 413.75 419.242188 412.652344 427.261719 C 411.550781 435.28125 409.367188 444.421875 400.601562 446.242188 C 391.835938 448.070312 382.351562 449.15625 356.417969 405.351562 L 350.21875 398.054688 C 350.21875 398.054688 336.703125 417.765625 339.265625 432.730469 C 341.820312 447.691406 353.867188 485.664062 353.867188 485.664062 L 373.949219 549.910156 C 373.949219 549.910156 371.035156 557.578125 373.585938 560.492188 C 375.496094 562.679688 377.613281 565.269531 378.855469 568.417969 C 378.113281 565.425781 376.867188 563.042969 376.867188 563.042969 C 376.867188 563.042969 436.019531 561.214844 447.335938 561.578125 C 458.652344 561.933594 458.652344 564.847656 460.117188 571.429688 Z M 330.476562 432.128906 C 330.382812 431.578125 330.175781 431.132812 329.769531 430.898438 C 330.070312 431.25 330.304688 431.65625 330.476562 432.128906 Z M 323.566406 449.144531 C 323.566406 449.144531 323.542969 449.300781 323.515625 449.5625 C 323.882812 448.84375 324.429688 448.046875 324.992188 447.027344 C 324.535156 447.707031 324.066406 448.410156 323.566406 449.144531 Z M 328.015625 458.25 C 329.597656 460.039062 330.789062 461.53125 332.320312 464.09375 C 332.371094 464.171875 332.410156 464.25 332.464844 464.332031 C 331.992188 462.707031 331.574219 461.359375 329.585938 459.714844 C 328.929688 459.191406 328.449219 458.71875 328.015625 458.25 Z M 324.128906 453.1875 C 324.46875 453.984375 324.980469 454.847656 325.753906 455.722656 C 326.394531 456.441406 326.957031 457.070312 327.480469 457.660156 C 326.289062 456.195312 325.765625 454.953125 324.128906 453.1875 Z M 310.785156 381.246094 C 322.886719 379.167969 328.082031 371.464844 329.78125 362.410156 C 327.84375 370.886719 322.507812 378.277344 310.785156 381.246094 Z M 262.652344 369.398438 C 266.289062 375.414062 270.710938 383.71875 273.511719 390.128906 C 271.769531 384.175781 269.089844 378.410156 265.882812 373.949219 C 264.535156 372.089844 263.488281 370.613281 262.652344 369.398438 Z M 275.367188 408.074219 C 275.5 407.117188 275.578125 406.125 275.605469 405.105469 C 274.597656 409.027344 272.476562 413.214844 269.140625 416.457031 C 272.308594 414.363281 274.871094 411.605469 275.367188 408.074219 Z M 294.351562 462.644531 C 294.351562 462.644531 295.085938 449.316406 292.519531 445.664062 C 289.96875 442.015625 285.953125 437.269531 283.390625 440.734375 C 286.671875 440.734375 290.6875 442.566406 292.519531 450.230469 C 294.351562 457.90625 293.984375 463.742188 294.351562 462.644531 Z M 321.371094 434.914062 C 317.589844 437.832031 313.570312 441.609375 311.335938 444.03125 C 308.523438 447.078125 302.320312 453.890625 298.238281 458.378906 C 304.542969 451.800781 316.738281 439.542969 321.371094 434.914062 Z M 318.085938 509.730469 C 318.085938 509.730469 337.070312 481.988281 338.167969 473.957031 C 338.167969 476.15625 318.085938 509.730469 318.085938 509.730469 Z M 338.128906 473.527344 C 338 472.425781 337.605469 471.71875 337.082031 471.144531 C 337.605469 472.035156 338 472.84375 338.128906 473.527344 Z M 629.53125 487.835938 C 638.664062 496.597656 643.398438 507.914062 643.398438 507.914062 C 636.097656 503.898438 620.765625 513.394531 620.765625 513.394531 C 620.03125 508.277344 609.816406 499.160156 609.816406 499.160156 C 609.816406 499.160156 526.933594 497.695312 521.816406 497.695312 C 516.703125 497.695312 515.617188 504.996094 515.617188 504.996094 C 515.617188 504.996094 518.992188 505.609375 520.953125 508.539062 L 520.351562 506.644531 L 576.035156 506.09375 C 576.035156 506.09375 586.800781 506.460938 587.71875 513.394531 C 588.632812 520.324219 584.25 523.609375 574.570312 524.15625 C 564.886719 524.707031 520.167969 524.339844 520.167969 524.339844 L 520.574219 522.246094 L 515.601562 525.441406 C 514.871094 527.625 521.085938 532.738281 521.085938 532.738281 L 512.683594 548.800781 C 512.683594 548.800781 510.5 542.953125 506.835938 535.289062 C 503.1875 527.625 504.285156 504.261719 504.285156 504.261719 L 494.433594 505.726562 C 494.433594 505.726562 448.433594 515.945312 434.917969 512.292969 C 421.402344 508.644531 413.015625 500.980469 414.46875 485.652344 C 415.933594 470.320312 430.535156 441.113281 430.535156 441.113281 C 430.535156 441.113281 434.917969 434.914062 432 427.96875 C 429.082031 421.035156 423.234375 416.289062 426.519531 411.171875 C 429.804688 406.058594 427.25 404.609375 432 400.957031 C 436.75 397.308594 437.847656 396.578125 438.203125 393.660156 C 438.570312 390.742188 437.105469 382.710938 440.386719 378.695312 C 443.671875 374.679688 449.519531 372.851562 449.152344 378.332031 C 448.785156 383.8125 444.402344 390.375 447.6875 394.027344 C 450.972656 397.675781 458.636719 403.875 460.835938 403.15625 C 463.019531 402.421875 462.300781 392.207031 463.019531 389.292969 C 463.742188 386.375 467.769531 385.277344 470.6875 392.941406 C 473.605469 400.605469 472.152344 406.804688 468.503906 420.683594 C 464.851562 434.546875 460.835938 444.410156 460.835938 456.457031 C 460.835938 468.503906 460.835938 468.503906 460.835938 468.503906 L 485.300781 463.386719 C 485.300781 463.386719 482.882812 488.554688 491.582031 502.132812 C 485.863281 491.171875 485.300781 463.386719 485.300781 463.386719 C 505.019531 452.074219 523.269531 459.738281 523.269531 459.738281 C 522.523438 466.644531 520.640625 473.878906 526.121094 479.882812 C 523.871094 475.867188 523.230469 471.261719 522.902344 468.136719 C 522.171875 461.203125 525.820312 459.738281 525.820312 459.738281 C 530.203125 463.023438 534.21875 461.921875 538.601562 457.90625 C 542.984375 453.894531 533.488281 436.011719 533.488281 436.011719 C 522.535156 432.730469 518.152344 427.613281 515.601562 421.414062 C 513.050781 415.214844 516.703125 404.988281 516.703125 404.988281 L 515.238281 398.785156 L 528.019531 393.671875 C 531.300781 386.007812 545.183594 375.792969 545.183594 375.792969 L 565.632812 407.917969 C 565.632812 407.917969 579.867188 410.101562 579.148438 417.765625 C 578.414062 425.429688 565.28125 424.332031 565.28125 424.332031 L 559.429688 425.796875 C 559.429688 425.796875 557.964844 429.445312 557.601562 440.027344 C 557.234375 450.609375 561.984375 460.472656 569.28125 462.289062 C 576.582031 464.121094 583.152344 465.207031 583.152344 465.207031 C 583.152344 465.207031 591.183594 464.109375 603.601562 469.222656 C 616.015625 474.335938 620.398438 479.070312 629.53125 487.835938 Z M 522.066406 512.085938 C 522.117188 512.910156 522.105469 513.785156 522.039062 514.660156 L 522.355469 513.011719 Z M 568.316406 479.855469 C 561.511719 484.25 553.113281 487.652344 544.097656 488.1875 C 543.914062 488.199219 543.757812 488.199219 543.574219 488.199219 C 552.550781 489.445312 561.316406 485.101562 568.316406 479.855469 Z M 675.898438 557.433594 C 672.730469 548.183594 643.398438 507.914062 643.398438 507.914062 C 643.398438 507.914062 627.453125 508.277344 622.347656 514.359375 C 617.234375 520.441406 618.945312 524.339844 614.800781 527.257812 C 610.652344 530.175781 618.933594 531.390625 619.667969 534.804688 C 620.398438 538.207031 616.984375 537.484375 614.800781 539.671875 L 576.582031 538.207031 C 578.230469 543.320312 582.785156 543.867188 590.28125 545.6875 C 590.910156 545.84375 591.601562 545.960938 592.335938 546.054688 C 588.464844 545.976562 584.929688 545.621094 582.679688 544.773438 C 574.894531 541.855469 572.460938 536.988281 568.8125 535.277344 C 565.160156 533.574219 553.726562 527.492188 556.394531 534.792969 C 556.394531 534.792969 558.1875 537.144531 559.929688 539.75 C 558.765625 539.082031 557.429688 538.648438 555.976562 538.742188 C 550.3125 539.109375 546.296875 548.421875 546.296875 548.421875 L 557.613281 550.371094 L 563.472656 546.785156 C 563.839844 549.035156 562.6875 550.566406 557.613281 550.371094 C 551.28125 550.121094 534.730469 546.472656 528.164062 545.988281 C 521.59375 545.503906 518.664062 545.988281 522.316406 550.855469 C 525.964844 555.71875 523.53125 556.453125 529.378906 561.316406 C 531.015625 562.679688 532.976562 563.972656 535.265625 565.1875 C 533.34375 564.507812 531.484375 564 529.144531 563.75 C 522.078125 563.019531 513.328125 552.320312 513.328125 552.320312 C 513.328125 552.320312 514.058594 559.617188 513.078125 570.566406 C 512.097656 581.511719 505.292969 590.027344 505.292969 590.027344 C 505.292969 590.027344 633.324219 590.511719 629.425781 589.78125 C 625.527344 589.046875 618.960938 579.5625 618.226562 579.066406 C 617.664062 578.6875 612.667969 577.601562 604.214844 575.914062 C 605.316406 576.070312 606.402344 576.214844 607.511719 576.398438 C 625.28125 579.316406 644.996094 585.644531 659.597656 582.730469 C 674.199219 579.8125 679.066406 566.679688 675.898438 557.433594 Z M 675.898438 557.433594 " fill-opacity="1" fill-rule="evenodd"/><path fill="#fabc04" d="M 391.601562 276.609375 C 388.917969 271.011719 382.597656 264.195312 384.300781 257.144531 C 386 250.082031 393.066406 238.402344 406.699219 238.898438 C 420.332031 239.382812 427.632812 252.761719 427.148438 261.292969 C 426.664062 269.804688 420.082031 276.371094 419.113281 280.519531 C 418.144531 284.652344 417.898438 285.867188 417.898438 285.867188 C 417.898438 285.867188 418.382812 288.785156 418.628906 292.929688 C 418.878906 297.078125 412.0625 297.066406 412.0625 297.066406 C 412.0625 297.066406 411.09375 302.664062 407.195312 303.148438 C 403.296875 303.632812 401.84375 298.03125 401.84375 298.03125 C 401.84375 298.03125 399.894531 297.550781 396.730469 296.566406 C 393.5625 295.601562 396.730469 293.402344 395.027344 291.453125 C 393.328125 289.503906 395.027344 286.105469 395.027344 286.105469 C 395.027344 286.105469 394.269531 282.207031 391.601562 276.609375 Z M 281.9375 453.527344 L 259.667969 451.824219 C 261.855469 462.539062 264.417969 470.6875 247.621094 474.703125 C 230.820312 478.71875 209.769531 452.308594 209.769531 452.308594 C 209.769531 452.308594 191.019531 452.425781 173.503906 456.808594 C 155.972656 461.191406 154.886719 476.15625 154.886719 476.15625 C 154.296875 491.195312 159.660156 502.902344 165.601562 513 C 164.59375 511.628906 164.015625 510.828125 164.015625 510.828125 L 147.585938 589.675781 L 223.167969 590.773438 L 238.867188 588.589844 C 229.734375 586.039062 211.117188 568.511719 202.71875 560.480469 C 199.054688 556.976562 191.191406 547.046875 183.511719 536.988281 C 186.417969 540.011719 188.46875 541.867188 188.46875 541.867188 C 194.316406 508.644531 220.96875 512.308594 220.96875 512.308594 L 246.519531 538.21875 L 285.953125 483.101562 C 285.953125 483.101562 282.667969 475.070312 280.105469 469.234375 C 277.554688 463.375 281.9375 453.527344 281.9375 453.527344 Z M 486.402344 553.535156 C 480.554688 552.4375 373.949219 553.535156 373.949219 553.535156 C 373.949219 553.535156 368.101562 562.296875 379.433594 562.296875 C 390.75 562.296875 447.714844 559.015625 452.816406 562.664062 C 457.917969 566.3125 461.214844 576.53125 459.75 580.546875 C 458.285156 584.558594 453.902344 585.292969 448.433594 585.292969 C 442.964844 585.292969 373.21875 585.292969 373.21875 585.292969 L 371.753906 588.574219 L 496.984375 590.039062 C 496.984375 590.039062 497.71875 569.597656 496.621094 563.761719 C 495.53125 557.917969 492.25 554.632812 486.402344 553.535156 Z M 611.632812 530.175781 C 611.632812 530.175781 623.566406 523.84375 620.765625 513.378906 C 617.964844 502.914062 614.316406 498.535156 603.117188 498.296875 C 591.917969 498.050781 521.816406 497.683594 521.816406 497.683594 C 521.816406 497.683594 515.25 501.699219 515.617188 504.984375 C 515.980469 508.265625 578.53125 504.617188 583.398438 507.050781 C 588.265625 509.480469 589.96875 515.8125 588.019531 518.976562 C 586.070312 522.144531 583.636719 523.84375 575.851562 524.09375 C 568.066406 524.339844 513.300781 524.09375 513.300781 524.09375 C 513.300781 524.09375 518.167969 530.175781 528.882812 530.660156 C 539.585938 531.15625 611.632812 530.175781 611.632812 530.175781 Z M 546.832031 532.148438 C 547.171875 531.824219 547.382812 531.625 547.382812 531.625 L 524.199219 532.542969 C 524.199219 532.542969 515.066406 537.65625 515.433594 546.589844 C 515.800781 555.535156 522.550781 562.101562 527.480469 562.46875 C 532.414062 562.835938 528.214844 557.171875 525.46875 553.15625 C 522.734375 549.140625 518.535156 545.675781 523.464844 544.941406 C 528.398438 544.210938 539.53125 548.589844 539.53125 548.589844 C 539.53125 548.589844 538.25 541.292969 541.535156 537.644531 C 542.148438 536.960938 542.710938 536.347656 543.261719 535.773438 C 541.625 538.886719 539.714844 543.410156 540.25 546.773438 C 541.167969 552.4375 547.734375 549.507812 547.734375 549.507812 C 547.734375 549.507812 548.820312 538.441406 555.953125 538.742188 C 560.335938 538.925781 554.851562 531.992188 554.851562 531.992188 Z M 564.167969 531.273438 L 574.386719 538.386719 C 574.386719 538.386719 619.652344 539.671875 619.300781 537.65625 C 618.933594 535.65625 615.648438 532.175781 615.648438 532.175781 Z M 564.167969 531.273438 " fill-opacity="1" fill-rule="evenodd"/><path fill="#000000" d="M 258.203125 362.753906 C 258.203125 362.753906 249.070312 368.101562 241.039062 369.933594 C 233.003906 371.765625 225.703125 369.933594 222.789062 374.679688 C 219.871094 379.429688 223.152344 390.011719 226.804688 395.125 C 230.453125 400.238281 230.453125 401.324219 224.972656 400.605469 C 219.492188 399.871094 215.839844 401.335938 214.753906 405.351562 C 213.667969 409.367188 220.234375 417.035156 226.804688 419.21875 L 224.617188 429.929688 C 224.617188 429.929688 200.285156 419.714844 199.304688 401.21875 C 199.304688 401.21875 178.855469 403.652344 176.421875 391.488281 C 173.988281 379.324219 176.421875 372.507812 182.269531 369.097656 C 188.117188 365.683594 199.304688 363.746094 207.101562 368.613281 C 207.101562 368.613281 219.269531 354.5 235.335938 352.066406 C 251.386719 349.621094 254.800781 352.535156 258.203125 362.753906 Z M 320.769531 233.050781 C 308.117188 225.269531 292.285156 226.96875 275.5 231.351562 C 258.699219 235.734375 252.617188 252.527344 251.164062 262.011719 C 249.710938 271.492188 255.300781 292.1875 254.566406 302.648438 C 253.832031 313.113281 240.699219 333.074219 240.699219 333.074219 C 240.699219 333.074219 263.582031 332.824219 270.148438 328.691406 C 276.714844 324.558594 274.765625 296.566406 274.765625 296.566406 C 270.382812 291.453125 266.734375 281.972656 269.414062 278.558594 C 272.097656 275.15625 281.097656 279.523438 281.097656 279.523438 C 297.898438 274.90625 319.066406 253.730469 319.066406 253.730469 C 319.066406 253.730469 325.152344 263.945312 326.367188 274.90625 C 327.582031 285.867188 327.335938 291.703125 321.984375 299.96875 C 316.632812 308.234375 300.082031 309.214844 300.082031 309.214844 C 300.082031 309.214844 298.382812 306.535156 299.351562 320.164062 C 300.320312 333.792969 316.148438 327.710938 324.417969 325.277344 C 332.699219 322.84375 343.167969 325.761719 343.167969 325.761719 C 343.167969 325.761719 333.433594 306.535156 332.699219 295.835938 C 331.96875 285.136719 341.699219 270.289062 343.167969 260.0625 C 344.617188 249.847656 333.417969 240.835938 320.769531 233.050781 Z M 686.847656 495.617188 C 686.847656 495.617188 703.164062 485.152344 699.5 474.207031 C 695.835938 463.257812 685.632812 460.824219 674.433594 455.960938 C 663.234375 451.09375 642.300781 442.578125 638.167969 430.648438 C 634.03125 418.722656 631.101562 403.875 629.164062 394.390625 C 627.230469 384.910156 625.265625 378.578125 615.046875 375.414062 C 604.832031 372.246094 591.683594 381.496094 591.683594 381.496094 C 591.683594 381.496094 601.414062 392.140625 602.058594 405.3125 C 600.121094 392.847656 589.980469 376.277344 576.113281 369.566406 C 561.027344 362.269531 542.03125 367.617188 531.8125 372.484375 C 521.59375 377.347656 519.398438 395.84375 519.398438 395.84375 C 519.398438 395.84375 526.945312 393.894531 528.03125 393.660156 C 533.015625 381.730469 545.195312 375.78125 545.195312 375.78125 L 565.644531 407.902344 C 565.644531 407.902344 579.277344 407.539062 579.160156 417.753906 C 579.042969 427.96875 561.996094 424.320312 561.996094 424.320312 L 556.644531 429.917969 L 557.613281 440.015625 C 557.613281 440.015625 569.78125 439.164062 582.679688 435.75 C 587.925781 434.363281 592.21875 431.683594 595.460938 428.152344 C 593.984375 430.203125 592.898438 430.886719 592.898438 430.886719 C 592.898438 430.886719 597.03125 463.492188 602.632812 467.390625 C 608.230469 471.289062 621.378906 479.070312 637.433594 498.78125 C 653.5 518.492188 665.183594 538.453125 665.183594 538.453125 C 665.183594 538.453125 673.464844 542.835938 682.714844 536.269531 C 691.964844 529.703125 697.316406 516.808594 694.882812 508.527344 C 692.449219 500.246094 686.847656 495.617188 686.847656 495.617188 Z M 686.847656 495.617188 " fill-opacity="1" fill-rule="evenodd"/><g clip-path="url(#8314489314)"><path fill="#000000" d="M 689.976562 496.636719 C 691.296875 495.957031 692.855469 495.003906 694.398438 493.640625 C 697.824219 490.632812 701.789062 485.113281 701.148438 475.855469 C 700.324219 463.792969 692.132812 460.628906 678.566406 455.398438 C 671.90625 452.820312 663.601562 449.628906 653.996094 444.515625 C 638.402344 436.222656 635.445312 418.941406 632.816406 403.707031 C 630.734375 391.578125 628.929688 381.101562 621.355469 376.523438 C 606.558594 367.578125 594.234375 375.910156 591.121094 378.371094 C 576.492188 362.4375 558.464844 359.234375 536.144531 368.585938 C 518.390625 376.015625 518.191406 392.222656 518.3125 395.164062 C 517.734375 395.347656 517.171875 395.515625 516.6875 395.6875 C 515.5 396.078125 514.609375 396.902344 514.136719 398.042969 C 513.222656 400.265625 514.175781 403.195312 514.804688 404.671875 C 513.667969 407.707031 510.316406 418.339844 515.117188 426.921875 C 518.152344 432.363281 523.792969 435.828125 531.878906 437.242188 C 535.894531 448.007812 537.464844 458.378906 535.164062 459.320312 C 532.703125 460.328125 531.316406 459.726562 528.527344 458.523438 C 525.730469 457.304688 521.910156 455.644531 515.511719 455.460938 C 504.664062 455.082031 471.394531 463.023438 462 465.324219 C 462.339844 457.097656 462.980469 447.523438 464.199219 441.046875 C 465.257812 435.410156 467.195312 430.347656 469.050781 425.457031 C 471.734375 418.40625 474.273438 411.761719 474.273438 403.875 C 474.273438 393.671875 470.242188 386.453125 466.253906 384.582031 C 464.722656 383.863281 463.21875 383.980469 462.132812 384.894531 C 460.457031 386.28125 460.691406 389.160156 461.019531 393.125 C 461.175781 395.097656 461.515625 399.152344 460.914062 400.121094 C 460.890625 400.121094 460.847656 400.109375 460.796875 400.109375 C 455.550781 399.0625 448.511719 393.175781 448.238281 389.605469 C 448.132812 388.296875 448.996094 386.046875 449.742188 384.070312 C 451.011719 380.722656 452.226562 377.570312 450.722656 375.269531 C 449.9375 374.066406 448.605469 373.398438 446.746094 373.292969 C 444.011719 373.136719 441.488281 374.339844 439.472656 376.746094 C 436.121094 380.761719 434.773438 387.5 435.953125 393.828125 C 432.695312 395.6875 431.320312 399.507812 431.152344 400.03125 C 430.808594 400.199219 430.46875 400.394531 430.15625 400.617188 C 426.792969 403.089844 426.808594 407.863281 426.832031 408.402344 C 426.847656 408.753906 426.949219 409.066406 427.121094 409.355469 C 426.832031 409.5 426.648438 409.589844 426.609375 409.617188 C 426.453125 409.707031 426.308594 409.8125 426.179688 409.945312 C 422.933594 413.1875 423.785156 419.035156 428.652344 426.871094 C 430.929688 430.546875 431.570312 434.796875 430.417969 438.550781 C 430.128906 439.464844 429.765625 440.328125 429.332031 441.101562 C 424.464844 449.71875 411.003906 477.855469 412.976562 493.628906 C 414.925781 509.257812 421.246094 514.4375 438.738281 514.4375 C 439.144531 514.4375 439.5625 514.4375 439.996094 514.425781 C 456.675781 514.203125 493.871094 508.003906 502.507812 506.527344 C 500.921875 516.441406 501.160156 528.226562 506.628906 539.59375 C 518.636719 564.546875 504.640625 587.804688 504.496094 588.027344 C 504.390625 588.210938 504.3125 588.394531 504.273438 588.589844 L 499.210938 588.589844 L 499.210938 567.296875 C 499.210938 558.402344 491.972656 551.167969 483.066406 551.167969 L 375.941406 551.167969 C 373.347656 537.707031 353.421875 476.691406 347.3125 461.660156 C 341.492188 447.351562 337.984375 420.066406 348.375 404.226562 C 349.199219 402.984375 349.902344 401.691406 350.519531 400.394531 C 352.875 404.527344 357.714844 412.78125 363.496094 421.21875 C 374.644531 437.464844 383.828125 446.542969 390.789062 448.203125 C 393.011719 448.738281 395.09375 449 397.042969 449 C 401.136719 449 404.589844 447.824219 407.367188 445.480469 C 412.453125 441.179688 414.757812 433.1875 414.039062 422.371094 C 413.75 418.105469 413.03125 412.558594 412.273438 406.699219 C 410.164062 390.414062 407.273438 368.113281 412.78125 362.097656 C 416.183594 358.382812 422.359375 357.050781 427.800781 355.871094 C 433.9375 354.550781 440.257812 353.191406 440.53125 347.996094 C 441.851562 347.410156 443.644531 346.285156 444.496094 344.285156 C 445.226562 342.542969 445.097656 340.609375 444.101562 338.515625 C 444.847656 337.140625 445.84375 334.707031 445.125 332.484375 C 444.769531 331.386719 443.855469 329.921875 441.539062 329.148438 C 438.175781 328.023438 430 327.894531 424.097656 327.960938 C 426.269531 326.324219 428.703125 324.324219 430.613281 322.335938 C 433.28125 319.550781 434.054688 316.605469 432.679688 314.433594 C 431.425781 312.460938 428.730469 311.820312 425.785156 312.800781 C 421.234375 314.316406 400.875 327.398438 394.398438 333.625 C 393.3125 331.492188 393.3125 328.707031 393.3125 325.984375 C 393.3125 322.542969 393.328125 319.289062 391.078125 317.285156 C 388.734375 315.207031 386.667969 315.636719 385.632812 316.082031 C 382.441406 317.457031 380.625 322.464844 380.375 330.589844 C 380.191406 336.382812 380.441406 353.660156 380.753906 370.089844 C 369.621094 347.800781 358.527344 333.703125 346.984375 327.148438 C 346.960938 327.109375 346.945312 327.070312 346.921875 327.042969 C 340.234375 320.230469 336.089844 311.097656 334.609375 299.929688 C 333.394531 290.800781 336.832031 283.671875 340.8125 275.417969 L 341.464844 274.058594 C 343.425781 269.964844 344.410156 266.550781 344.511719 263.320312 C 345.207031 244.351562 327.085938 230.460938 309.6875 227.023438 C 296.222656 224.367188 276.953125 225.359375 263.226562 236.140625 C 245.449219 250.109375 248.757812 271.703125 251.164062 287.464844 C 251.714844 291.046875 252.238281 294.4375 252.433594 297.3125 C 253.480469 312.003906 238.472656 331.855469 238.332031 332.054688 C 238.199219 332.238281 238.109375 332.433594 238.027344 332.628906 C 228.4375 335.730469 219.871094 342.4375 217.515625 357.730469 C 214.414062 359.863281 211 362.726562 207.910156 366.464844 C 204.71875 365.261719 192.1875 361.105469 183.132812 366.023438 C 178.449219 368.558594 175.503906 373.058594 174.367188 379.375 C 172.925781 387.328125 174.289062 393.4375 178.382812 397.519531 C 182.882812 402.003906 189.671875 402.945312 194.539062 402.945312 C 196.058594 402.945312 197.378906 402.855469 198.386719 402.75 C 199.695312 411.394531 204.234375 417.636719 209.140625 422.003906 L 203.789062 449.550781 C 203.648438 449.5625 203.515625 449.578125 203.359375 449.578125 C 183.550781 451.082031 150.386719 453.605469 152.714844 484.328125 C 153.277344 491.8125 156.703125 500.640625 161.765625 509.886719 C 161.726562 509.992188 161.6875 510.097656 161.675781 510.203125 L 146.289062 588.5625 L 108.9375 588.5625 C 107.851562 588.5625 106.976562 589.4375 106.976562 590.523438 C 106.976562 591.609375 107.851562 592.488281 108.9375 592.488281 L 678.003906 592.488281 C 679.089844 592.488281 679.96875 591.609375 679.96875 590.523438 C 679.96875 589.4375 679.089844 588.5625 678.003906 588.5625 L 632.1875 588.5625 C 632.054688 588.457031 631.925781 588.355469 631.769531 588.273438 C 628.929688 586.863281 625.921875 584.363281 623.644531 582.257812 C 631.46875 583.839844 640.835938 585.253906 649.507812 585.253906 C 655.671875 585.253906 661.46875 584.546875 666.085938 582.675781 C 670.914062 580.726562 674.261719 577.210938 676.027344 572.214844 C 679.039062 563.710938 676.511719 552.894531 673.753906 547.9375 C 673.046875 546.65625 671.476562 544.105469 669.265625 540.675781 C 670.351562 540.875 671.449219 540.976562 672.550781 540.976562 C 675.636719 540.976562 678.777344 540.234375 681.773438 538.742188 C 688.679688 535.300781 693.964844 528.34375 696.242188 519.632812 C 699.371094 507.769531 693.664062 500.144531 689.976562 496.636719 Z M 537.675781 372.207031 C 560.191406 362.777344 577.265625 366.765625 591.40625 384.753906 C 600.433594 396.222656 602.59375 411.1875 596.757812 421.992188 C 590.816406 432.992188 577.460938 438.261719 559.105469 436.929688 C 558.960938 434.546875 558.910156 432.230469 558.933594 430.152344 L 562.375 426.164062 C 566 427 573.496094 427.851562 578.023438 424.605469 C 580.222656 423.039062 581.425781 420.683594 581.503906 417.804688 C 581.570312 415.203125 580.71875 412.964844 578.964844 411.160156 C 575.472656 407.578125 569.296875 406.816406 566.769531 406.660156 L 546.871094 374.941406 C 546.296875 374.027344 545.09375 373.753906 544.175781 374.316406 C 543.574219 374.679688 529.957031 383.15625 525.875 392.953125 C 525.007812 393.1875 523.664062 393.582031 522.195312 394 C 522.222656 390.089844 523.492188 378.148438 537.675781 372.207031 Z M 576.597656 461.140625 C 573.128906 460.890625 570.148438 460.667969 567.792969 460.195312 C 562.949219 459.230469 560.4375 450.097656 559.445312 440.878906 C 561.261719 440.996094 563.015625 441.074219 564.691406 441.074219 C 577.851562 441.074219 586.488281 437.503906 592.140625 433.214844 C 593.265625 440.367188 596.050781 456.128906 600.015625 465.023438 C 591.394531 462.222656 583.097656 461.621094 576.597656 461.140625 Z M 536.667969 462.945312 C 540.371094 461.425781 541.101562 456.167969 538.902344 446.867188 C 537.453125 440.722656 535.242188 435.003906 535.148438 434.757812 C 534.902344 434.101562 534.296875 433.632812 533.605469 433.527344 C 526.1875 432.441406 521.125 429.578125 518.574219 425.011719 C 516.597656 421.492188 516.347656 417.414062 516.703125 413.882812 C 516.886719 414.15625 517.066406 414.429688 517.277344 414.691406 C 518.21875 415.894531 519.421875 416.929688 520.824219 417.636719 C 522.210938 418.328125 523.726562 418.8125 525.246094 418.863281 C 526.003906 418.96875 526.738281 418.839844 527.480469 418.8125 C 528.203125 418.695312 528.910156 418.539062 529.601562 418.355469 C 530.074219 418.222656 530.453125 417.816406 530.503906 417.308594 C 530.570312 416.640625 530.085938 416.039062 529.417969 415.972656 L 529.210938 415.949219 C 528.582031 415.882812 527.980469 415.921875 527.378906 415.855469 C 526.789062 415.75 526.199219 415.765625 525.652344 415.59375 C 524.527344 415.398438 523.503906 414.96875 522.550781 414.457031 C 521.59375 413.933594 520.746094 413.242188 519.972656 412.417969 C 519.226562 411.617188 518.480469 410.609375 517.933594 409.722656 L 517.8125 409.527344 C 517.734375 409.40625 517.644531 409.304688 517.539062 409.199219 C 518.113281 406.921875 518.742188 405.417969 518.757812 405.378906 C 518.976562 404.855469 518.964844 404.242188 518.703125 403.730469 C 518.011719 402.34375 517.460938 400.277344 517.773438 399.53125 C 517.800781 399.46875 517.8125 399.453125 517.945312 399.402344 C 521.203125 398.316406 527.824219 396.472656 527.886719 396.457031 C 528.503906 396.289062 529 395.816406 529.222656 395.214844 C 531.667969 388.167969 540.851562 381.300781 544.621094 378.722656 L 564.011719 409.617188 C 564.363281 410.191406 564.992188 410.53125 565.671875 410.53125 C 567.6875 410.53125 573.507812 411.148438 576.164062 413.894531 C 577.171875 414.925781 577.628906 416.171875 577.589844 417.699219 C 577.539062 419.375 576.964844 420.550781 575.757812 421.414062 C 572.398438 423.808594 565.332031 423.039062 562.285156 422.082031 C 561.539062 421.847656 560.726562 422.082031 560.214844 422.671875 L 555.507812 428.125 C 555.207031 428.464844 555.035156 428.910156 555.023438 429.355469 C 554.945312 432.636719 554.605469 461.570312 567.019531 464.042969 C 569.609375 464.566406 572.710938 464.789062 576.296875 465.050781 C 577.628906 465.140625 579.003906 465.246094 580.429688 465.375 C 576.203125 471.144531 562.585938 487.101562 541.964844 485.9375 C 535.148438 485.558594 530.257812 483.324219 527.429688 479.28125 C 523.320312 473.40625 524.40625 465.0625 525.167969 461.359375 C 525.792969 461.609375 526.398438 461.871094 526.960938 462.105469 C 529.914062 463.386719 532.675781 464.578125 536.667969 462.945312 Z M 450.527344 408.976562 C 448.5625 405.273438 444.207031 401.9375 438.621094 400.015625 C 437.640625 399.675781 436.722656 399.46875 435.847656 399.347656 C 436.4375 398.421875 437.261719 397.464844 438.292969 397.019531 C 439.273438 396.589844 440.375 396.65625 441.65625 397.21875 C 446.089844 399.191406 450.226562 403.746094 450.695312 407.15625 C 450.777344 407.839844 450.722656 408.441406 450.527344 408.976562 Z M 442.507812 379.234375 C 443.710938 377.792969 445.058594 377.101562 446.550781 377.191406 C 447.242188 377.230469 447.4375 377.386719 447.4375 377.386719 C 447.832031 378.054688 446.695312 381.050781 446.078125 382.660156 C 445.136719 385.132812 444.15625 387.695312 444.324219 389.894531 C 444.496094 392.0625 445.789062 394.300781 447.636719 396.355469 C 446.210938 395.242188 444.691406 394.300781 443.238281 393.660156 C 442.074219 393.136719 440.898438 392.875 439.773438 392.847656 C 438.894531 387.734375 439.941406 382.292969 442.507812 379.234375 Z M 432.5 403.746094 C 433.53125 402.984375 435.167969 402.984375 437.339844 403.730469 C 442.832031 405.613281 447.085938 409.226562 447.675781 412.519531 C 447.804688 413.242188 447.738281 413.933594 447.492188 414.585938 C 446.3125 412.179688 444.179688 410.007812 441.511719 408.78125 C 437.5625 406.960938 433.609375 407.300781 430.757812 408.035156 C 430.808594 406.976562 431.152344 404.738281 432.5 403.746094 Z M 439.929688 510.476562 C 421.992188 510.726562 418.421875 505.558594 416.863281 493.105469 C 415.164062 479.476562 426.820312 453.460938 432.746094 442.996094 C 433.324219 441.976562 433.804688 440.851562 434.171875 439.675781 C 435.664062 434.835938 434.867188 429.40625 431.988281 424.765625 C 428.496094 419.125 427.316406 414.730469 428.78125 412.875 C 429.972656 412.296875 435.074219 410.101562 439.890625 412.324219 C 443.09375 413.804688 444.914062 417.125 444.535156 419.191406 C 444.417969 419.84375 444.089844 420.605469 442.53125 420.734375 C 440.074219 420.929688 439.457031 420.042969 438.449219 418.5625 C 437.601562 417.320312 436.449219 415.621094 434.015625 415.292969 C 432.941406 415.148438 431.949219 415.910156 431.804688 416.980469 C 431.660156 418.054688 432.417969 419.046875 433.492188 419.191406 C 434.121094 419.269531 434.449219 419.675781 435.195312 420.773438 C 436.34375 422.476562 438.097656 425.023438 442.835938 424.644531 C 445.816406 424.410156 447.898438 422.632812 448.382812 419.886719 C 448.394531 419.84375 448.394531 419.792969 448.394531 419.753906 C 450.394531 418.027344 451.496094 415.921875 451.625 413.671875 C 451.703125 413.621094 451.78125 413.59375 451.863281 413.542969 C 454.007812 411.773438 454.9375 409.382812 454.570312 406.621094 C 454.214844 404.03125 452.699219 401.402344 450.644531 399.140625 C 453.679688 401.546875 457.238281 403.363281 460.027344 403.914062 C 461.714844 404.253906 462.839844 403.652344 463.464844 403.089844 C 465.625 401.167969 465.285156 397.085938 464.929688 392.769531 C 464.8125 391.304688 464.644531 389.210938 464.75 388.152344 C 466.488281 389.03125 470.347656 394.128906 470.347656 403.847656 C 470.347656 411.015625 467.941406 417.335938 465.390625 424.03125 C 463.464844 429.09375 461.476562 434.3125 460.339844 440.289062 C 457.734375 454.074219 457.695312 480.445312 457.695312 481.554688 C 457.695312 482.640625 458.574219 483.519531 459.660156 483.519531 C 460.746094 483.519531 461.621094 482.640625 461.621094 481.554688 C 461.621094 481.4375 461.621094 476.273438 461.84375 469.378906 C 465.113281 468.582031 473.984375 466.449219 483.769531 464.34375 C 482.632812 470.882812 481.234375 487.078125 490.585938 504.460938 C 475.765625 506.839844 451.992188 510.320312 439.929688 510.476562 Z M 510.160156 537.867188 C 498.125 512.84375 513.902344 484.433594 514.070312 484.160156 C 514.609375 483.21875 514.28125 482.015625 513.328125 481.492188 C 512.382812 480.953125 511.195312 481.28125 510.65625 482.222656 C 510.292969 482.863281 505.777344 490.988281 503.277344 502.378906 C 502.335938 502.535156 499.210938 503.085938 494.707031 503.804688 C 484.320312 485.480469 487.027344 467.914062 487.957031 463.46875 C 498.910156 461.203125 510.148438 459.214844 515.394531 459.359375 C 517.789062 459.4375 519.738281 459.738281 521.410156 460.144531 C 520.507812 464.199219 519.058594 474.128906 524.199219 481.503906 C 527.742188 486.59375 533.644531 489.390625 541.742188 489.847656 C 542.554688 489.886719 543.367188 489.914062 544.164062 489.914062 C 568.394531 489.914062 582.667969 469.289062 584.90625 465.808594 C 595.789062 467.101562 608.492188 470.269531 619.5625 481.335938 C 625.75 487.519531 633.023438 496.441406 640.128906 505.832031 C 632.421875 505.414062 625.699219 508.90625 622.0625 511.300781 C 620.386719 503.058594 613.074219 496.832031 604.347656 496.832031 L 523.019531 496.832031 C 517.972656 496.832031 513.863281 500.941406 513.863281 505.988281 C 513.863281 507.074219 514.738281 507.953125 515.824219 507.953125 L 518.574219 507.953125 C 519.488281 509.914062 520.757812 513.328125 520.339844 515.539062 C 519.945312 517.644531 519.070312 519.878906 518.402344 521.371094 L 515.316406 521.371094 C 514.230469 521.371094 513.351562 522.246094 513.351562 523.332031 C 513.351562 527.792969 516.386719 531.535156 520.507812 532.648438 C 516.480469 535.511719 513.667969 539.972656 513.011719 545.113281 C 512.292969 542.730469 511.335938 540.3125 510.160156 537.867188 Z M 615.519531 536.503906 L 574.855469 536.503906 C 574.753906 536.503906 574.648438 536.519531 574.542969 536.53125 C 572.789062 535.339844 570.867188 534.214844 568.890625 533.234375 L 612.300781 533.234375 C 614.484375 533.234375 616.371094 534.582031 617.140625 536.503906 Z M 580.535156 541.644531 C 580.179688 541.253906 579.800781 540.847656 579.382812 540.441406 L 612.457031 540.441406 C 612.066406 541.4375 611.671875 542.613281 611.386719 543.828125 C 593.671875 544.628906 582.234375 543.582031 580.535156 541.644531 Z M 549.070312 547.949219 C 549.054688 547.804688 549.042969 547.664062 549.042969 547.503906 C 549.042969 543.59375 552.222656 540.414062 556.132812 540.414062 L 557.523438 540.414062 C 558.085938 540.964844 558.671875 541.527344 559.273438 542.089844 C 560.425781 543.164062 562.101562 544.730469 562.625 545.53125 C 561.644531 546.550781 556.894531 548.25 549.070312 547.949219 Z M 554.328125 536.660156 C 549.109375 537.523438 545.117188 542.050781 545.117188 547.503906 C 545.117188 547.542969 545.132812 547.597656 545.132812 547.636719 C 543.980469 547.503906 542.894531 547.335938 541.835938 547.125 C 541.335938 536.441406 547.996094 533.457031 548.324219 533.328125 C 548.390625 533.300781 548.453125 533.261719 548.519531 533.222656 L 553.636719 533.222656 C 553.582031 533.429688 553.558594 533.640625 553.53125 533.824219 C 553.464844 534.777344 553.78125 535.71875 554.328125 536.660156 Z M 522.589844 543.085938 C 521.214844 543.59375 520.285156 544.589844 519.984375 545.871094 C 519.359375 548.472656 521.515625 551.535156 522.757812 553.039062 C 522.773438 556.136719 524.773438 558.871094 527.011719 560.976562 C 521.125 559.265625 516.804688 553.835938 516.804688 547.402344 C 516.804688 539.605469 523.152344 533.25 530.960938 533.25 L 542.1875 533.25 C 539.976562 535.757812 537.832031 539.851562 537.882812 546.222656 C 535.855469 545.660156 534.035156 545.046875 532.402344 544.496094 C 528.425781 543.136719 525.269531 542.0625 522.589844 543.085938 Z M 604.359375 529.074219 L 523.019531 529.074219 C 520.546875 529.074219 518.441406 527.507812 517.644531 525.308594 L 517.789062 525.308594 C 518.152344 525.765625 518.703125 526.054688 519.304688 526.054688 L 579.1875 526.054688 C 585.257812 526.054688 590.203125 521.109375 590.203125 515.039062 C 590.203125 508.972656 585.257812 504.027344 579.1875 504.027344 L 518.179688 504.027344 C 518.953125 502.117188 520.835938 500.757812 523.019531 500.757812 L 586.816406 500.757812 C 586.878906 500.796875 586.933594 500.835938 586.996094 500.863281 C 587.390625 501.019531 596.496094 505.046875 592.53125 520.886719 C 592.269531 521.933594 592.910156 523.007812 593.957031 523.269531 C 594.117188 523.308594 594.285156 523.320312 594.441406 523.320312 C 595.320312 523.320312 596.117188 522.71875 596.339844 521.828125 C 599.125 510.699219 596.117188 504.238281 593.042969 500.757812 L 604.347656 500.757812 C 612.144531 500.757812 618.503906 507.101562 618.503906 514.910156 C 618.503906 522.71875 612.15625 529.074219 604.359375 529.074219 Z M 522.863281 507.953125 L 579.1875 507.953125 C 583.097656 507.953125 586.277344 511.128906 586.277344 515.039062 C 586.277344 518.953125 583.097656 522.128906 579.1875 522.128906 L 522.378906 522.128906 C 523.058594 520.496094 523.820312 518.363281 524.210938 516.269531 C 524.722656 513.550781 523.765625 510.265625 522.863281 507.953125 Z M 495.273438 567.269531 L 495.273438 588.5625 L 373.9375 588.5625 C 373.820312 587.6875 373.871094 586.980469 374.132812 586.574219 C 374.304688 586.300781 374.566406 586.195312 374.65625 586.167969 C 378.242188 586.222656 430.757812 586.914062 442.191406 586.914062 L 444.222656 586.914062 C 454.660156 586.953125 461.59375 586.980469 462 574.226562 C 462.339844 563.621094 454.882812 560.246094 450.894531 559.945312 C 450.839844 559.945312 450.789062 559.945312 450.734375 559.945312 L 376.722656 559.945312 C 376.121094 559.945312 375.074219 559.867188 374.773438 559.34375 C 374.289062 558.53125 374.800781 556.597656 375.46875 555.066406 L 460.484375 555.066406 C 460.628906 555.210938 460.769531 555.339844 460.953125 555.445312 C 461.492188 555.734375 473.90625 562.820312 467.835938 581.367188 C 467.496094 582.402344 468.058594 583.5 469.09375 583.839844 C 469.300781 583.90625 469.496094 583.933594 469.707031 583.933594 C 470.53125 583.933594 471.304688 583.410156 471.578125 582.585938 C 476.351562 568 470.871094 559.265625 466.683594 555.050781 L 483.066406 555.050781 C 489.800781 555.050781 495.273438 560.53125 495.273438 567.269531 Z M 379.355469 582.3125 C 383.292969 576.515625 381.1875 568.183594 379.640625 563.855469 L 450.65625 563.855469 C 451.71875 563.972656 458.375 565.046875 458.089844 574.097656 C 457.800781 583.03125 454.949219 583.03125 444.246094 582.992188 L 442.207031 582.992188 C 432.5 582.992188 393.171875 582.480469 379.355469 582.3125 Z M 380.910156 379.195312 C 381.1875 392.546875 381.449219 403.601562 381.472656 404.660156 C 381.5 405.734375 382.375 406.570312 383.4375 406.570312 C 383.449219 406.570312 383.460938 406.570312 383.488281 406.570312 C 384.574219 406.542969 385.425781 405.640625 385.398438 404.554688 C 385.386719 403.941406 383.921875 342.375 384.285156 330.667969 C 384.535156 322.820312 386.289062 320.019531 387.179688 319.640625 C 387.582031 319.472656 388.160156 319.902344 388.460938 320.175781 C 389.390625 321 389.390625 323.511719 389.375 325.933594 C 389.375 329.59375 389.363281 333.753906 391.941406 337.023438 C 393.300781 338.761719 399.828125 347.789062 394.164062 355.0625 C 393.496094 355.910156 393.652344 357.152344 394.503906 357.808594 C 395.355469 358.476562 396.597656 358.316406 397.253906 357.46875 C 402.339844 350.941406 400.339844 342.777344 396.625 336.878906 C 401.6875 331.542969 422.867188 317.847656 427.015625 316.476562 C 428.378906 316.03125 429.203125 316.265625 429.34375 316.488281 C 429.515625 316.761719 429.359375 317.914062 427.761719 319.574219 C 423.691406 323.8125 416.65625 328.351562 416.589844 328.390625 C 415.84375 328.875 415.515625 329.789062 415.777344 330.628906 C 416.050781 331.476562 416.8125 332.054688 417.726562 332 C 422.699219 331.792969 436.4375 331.554688 440.269531 332.824219 C 441.199219 333.140625 441.328125 333.519531 441.367188 333.648438 C 441.589844 334.316406 441.226562 335.441406 440.753906 336.355469 C 434.488281 336.109375 416.039062 337.390625 413.789062 337.558594 C 412.703125 337.636719 411.890625 338.582031 411.96875 339.652344 C 412.050781 340.6875 412.898438 341.472656 413.921875 341.472656 C 413.972656 341.472656 414.011719 341.472656 414.0625 341.472656 C 420.09375 341.039062 435.652344 340.070312 440.582031 340.269531 C 441.027344 341.234375 441.121094 342.046875 440.859375 342.675781 C 440.425781 343.707031 439.066406 344.324219 438.320312 344.570312 C 429.175781 343.367188 414.625 345.460938 414.011719 345.550781 C 412.9375 345.707031 412.191406 346.703125 412.351562 347.777344 C 412.492188 348.757812 413.332031 349.449219 414.285156 349.449219 C 414.378906 349.449219 414.484375 349.449219 414.574219 349.421875 C 414.71875 349.398438 427.683594 347.539062 436.359375 348.285156 C 435.574219 349.90625 432.523438 350.746094 426.949219 351.949219 C 420.933594 353.242188 414.117188 354.722656 409.878906 359.351562 C 403.140625 366.703125 405.914062 388.167969 408.371094 407.105469 C 409.117188 412.898438 409.839844 418.378906 410.113281 422.527344 C 410.742188 431.917969 408.855469 438.96875 404.828125 442.382812 C 401.753906 444.984375 397.332031 445.625 391.703125 444.277344 C 382.3125 442.042969 367.972656 421.585938 358.828125 406.660156 C 358.867188 406.464844 358.878906 406.269531 358.867188 406.074219 C 358.867188 406.007812 358.199219 399.441406 360.355469 392.183594 C 363.144531 382.789062 369.175781 376.617188 378.269531 373.804688 C 379.027344 375.359375 379.785156 376.957031 380.558594 378.605469 C 380.625 378.867188 380.753906 379.035156 380.910156 379.195312 Z M 256.320312 297 C 256.097656 293.964844 255.574219 290.5 255.011719 286.835938 C 252.617188 271.207031 249.632812 251.742188 265.621094 239.1875 C 278.300781 229.21875 296.289062 228.34375 308.902344 230.828125 C 324.71875 233.953125 341.191406 246.328125 340.574219 263.121094 C 340.484375 265.789062 339.632812 268.707031 337.90625 272.304688 L 337.253906 273.664062 C 333.183594 282.113281 329.335938 290.09375 330.699219 300.386719 C 331.902344 309.476562 334.765625 317.324219 339.242188 323.828125 C 330.605469 321.40625 323.03125 323.183594 316.699219 324.691406 C 314.292969 325.265625 312 325.800781 309.933594 326.035156 C 306.574219 326.429688 304.203125 325.773438 302.6875 324.035156 C 299.914062 320.871094 300.382812 314.511719 301 311.140625 C 313.78125 309.191406 322.335938 303.972656 326.433594 295.585938 C 335.015625 278.019531 320.648438 253.285156 320.035156 252.238281 C 319.683594 251.636719 319.054688 251.234375 318.308594 251.273438 C 317.601562 251.285156 316.960938 251.675781 316.621094 252.292969 C 311.007812 262.574219 286.085938 275.808594 280.339844 278.765625 C 278.246094 276.988281 273.890625 273.859375 270.242188 275 C 268.800781 275.457031 266.929688 276.75 266.199219 280.363281 C 264.417969 289.242188 271.117188 296.109375 273.316406 298.085938 C 274.296875 308.929688 273.5625 326.101562 267.441406 328.363281 C 265.320312 329.148438 261.683594 329.371094 257.484375 329.632812 C 253.3125 329.894531 248.523438 330.195312 243.71875 331.125 C 248.144531 324.625 257.222656 309.554688 256.320312 297 Z M 277.148438 296.945312 C 277.097656 296.425781 276.835938 295.941406 276.414062 295.613281 C 276.335938 295.546875 268.449219 289.203125 270.058594 281.171875 C 270.253906 280.21875 270.644531 279.027344 271.417969 278.777344 C 273.117188 278.257812 276.753906 280.726562 278.679688 282.574219 C 279.28125 283.148438 280.171875 283.277344 280.902344 282.914062 C 281.503906 282.613281 288.347656 279.210938 296.25 274.398438 C 295.949219 274.894531 295.714844 275.484375 295.621094 276.148438 C 295.332031 278.019531 296.144531 279.707031 297.402344 279.890625 C 298.671875 280.085938 299.925781 278.714844 300.214844 276.84375 C 300.5 274.972656 299.703125 273.285156 298.433594 273.101562 C 298.410156 273.101562 298.367188 273.101562 298.34375 273.101562 C 305.8125 268.40625 313.808594 262.613281 318.152344 257.078125 C 321.527344 263.84375 329.011719 281.410156 322.914062 293.898438 C 319.289062 301.316406 311.28125 305.894531 299.128906 307.476562 C 298.328125 307.582031 297.675781 308.15625 297.480469 308.941406 C 297.363281 309.425781 294.5625 320.726562 299.742188 326.652344 C 302.148438 329.398438 305.734375 330.523438 310.40625 329.972656 C 312.707031 329.710938 315.089844 329.136719 317.628906 328.546875 C 319.171875 328.183594 320.765625 327.800781 322.417969 327.488281 C 324.078125 331.648438 332.738281 354.734375 325.570312 368.742188 C 322.859375 374.027344 318.085938 377.453125 311.386719 378.933594 C 284.070312 384.933594 260.9375 343.589844 255.863281 333.742188 C 256.515625 333.703125 257.15625 333.664062 257.785156 333.625 C 262.296875 333.347656 266.199219 333.101562 268.851562 332.117188 C 279.949219 327.945312 277.460938 300.113281 277.148438 296.945312 Z M 251.570312 334.027344 C 253.074219 337.089844 259.199219 349.082031 268.578125 360.566406 C 280.863281 375.609375 293.660156 383.390625 305.957031 383.390625 C 308.050781 383.390625 310.117188 383.167969 312.171875 382.710938 C 320.074219 380.972656 325.738281 376.863281 329.011719 370.480469 C 336.625 355.609375 328.773438 333.035156 326.355469 326.835938 C 339.503906 325.371094 356.039062 330.089844 376.460938 370.3125 C 359.335938 375.949219 355.632812 391.476562 354.96875 400.277344 C 353.984375 398.578125 353.121094 397.035156 352.414062 395.738281 C 352.375 395.675781 352.324219 395.609375 352.285156 395.542969 C 353.921875 389.511719 353.59375 383.050781 351.226562 376.433594 C 348.59375 369.054688 344.421875 364.125 344.238281 363.917969 C 343.53125 363.09375 342.300781 363 341.476562 363.707031 C 340.652344 364.414062 340.5625 365.644531 341.257812 366.464844 C 341.882812 367.199219 356.472656 384.675781 345.078125 402.042969 C 333.902344 419.0625 337.515625 447.992188 343.664062 463.101562 C 350.441406 479.789062 370.953125 543.386719 372.222656 552.699219 C 371.386719 554.347656 369.6875 558.414062 371.375 561.316406 C 371.949219 562.296875 373.113281 563.4375 375.375 563.761719 C 376.75 567.152344 380.464844 578.074219 373.703125 582.375 C 372.996094 582.558594 371.792969 583.054688 370.914062 584.3125 C 370.128906 585.4375 369.828125 586.863281 369.972656 588.5625 L 351.917969 588.5625 L 319.65625 509.011719 C 326.851562 499.070312 332.464844 490.910156 334.558594 486.945312 C 341.113281 474.53125 341.675781 473.015625 336.898438 468.359375 C 336.636719 468.109375 336.363281 467.835938 336.0625 467.535156 C 334.425781 465.898438 334.191406 464.867188 333.929688 463.664062 C 333.457031 461.558594 332.816406 459.792969 329.273438 457.894531 C 327.335938 456.863281 327.046875 455.972656 326.667969 454.753906 C 326.183594 453.210938 325.582031 451.8125 323.804688 450.714844 C 327.910156 445.875 335.785156 435.28125 331.363281 429.773438 C 330.699219 428.9375 329.714844 428.476562 328.578125 428.476562 C 328.578125 428.476562 328.566406 428.476562 328.566406 428.476562 C 321.828125 428.476562 304.21875 448.59375 295.777344 458.707031 C 295.359375 455.933594 294.785156 452.191406 294.207031 448.542969 C 293.320312 442.933594 290.988281 440.539062 289.199219 439.519531 C 287.339844 438.457031 285.128906 438.355469 282.984375 439.21875 C 279.75 440.511719 279.972656 444.082031 280.183594 447.535156 C 280.25 448.609375 280.3125 449.71875 280.3125 450.871094 C 277.054688 450.335938 273.378906 450.125 269.507812 449.890625 C 263.699219 449.550781 257.679688 449.183594 253.0625 447.71875 C 252.722656 447.613281 252.238281 447.378906 251.820312 446.527344 C 249.777344 442.316406 252.761719 430.492188 255.351562 423.207031 C 266.132812 422.382812 273.078125 418.433594 276.035156 411.488281 C 282.800781 395.570312 265.4375 369.449219 261.410156 364.386719 C 260.78125 357.691406 258.074219 352.980469 253.285156 350.457031 C 244.542969 345.839844 231.316406 349.816406 222.003906 354.902344 C 226.136719 338.410156 239.558594 335.140625 251.570312 334.027344 Z M 305.617188 588.5625 L 290.664062 547.742188 C 299.480469 536.257812 308.980469 523.6875 316.960938 512.753906 L 347.707031 588.5625 Z M 253.792969 588.5625 C 257.980469 586.875 262.167969 583.777344 266.289062 578.753906 C 270.671875 573.417969 278.640625 563.320312 287.628906 551.664062 L 278.664062 588.550781 L 253.792969 588.550781 Z M 219.894531 515.511719 L 244.414062 540.21875 C 244.820312 540.636719 245.382812 540.847656 245.972656 540.796875 C 246.546875 540.742188 247.082031 540.441406 247.410156 539.957031 L 287.574219 482.328125 C 288.175781 481.453125 287.980469 480.261719 287.128906 479.621094 C 281.019531 475.121094 280.210938 465.351562 282.957031 458.496094 C 284.566406 454.46875 284.332031 450.492188 284.132812 447.300781 C 284.015625 445.429688 283.871094 443.101562 284.476562 442.867188 C 285.519531 442.449219 286.464844 442.472656 287.289062 442.929688 C 288.765625 443.769531 289.863281 445.980469 290.363281 449.15625 C 291.472656 456.207031 292.585938 463.636719 292.585938 463.648438 C 292.703125 464.421875 293.253906 465.050781 294.011719 465.246094 C 294.757812 465.441406 295.554688 465.195312 296.054688 464.59375 C 308.785156 448.949219 324.667969 432.492188 328.460938 432.402344 C 330.421875 435.488281 324.117188 444.722656 319.132812 450.125 C 318.675781 450.621094 318.503906 451.328125 318.6875 451.984375 C 318.871094 452.636719 319.367188 453.148438 320.023438 453.34375 C 322.351562 454.023438 322.546875 454.636719 322.964844 455.960938 C 323.003906 456.089844 323.058594 456.222656 323.097656 456.351562 C 322.296875 456.914062 313.976562 462.917969 309.582031 468.765625 C 308.925781 469.628906 309.109375 470.855469 309.972656 471.511719 C 310.328125 471.773438 310.746094 471.902344 311.152344 471.902344 C 311.753906 471.902344 312.34375 471.628906 312.722656 471.117188 C 316.4375 466.160156 323.644531 460.796875 325.136719 459.714844 C 325.726562 460.277344 326.457031 460.839844 327.453125 461.375 C 329.691406 462.566406 329.820312 463.179688 330.121094 464.527344 C 330.1875 464.8125 330.253906 465.113281 330.34375 465.441406 C 329.023438 466.097656 325.410156 468.226562 321.617188 473.277344 C 320.964844 474.140625 321.148438 475.371094 322.011719 476.023438 C 322.363281 476.285156 322.78125 476.417969 323.1875 476.417969 C 323.789062 476.417969 324.378906 476.140625 324.757812 475.632812 C 328.148438 471.105469 331.285156 469.351562 332.109375 468.949219 C 332.449219 469.390625 332.832031 469.835938 333.3125 470.320312 C 333.617188 470.636719 333.917969 470.910156 334.179688 471.171875 C 337.003906 473.929688 337.003906 473.929688 331.101562 485.113281 C 324.089844 498.402344 276.753906 559.839844 263.253906 576.253906 C 250.617188 591.609375 237.9375 587.371094 222.789062 576.292969 C 215.773438 571.167969 202.742188 558.363281 190.078125 543.214844 C 190.09375 543.136719 190.105469 543.058594 190.105469 542.964844 C 190.105469 542.824219 190.578125 528.109375 199.828125 520.207031 C 204.746094 515.996094 211.378906 514.414062 219.503906 515.5 C 219.648438 515.523438 219.777344 515.523438 219.894531 515.511719 Z M 290.179688 557.824219 L 301.429688 588.5625 L 282.707031 588.5625 Z M 258.960938 465.820312 C 257.289062 469.210938 253.613281 471.484375 248.039062 472.582031 C 232.246094 475.671875 217.160156 459.070312 212.058594 452.714844 C 212.242188 452.6875 212.4375 452.675781 212.609375 452.648438 C 227.484375 450.582031 228.398438 420.433594 228.4375 419.152344 C 228.464844 418.328125 227.957031 417.570312 227.183594 417.28125 C 227.066406 417.230469 215.328125 412.441406 216.507812 405.691406 C 216.875 403.5625 217.894531 402.867188 220.523438 402.867188 C 221.402344 402.867188 222.460938 402.945312 223.730469 403.078125 C 226.855469 403.390625 230.085938 403.730469 231.800781 401.285156 C 232.3125 400.554688 232.273438 399.585938 231.695312 398.90625 C 228.660156 395.28125 221.085938 384.59375 222.433594 378.65625 C 223.113281 375.648438 224.683594 375.359375 229.539062 374.890625 C 233.4375 374.511719 238.277344 374.039062 243.773438 371.019531 C 246.875 369.316406 249.136719 367.851562 250.96875 366.675781 C 255.640625 363.667969 255.640625 363.667969 258.085938 366.480469 C 262.574219 371.660156 278.140625 396.628906 272.476562 409.957031 C 270.042969 415.6875 263.789062 418.863281 253.886719 419.386719 C 253.113281 419.425781 252.433594 419.925781 252.160156 420.65625 C 251.386719 422.695312 244.742188 440.839844 248.339844 448.253906 C 249.125 449.863281 250.355469 450.976562 251.921875 451.472656 C 253.886719 452.101562 256.03125 452.53125 258.269531 452.859375 C 258.726562 453.890625 261.566406 460.539062 258.960938 465.820312 Z M 181.105469 394.707031 C 177.976562 391.578125 176.996094 386.648438 178.1875 380.042969 C 179.101562 374.957031 181.378906 371.382812 184.964844 369.4375 C 191.714844 365.761719 201.5 368.414062 205.414062 369.722656 C 200.675781 376.707031 197.261719 386.179688 197.980469 398.800781 C 194.34375 399.167969 185.828125 399.414062 181.105469 394.707031 Z M 202.011719 400.34375 C 199.890625 376.132812 214.007812 364.097656 222.617188 359.078125 C 231.75 353.753906 244.21875 350.089844 251.480469 353.921875 C 254.003906 355.257812 255.742188 357.507812 256.726562 360.59375 C 254.292969 359.847656 252.09375 361.261719 248.824219 363.355469 C 247.058594 364.492188 244.84375 365.917969 241.875 367.550781 C 237.085938 370.179688 232.679688 370.613281 229.144531 370.953125 C 224.410156 371.410156 219.933594 371.855469 218.585938 377.769531 C 216.953125 384.933594 223.730469 394.980469 227.039062 399.347656 C 226.109375 399.375 224.945312 399.246094 224.097656 399.152344 C 220.25 398.761719 213.8125 398.105469 212.609375 405 C 211.15625 413.359375 220.824219 418.679688 224.4375 420.355469 C 224.34375 422.054688 224.160156 424.136719 223.859375 426.398438 C 219.203125 424.554688 203.488281 417.097656 202.011719 400.34375 Z M 212.570312 424.738281 C 217.175781 428.019531 221.503906 429.761719 223.246094 430.386719 C 221.664062 438.773438 218.367188 447.902344 212.058594 448.777344 C 210.816406 448.949219 209.402344 449.09375 207.847656 449.234375 Z M 203.671875 453.488281 C 205.007812 453.382812 206.261719 453.289062 207.453125 453.1875 C 208.800781 455.003906 213.15625 460.640625 219.4375 466.003906 C 227.835938 473.171875 236.289062 476.875 244.152344 476.875 C 245.734375 476.875 247.277344 476.730469 248.808594 476.429688 C 255.664062 475.082031 260.269531 472.085938 262.507812 467.535156 C 265.058594 462.328125 263.777344 456.535156 262.691406 453.355469 C 264.890625 453.550781 267.125 453.683594 269.324219 453.8125 C 273.210938 454.050781 276.886719 454.257812 280.011719 454.796875 C 279.855469 455.554688 279.632812 456.300781 279.347656 457.042969 C 276.3125 464.632812 276.835938 475.410156 283.363281 481.554688 L 245.566406 535.785156 L 201.476562 491.351562 C 200.714844 490.582031 199.472656 490.582031 198.703125 491.339844 C 197.929688 492.097656 197.929688 493.339844 198.6875 494.113281 L 215.722656 511.285156 C 208.355469 511.089844 202.15625 513.066406 197.273438 517.25 C 189.792969 523.660156 187.359375 533.496094 186.585938 538.9375 C 171.488281 520.21875 157.777344 498.820312 156.652344 484.027344 C 154.609375 457.226562 184.125 454.976562 203.671875 453.488281 Z M 164.738281 515.027344 C 181.089844 542.246094 209.496094 571.441406 220.472656 579.472656 C 225.601562 583.226562 231.042969 586.652344 236.65625 588.574219 L 150.304688 588.574219 Z M 617.023438 581.171875 C 617.21875 581.394531 620.726562 585.265625 625.019531 588.5625 L 508.683594 588.5625 C 510.933594 584.351562 516.648438 571.859375 515.277344 556.335938 C 518.390625 561.773438 524.25 565.464844 530.960938 565.464844 L 533.1875 565.464844 C 539.898438 571.480469 557.835938 574.410156 573.089844 574.632812 C 590.085938 574.882812 598.589844 575.929688 611.042969 579.277344 C 612.652344 579.707031 614.589844 580.203125 616.773438 580.726562 C 616.839844 580.886719 616.90625 581.042969 617.023438 581.171875 Z M 672.339844 570.90625 C 670.964844 574.789062 668.363281 577.535156 664.621094 579.039062 C 649.992188 584.941406 620.6875 577.8125 612.066406 575.496094 C 599.242188 572.042969 590.515625 570.96875 573.15625 570.722656 C 559.746094 570.527344 547.265625 568.339844 540.171875 565.1875 C 542.699219 565.503906 545.417969 565.738281 547.890625 565.738281 C 549.972656 565.738281 551.882812 565.570312 553.335938 565.148438 C 554.367188 564.847656 554.96875 563.75 554.667969 562.71875 C 554.367188 561.671875 553.28125 561.082031 552.234375 561.382812 C 547.75 562.691406 536.011719 560.730469 531.867188 559.851562 C 531.867188 559.851562 531.851562 559.851562 531.851562 559.851562 C 530.046875 558.519531 528.085938 556.738281 527.195312 554.910156 C 532.453125 556.046875 543.640625 558.296875 550.546875 558.296875 C 550.824219 558.296875 551.097656 558.296875 551.359375 558.28125 C 552.445312 558.257812 553.296875 557.355469 553.269531 556.269531 C 553.242188 555.183594 552.355469 554.308594 551.253906 554.359375 C 543.808594 554.554688 529.027344 551.3125 525.847656 550.59375 C 524.644531 549.140625 523.660156 547.375 523.765625 546.863281 C 523.765625 546.863281 523.820312 546.8125 523.976562 546.757812 C 525.351562 546.238281 527.914062 547.113281 531.160156 548.210938 C 534.757812 549.429688 539.246094 550.957031 544.894531 551.585938 C 553.609375 552.554688 561.683594 551.390625 564.980469 548.683594 C 566.234375 547.648438 566.589844 546.5625 566.652344 545.84375 C 566.835938 543.789062 564.796875 541.882812 561.96875 539.238281 C 560.515625 537.890625 557.902344 535.433594 557.507812 534.320312 C 560.269531 532.855469 572.476562 538.363281 577.605469 544.234375 C 583.046875 550.460938 619.351562 547.453125 630.355469 546.378906 C 631.429688 546.277344 632.226562 545.320312 632.121094 544.234375 C 632.015625 543.148438 631.050781 542.363281 629.976562 542.46875 C 624.847656 542.964844 620.019531 543.347656 615.546875 543.605469 C 615.9375 542.351562 616.410156 541.214844 616.761719 540.441406 L 619.507812 540.441406 C 620.59375 540.441406 621.472656 539.566406 621.472656 538.480469 C 621.472656 534.292969 618.644531 530.761719 614.800781 529.675781 C 619.167969 526.578125 622.101562 521.59375 622.414062 515.917969 C 624.796875 514.097656 633.785156 507.953125 643.347656 510.265625 C 643.386719 510.28125 643.4375 510.28125 643.476562 510.28125 C 656.46875 527.859375 668.140625 545.832031 670.363281 549.832031 C 672.667969 554.03125 674.917969 563.621094 672.339844 570.90625 Z M 692.460938 518.636719 C 690.472656 526.25 685.945312 532.292969 680.046875 535.222656 C 675.6875 537.394531 670.992188 537.628906 666.84375 535.917969 C 666.597656 535.8125 666.335938 535.757812 666.074219 535.773438 C 655.421875 519.65625 636.441406 492.675781 622.347656 478.585938 C 617.089844 473.328125 611.449219 469.730469 605.8125 467.234375 C 605.796875 467.222656 605.796875 467.195312 605.785156 467.183594 C 601.074219 461.921875 596.980469 439.425781 595.621094 430.101562 C 597.714844 427.929688 599.191406 425.730469 600.199219 423.847656 C 606.753906 411.695312 604.449219 395.007812 594.46875 382.320312 C 594.207031 381.980469 593.933594 381.652344 593.65625 381.324219 C 596.273438 379.21875 606.570312 372.183594 619.300781 379.886719 C 625.34375 383.535156 627.007812 393.1875 628.929688 404.371094 C 631.558594 419.703125 634.84375 438.785156 652.125 447.980469 C 661.9375 453.210938 670.363281 456.457031 677.128906 459.058594 C 690.066406 464.054688 696.558594 466.554688 697.210938 476.128906 C 698.191406 490.609375 686.15625 494.035156 685.644531 494.179688 C 684.886719 494.375 684.324219 495.015625 684.207031 495.789062 C 684.089844 496.558594 684.453125 497.332031 685.121094 497.75 C 685.605469 498.023438 696.125 504.683594 692.460938 518.636719 Z M 692.460938 518.636719 " fill-opacity="1" fill-rule="nonzero"/></g><path fill="#000000" d="M 247.5 391.109375 C 246.625 389.394531 244.976562 388.480469 243.8125 389.082031 C 242.648438 389.671875 242.425781 391.539062 243.300781 393.253906 C 244.179688 394.96875 245.828125 395.882812 246.992188 395.28125 C 248.15625 394.679688 248.378906 392.824219 247.5 391.109375 Z M 247.5 391.109375 " fill-opacity="1" fill-rule="nonzero"/><path fill="#000000" d="M 259.34375 380.972656 C 258.175781 381.5625 257.953125 383.429688 258.832031 385.144531 C 259.707031 386.859375 261.355469 387.773438 262.519531 387.171875 C 263.683594 386.582031 263.90625 384.714844 263.03125 383 C 262.140625 381.285156 260.492188 380.382812 259.34375 380.972656 Z M 259.34375 380.972656 " fill-opacity="1" fill-rule="nonzero"/><path fill="#000000" d="M 254.894531 396.367188 C 255.523438 396.5 256.1875 396.5625 256.882812 396.523438 C 257.574219 396.445312 258.308594 396.300781 259.039062 395.910156 C 259.746094 395.53125 260.480469 394.914062 260.871094 394.089844 C 261.265625 393.242188 261.34375 392.417969 260.992188 391.476562 C 260.925781 391.292969 260.730469 391.1875 260.53125 391.238281 L 258.621094 391.761719 C 258.476562 391.800781 258.359375 392.023438 258.269531 392.117188 C 258.164062 392.234375 258.074219 392.339844 257.980469 392.417969 C 257.8125 392.574219 257.652344 392.746094 257.378906 392.902344 C 257.128906 393.085938 256.738281 393.214844 256.332031 393.359375 C 255.902344 393.488281 255.429688 393.605469 254.933594 393.765625 L 254.800781 393.804688 C 254.355469 393.933594 253.992188 394.300781 253.886719 394.796875 C 253.714844 395.503906 254.175781 396.210938 254.894531 396.367188 Z M 254.894531 396.367188 " fill-opacity="1" fill-rule="nonzero"/><path fill="#000000" d="M 258.738281 406.085938 C 258.230469 406.242188 257.667969 406.230469 257.117188 406.335938 C 256.554688 406.398438 255.992188 406.359375 255.402344 406.425781 L 255.207031 406.453125 C 254.75 406.503906 254.34375 406.832031 254.226562 407.300781 C 254.070312 407.917969 254.4375 408.542969 255.050781 408.703125 C 255.703125 408.871094 256.371094 409.027344 257.050781 409.132812 C 257.746094 409.171875 258.4375 409.289062 259.144531 409.1875 C 260.570312 409.144531 261.996094 408.6875 263.304688 408.035156 C 264.613281 407.367188 265.753906 406.398438 266.640625 405.261719 C 267.546875 404.109375 268.148438 402.90625 268.527344 401.402344 C 268.65625 400.867188 268.433594 400.277344 267.9375 399.964844 C 267.324219 399.585938 266.511719 399.769531 266.132812 400.394531 L 266.015625 400.578125 C 265.503906 401.402344 264.796875 402.359375 264.089844 403.101562 C 263.371094 403.875 262.558594 404.527344 261.671875 405.027344 C 260.769531 405.484375 259.8125 405.902344 258.738281 406.085938 Z M 258.738281 406.085938 " fill-opacity="1" fill-rule="nonzero"/><path fill="#000000" d="M 254.4375 380.722656 L 254.566406 380.59375 C 255.117188 380.015625 255.496094 379.480469 255.941406 379.035156 C 256.347656 378.566406 256.789062 378.210938 257.25 377.847656 C 257.71875 377.492188 258.257812 377.191406 258.882812 376.917969 C 259.484375 376.65625 260.21875 376.433594 260.886719 376.199219 L 261.070312 376.132812 C 261.277344 376.054688 261.449219 375.910156 261.554688 375.6875 C 261.734375 375.269531 261.554688 374.773438 261.132812 374.589844 C 260.191406 374.15625 259.277344 374.039062 258.296875 374.09375 C 257.328125 374.144531 256.320312 374.445312 255.429688 374.96875 C 254.527344 375.480469 253.753906 376.238281 253.246094 377.113281 C 252.722656 377.988281 252.472656 378.957031 252.472656 379.914062 C 252.472656 380.214844 252.589844 380.515625 252.8125 380.738281 C 253.269531 381.179688 253.992188 381.179688 254.4375 380.722656 Z M 254.4375 380.722656 " fill-opacity="1" fill-rule="nonzero"/><path fill="#000000" d="M 244.792969 384.414062 C 245.003906 384.332031 245.171875 384.191406 245.277344 383.96875 C 245.460938 383.550781 245.277344 383.050781 244.859375 382.867188 C 243.917969 382.4375 243 382.320312 242.019531 382.371094 C 241.050781 382.425781 240.042969 382.726562 239.15625 383.25 C 238.25 383.757812 237.480469 384.515625 236.96875 385.394531 C 236.445312 386.269531 236.199219 387.238281 236.199219 388.191406 C 236.199219 388.492188 236.316406 388.792969 236.550781 389.015625 C 237.007812 389.460938 237.726562 389.449219 238.160156 388.992188 L 238.289062 388.859375 C 238.839844 388.285156 239.21875 387.746094 239.664062 387.304688 C 240.070312 386.832031 240.515625 386.480469 240.972656 386.113281 C 241.445312 385.757812 241.980469 385.457031 242.609375 385.183594 C 243.210938 384.921875 243.941406 384.699219 244.609375 384.464844 Z M 244.792969 384.414062 " fill-opacity="1" fill-rule="nonzero"/><path fill="#000000" d="M 542.070312 401.953125 C 543 400.132812 542.761719 398.144531 541.519531 397.519531 C 540.289062 396.890625 538.539062 397.859375 537.59375 399.675781 C 536.652344 401.496094 536.902344 403.484375 538.144531 404.109375 C 539.386719 404.738281 541.140625 403.769531 542.070312 401.953125 Z M 542.070312 401.953125 " fill-opacity="1" fill-rule="nonzero"/><path fill="#000000" d="M 540.488281 392.5625 L 540.683594 392.625 C 541.402344 392.875 542.175781 393.109375 542.816406 393.386719 C 543.46875 393.671875 544.046875 393.988281 544.542969 394.367188 C 545.039062 394.757812 545.511719 395.125 545.929688 395.636719 C 546.402344 396.09375 546.804688 396.679688 547.394531 397.28125 L 547.527344 397.425781 C 547.75 397.648438 548.050781 397.792969 548.390625 397.792969 C 549.058594 397.792969 549.605469 397.257812 549.605469 396.578125 C 549.605469 395.570312 549.34375 394.535156 548.78125 393.605469 C 548.246094 392.679688 547.421875 391.867188 546.464844 391.320312 C 545.523438 390.757812 544.453125 390.441406 543.417969 390.390625 C 542.371094 390.335938 541.402344 390.46875 540.394531 390.914062 C 540.1875 391.003906 540.003906 391.1875 539.925781 391.421875 C 539.78125 391.894531 540.027344 392.390625 540.488281 392.5625 Z M 540.488281 392.5625 " fill-opacity="1" fill-rule="nonzero"/><path fill="#000000" d="M 315.507812 275.523438 C 314.238281 275.324219 312.984375 276.699219 312.695312 278.570312 C 312.40625 280.441406 313.207031 282.128906 314.472656 282.3125 C 315.742188 282.507812 317 281.132812 317.289062 279.261719 C 317.574219 277.394531 316.777344 275.71875 315.507812 275.523438 Z M 315.507812 275.523438 " fill-opacity="1" fill-rule="nonzero"/><path fill="#000000" d="M 304.597656 286.5625 C 305.199219 286.902344 305.867188 287.203125 306.675781 287.308594 C 307.460938 287.410156 308.402344 287.332031 309.1875 286.902344 C 309.988281 286.445312 310.523438 285.84375 310.785156 284.886719 C 310.835938 284.703125 310.734375 284.507812 310.550781 284.441406 L 308.71875 283.761719 C 308.574219 283.710938 308.363281 283.816406 308.234375 283.839844 C 308.078125 283.867188 307.945312 283.90625 307.828125 283.90625 C 307.59375 283.933594 307.382812 283.984375 307.070312 283.945312 C 306.769531 283.945312 306.375 283.828125 305.96875 283.710938 C 305.550781 283.578125 305.105469 283.394531 304.609375 283.226562 L 304.492188 283.1875 C 304.058594 283.03125 303.550781 283.121094 303.183594 283.449219 C 302.648438 283.933594 302.609375 284.757812 303.09375 285.292969 C 303.523438 285.765625 304.019531 286.195312 304.597656 286.5625 Z M 304.597656 286.5625 " fill-opacity="1" fill-rule="nonzero"/><path fill="#000000" d="M 297.492188 296.726562 C 298.027344 297.144531 298.511719 297.640625 299.140625 297.96875 C 300.304688 298.753906 301.71875 299.210938 303.132812 299.433594 C 304.558594 299.65625 306.035156 299.523438 307.382812 299.132812 C 308.769531 298.726562 309.949219 298.109375 311.113281 297.128906 C 311.53125 296.777344 311.6875 296.175781 311.464844 295.640625 C 311.191406 294.984375 310.433594 294.671875 309.777344 294.945312 L 309.582031 295.023438 C 308.703125 295.390625 307.59375 295.757812 306.597656 295.953125 C 305.578125 296.148438 304.558594 296.214844 303.550781 296.097656 C 302.554688 295.964844 301.546875 295.742188 300.59375 295.285156 C 300.097656 295.117188 299.652344 294.789062 299.152344 294.554688 C 298.671875 294.277344 298.238281 293.925781 297.726562 293.636719 L 297.558594 293.546875 C 297.164062 293.324219 296.65625 293.351562 296.277344 293.664062 C 295.792969 294.054688 295.726562 294.777344 296.132812 295.261719 C 296.5625 295.742188 297.007812 296.253906 297.492188 296.726562 Z M 297.492188 296.726562 " fill-opacity="1" fill-rule="nonzero"/><path fill="#000000" d="M 311.726562 272.515625 L 311.898438 272.488281 C 312.667969 272.34375 313.285156 272.121094 313.886719 272.03125 C 314.472656 271.871094 315.039062 271.847656 315.613281 271.820312 C 316.1875 271.808594 316.804688 271.886719 317.445312 272.015625 C 318.085938 272.148438 318.792969 272.394531 319.460938 272.59375 L 319.640625 272.644531 C 319.851562 272.710938 320.074219 272.683594 320.285156 272.566406 C 320.675781 272.34375 320.808594 271.832031 320.585938 271.453125 C 320.074219 270.578125 319.421875 269.949219 318.597656 269.425781 C 317.785156 268.902344 316.816406 268.578125 315.796875 268.484375 C 314.789062 268.378906 313.714844 268.539062 312.8125 268.957031 C 311.882812 269.347656 311.136719 269.988281 310.589844 270.75 C 310.417969 270.984375 310.339844 271.296875 310.394531 271.597656 C 310.523438 272.214844 311.113281 272.617188 311.726562 272.515625 Z M 311.726562 272.515625 " fill-opacity="1" fill-rule="nonzero"/><path fill="#000000" d="M 390.554688 278.921875 C 391.140625 279.800781 393.695312 284.300781 394.214844 285.867188 C 394.191406 285.921875 394.203125 285.984375 394.191406 286.050781 C 393.25 287.136719 392.476562 288.640625 392.621094 290.261719 C 392.699219 291.125 393.039062 291.925781 393.613281 292.566406 C 393.222656 293.675781 393.105469 295 393.628906 296.164062 C 394.125 297.261719 395.132812 297.992188 396.441406 298.230469 C 397.644531 298.4375 398.914062 298.59375 400.195312 298.714844 C 400.195312 298.726562 400.183594 298.738281 400.183594 298.753906 C 400.183594 301.667969 402.550781 304.035156 405.46875 304.035156 L 407.707031 304.035156 C 410.625 304.035156 412.992188 301.667969 412.992188 298.753906 L 412.992188 298.503906 C 412.992188 298.453125 412.964844 298.398438 412.964844 298.347656 C 413.304688 298.292969 413.644531 298.242188 413.984375 298.191406 C 414.207031 298.152344 419.53125 297.128906 420.421875 294.070312 C 420.632812 293.335938 420.671875 292.289062 419.832031 291.152344 C 420.132812 290.144531 420.421875 288.535156 419.859375 287.109375 C 419.636719 286.546875 419.296875 286.078125 418.878906 285.671875 C 419.0625 282.101562 421.050781 279.078125 423.183594 275.902344 C 425.289062 272.734375 427.472656 269.464844 427.996094 265.425781 C 428.46875 261.734375 428.15625 257.773438 427.082031 253.953125 C 424.570312 245.046875 418.09375 238.859375 410.152344 237.800781 C 403.023438 236.859375 395.589844 239.070312 390.304688 243.710938 C 385.398438 248.027344 382.703125 253.992188 382.714844 260.519531 C 382.742188 267.085938 386.601562 273.207031 390.554688 278.921875 Z M 403.152344 266.757812 C 404.160156 266.417969 405.207031 265.933594 406.28125 265.269531 C 407.351562 265.921875 408.398438 266.417969 409.40625 266.757812 C 408.097656 272.433594 408.910156 282.230469 409.144531 284.703125 C 407.261719 284.71875 405.273438 284.742188 403.402344 284.757812 C 403.636719 282.363281 404.472656 272.460938 403.152344 266.757812 Z M 416.484375 287.777344 C 416.785156 287.921875 416.890625 288.09375 416.957031 288.25 C 417.203125 288.875 416.96875 289.898438 416.757812 290.523438 L 396.023438 290.523438 C 395.824219 290.328125 395.773438 290.132812 395.761719 289.976562 C 395.707031 289.398438 396.113281 288.601562 396.714844 287.960938 C 400.378906 287.921875 413.121094 287.804688 416.484375 287.777344 Z M 409.878906 298.753906 C 409.878906 299.941406 408.910156 300.898438 407.730469 300.898438 L 405.496094 300.898438 C 404.355469 300.898438 403.441406 300.007812 403.363281 298.894531 C 403.964844 298.910156 404.566406 298.933594 405.179688 298.933594 C 406.761719 298.933594 408.347656 298.871094 409.878906 298.726562 Z M 413.421875 295.101562 C 408.503906 296.019531 402.054688 296.019531 396.992188 295.128906 C 396.570312 295.050781 396.507812 294.90625 396.480469 294.855469 C 396.375 294.617188 396.402344 294.160156 396.558594 293.664062 L 416.996094 293.664062 C 416.339844 294.175781 414.941406 294.828125 413.421875 295.101562 Z M 392.386719 246.078125 C 396.296875 242.640625 401.554688 240.730469 406.882812 240.730469 C 407.835938 240.730469 408.804688 240.796875 409.757812 240.914062 C 416.523438 241.816406 421.875 247.007812 424.074219 254.804688 C 425.027344 258.21875 425.316406 261.75 424.898438 265.019531 C 424.476562 268.328125 422.582031 271.152344 420.59375 274.148438 C 418.472656 277.328125 416.273438 280.609375 415.816406 284.640625 C 414.941406 284.652344 413.710938 284.664062 412.3125 284.679688 C 411.800781 279.617188 411.5 271.429688 412.46875 267.375 C 415.75 267.609375 418.367188 266.328125 419.730469 264.902344 C 421.324219 263.214844 421.574219 261.121094 420.34375 259.578125 C 419.140625 258.046875 417.859375 257.785156 416.996094 257.839844 C 414.679688 257.96875 412.742188 260.324219 410.558594 263.828125 C 409.496094 263.488281 408.359375 262.941406 407.183594 262.117188 C 407.023438 262.011719 406.855469 261.945312 406.671875 261.894531 C 406.644531 261.878906 406.621094 261.867188 406.59375 261.867188 C 406.488281 261.855469 406.398438 261.867188 406.292969 261.867188 C 406.1875 261.867188 406.082031 261.855469 405.980469 261.867188 C 405.953125 261.867188 405.9375 261.878906 405.914062 261.894531 C 405.730469 261.933594 405.558594 262.011719 405.402344 262.117188 C 404.226562 262.941406 403.085938 263.488281 402.027344 263.828125 C 399.84375 260.324219 397.90625 257.96875 395.589844 257.839844 C 394.714844 257.785156 393.445312 258.046875 392.242188 259.578125 C 391.023438 261.132812 391.261719 263.214844 392.855469 264.902344 C 394.214844 266.339844 396.832031 267.609375 400.117188 267.375 C 401.085938 271.453125 400.785156 279.734375 400.273438 284.78125 C 399.03125 284.796875 397.933594 284.808594 397.148438 284.808594 C 396.21875 281.75 393.210938 277.183594 393.171875 277.132812 C 389.492188 271.820312 385.910156 266.171875 385.882812 260.507812 C 385.855469 254.910156 388.160156 249.78125 392.386719 246.078125 Z M 414.039062 264.207031 C 415.882812 261.460938 416.785156 260.976562 417.164062 260.964844 C 417.164062 260.964844 417.179688 260.964844 417.179688 260.964844 C 417.425781 260.964844 417.765625 261.382812 417.871094 261.515625 C 418.199219 261.917969 417.519531 262.664062 417.441406 262.742188 C 416.785156 263.4375 415.59375 264.050781 414.039062 264.207031 Z M 398.535156 264.207031 C 396.976562 264.050781 395.785156 263.4375 395.121094 262.742188 C 395.042969 262.664062 394.359375 261.917969 394.6875 261.515625 C 394.792969 261.382812 395.132812 260.964844 395.382812 260.964844 C 395.382812 260.964844 395.394531 260.964844 395.394531 260.964844 C 395.785156 260.992188 396.691406 261.472656 398.535156 264.207031 Z M 398.535156 264.207031 " fill-opacity="1" fill-rule="nonzero"/><path fill="#000000" d="M 370.707031 267.542969 C 369.855469 267.398438 369.042969 267.976562 368.902344 268.839844 C 368.757812 269.6875 369.332031 270.5 370.195312 270.644531 L 377.523438 271.859375 C 377.613281 271.871094 377.691406 271.886719 377.785156 271.886719 C 378.542969 271.886719 379.195312 271.335938 379.328125 270.578125 C 379.472656 269.726562 378.894531 268.917969 378.03125 268.773438 Z M 370.707031 267.542969 " fill-opacity="1" fill-rule="nonzero"/><path fill="#000000" d="M 383.460938 236.542969 C 383.75 236.753906 384.078125 236.859375 384.40625 236.859375 C 384.875 236.859375 385.347656 236.648438 385.660156 236.230469 C 386.183594 235.539062 386.054688 234.554688 385.359375 234.03125 L 379.433594 229.546875 C 378.738281 229.023438 377.757812 229.152344 377.234375 229.847656 C 376.710938 230.539062 376.84375 231.523438 377.535156 232.042969 Z M 383.460938 236.542969 " fill-opacity="1" fill-rule="nonzero"/><path fill="#000000" d="M 434.148438 267.949219 C 433.296875 268.09375 432.707031 268.902344 432.851562 269.753906 C 432.980469 270.527344 433.648438 271.0625 434.394531 271.0625 C 434.488281 271.0625 434.566406 271.050781 434.65625 271.035156 L 441.984375 269.820312 C 442.832031 269.675781 443.421875 268.863281 443.277344 268.015625 C 443.136719 267.164062 442.335938 266.589844 441.472656 266.71875 Z M 434.148438 267.949219 " fill-opacity="1" fill-rule="nonzero"/><path fill="#000000" d="M 365.65625 248.226562 L 375.429688 251.886719 C 375.613281 251.953125 375.796875 251.992188 375.980469 251.992188 C 376.621094 251.992188 377.207031 251.597656 377.445312 250.972656 C 377.746094 250.160156 377.339844 249.257812 376.527344 248.957031 L 366.753906 245.292969 C 365.945312 244.992188 365.042969 245.398438 364.742188 246.210938 C 364.4375 247.007812 364.84375 247.910156 365.65625 248.226562 Z M 365.65625 248.226562 " fill-opacity="1" fill-rule="nonzero"/><path fill="#000000" d="M 426.46875 236.375 C 426.792969 236.375 427.132812 236.269531 427.410156 236.058594 L 433.335938 231.574219 C 434.027344 231.050781 434.160156 230.070312 433.636719 229.375 C 433.113281 228.683594 432.132812 228.550781 431.4375 229.074219 L 425.511719 233.5625 C 424.820312 234.085938 424.6875 235.066406 425.210938 235.757812 C 425.523438 236.152344 425.996094 236.375 426.46875 236.375 Z M 426.46875 236.375 " fill-opacity="1" fill-rule="nonzero"/><path fill="#000000" d="M 433.414062 250.472656 C 433.648438 251.101562 434.25 251.496094 434.878906 251.496094 C 435.0625 251.496094 435.246094 251.46875 435.429688 251.390625 L 445.203125 247.726562 C 446.011719 247.425781 446.417969 246.523438 446.117188 245.714844 C 445.816406 244.902344 444.914062 244.496094 444.089844 244.796875 L 434.316406 248.460938 C 433.519531 248.761719 433.113281 249.664062 433.414062 250.472656 Z M 433.414062 250.472656 " fill-opacity="1" fill-rule="nonzero"/><g clip-path="url(#d9f5031ae4)"><path fill="#000000" d="M 407.039062 232.042969 C 407.902344 232.042969 408.609375 231.339844 408.609375 230.476562 L 408.609375 219.070312 C 408.609375 218.207031 407.902344 217.5 407.039062 217.5 C 406.175781 217.5 405.46875 218.207031 405.46875 219.070312 L 405.46875 230.476562 C 405.46875 231.339844 406.175781 232.042969 407.039062 232.042969 Z M 407.039062 232.042969 " fill-opacity="1" fill-rule="nonzero"/></g></svg>