<svg width="185" height="185" viewBox="0 0 185 185" fill="none" xmlns="http://www.w3.org/2000/svg">
<g clip-path="url(#clip0_6_183)">
<path d="M33.4648 73.9511C33.1936 72.2368 28.9269 74.0384 28.0578 71.4969C27.1726 68.9831 30.7969 68.2942 32.5531 67.565C35.5944 66.2798 38.8689 65.4259 42.1058 64.9583C43.3696 64.7607 45.9665 64.8878 46.2291 66.7455C46.4031 67.9214 46.1525 68.741 43.9992 70.0939C42.8487 70.8018 42.2494 71.1976 39.7474 72.1266C39.4262 72.6829 39.9074 73.7766 40.2259 74.7022C46.8762 94.0811 57.419 110.701 74.9732 121.985C92.5113 133.298 111.26 136.668 131.276 129.235C133.055 128.594 135.176 128.261 136.206 126.927C136.971 125.922 136.82 125.093 136.534 122.184C136.43 121.271 137.107 119.585 138.531 119.109C140.914 118.259 141.946 120.005 142.185 120.811C143.75 126.387 144.154 132.109 144.049 136.981C143.732 138.43 142.514 139.062 141.521 139.304C140.703 139.5 139.345 138.641 138.687 137.854C137.922 136.93 137.613 135.602 136.88 133.917C114.21 143.378 92.1128 141.375 71.423 128.391C51.0188 115.684 37.9228 96.2921 33.4648 73.9511Z" fill="#494949"/>
<path d="M126.715 87.0308C130.855 79.6672 139.433 76.7574 145.87 80.5109C151.473 83.7827 153.171 92.4032 149.485 98.9162C145.964 105.079 137.22 107.634 131.136 104.233C125.012 100.771 123.109 93.4047 126.715 87.0308ZM132.533 89.3513C130.565 92.8882 131.496 96.8004 134.782 98.6237C137.651 100.206 141.983 98.9984 143.45 96.1365C145.286 92.635 145.518 88.0587 140.834 86.022C138.17 84.8548 134.822 85.2582 132.533 89.3513Z" fill="#CD4631"/>
<path d="M80.4205 52.811C76.607 59.2876 68.1147 61.7277 61.8124 58.1261C55.8161 54.7013 54.111 46.6703 58.3236 40.0162C63.4633 31.8205 69.6019 31.9156 76.7699 35.2381C82.3834 37.8486 83.917 46.819 80.4205 52.811ZM63.874 42.479C61.4694 46.5796 61.9121 50.9518 64.8722 52.6979C68.1662 54.6367 73.1165 53.1927 75.156 49.6602C77.0349 46.4059 75.8851 41.5883 72.8329 39.9374C68.958 37.8486 66.0741 38.6683 63.874 42.479Z" fill="#81ADC8"/>
<path fill-rule="evenodd" clip-rule="evenodd" d="M116.784 -11.2756C116.683 -11.4055 116.582 -11.5346 116.481 -11.6645C113.156 -9.20435 109.832 -6.74474 106.506 -4.28463C106.633 -4.12194 106.759 -3.96012 106.885 -3.79781C110.184 -6.29071 113.484 -8.78273 116.784 -11.2756ZM112.428 25.9938C109.617 26.2051 107.873 25.3923 106.349 23.7929C97.8902 14.905 95.7797 -0.838584 110.077 -9.66256C116.863 -13.8514 120.909 -19.5081 120.352 -28.0506C120.158 -31.025 120.327 -34.0563 120.73 -36.9966C120.914 -38.3355 121.821 -39.8831 122.891 -40.6074C123.401 -40.9531 125.424 -39.8807 126.107 -38.9586C127.24 -37.4263 128.472 -35.5148 128.56 -33.7332C128.818 -28.4853 128.902 -23.1744 128.357 -17.98C127.854 -13.1703 125.226 -9.48845 121.626 -6.05296C118.016 -2.60936 113.255 -0.99474 109.951 2.92539C106.877 6.57243 106.327 16.0625 109.102 20.2734C110.224 21.9761 111.162 23.8012 112.428 25.9938Z" fill="white"/>
<path fill-rule="evenodd" clip-rule="evenodd" d="M130.036 32.0172C129.12 30.6768 127.79 29.4601 127.357 27.9741C125.258 20.7827 131.278 10.8886 138.801 10.2805C149.046 9.45174 153.212 3.08844 155.904 -5.46376C156.816 -8.3598 158.204 -11.1621 159.748 -13.7943C160.184 -14.5371 162.39 -15.1577 163 -14.7334C164.329 -13.8121 166.271 -11.897 165.998 -10.8885C164.382 -4.93271 162.852 1.20226 160.039 6.65263C157.003 12.5349 152.033 16.8157 144.679 17.1423C141.408 17.2879 138.101 17.4126 135.422 20.0198C132.532 22.8319 131.123 26.0947 131.118 30.0225C131.118 30.5205 131.02 31.0199 130.968 31.5192C130.657 31.6853 130.346 31.8515 130.036 32.0172Z" fill="white"/>
<path fill-rule="evenodd" clip-rule="evenodd" d="M184.011 36.8563C183.886 36.7001 183.761 36.544 183.635 36.3892L167.294 45.8239C167.389 45.9958 167.487 46.1681 167.583 46.3408L184.011 36.8563ZM141.19 52.1853C140.308 50.4853 139.687 49.289 139.066 48.0927C142.456 49.7885 142.804 46.3011 144.358 45.268L141.753 46.7722C140.453 45.9395 144.244 44.4295 140.635 44.1957C143.604 41.7365 145.98 38.9633 149.807 40.0826C151.468 40.5692 153.978 39.9639 155.384 42.6818C155.516 42.6977 156.56 42.5521 157.313 42.9507C163.38 46.1686 168.54 43.7341 173.606 40.4865C176.363 38.718 178.987 36.6515 181.941 35.313C184.186 34.2959 186.835 34.0118 189.339 33.7754C191.744 33.5489 193.101 35.534 194.155 37.2577C194.466 37.7684 193.463 39.7733 192.619 40.185C187.124 42.8705 181.507 45.3058 175.988 48.0185C177.116 47.2624 178.243 46.5081 179.372 45.752C179.313 45.6193 179.253 45.4868 179.194 45.355C178.614 45.5812 178.051 45.9037 177.45 46.0132C176.376 46.2105 175.282 46.3641 174.194 46.3793C172.995 46.3964 171.794 46.236 170.647 46.7032C171.503 47.2734 172.358 47.8449 172.822 48.1533C171.923 49.0784 171.477 49.679 170.899 50.0893C170.323 50.4969 169.562 51.0455 168.97 50.9567C166.339 50.5632 163.71 51.0155 161.101 49.3032C157.845 47.1639 153.94 45.9983 150.288 44.4779C149.78 44.2661 148.955 44.1888 148.545 44.4583C146.284 45.9424 144.045 47.4793 141.943 49.1764C141.459 49.5675 141.542 50.6612 141.19 52.1853Z" fill="white"/>
</g>
<defs>
<clipPath id="clip0_6_183">
<rect width="185" height="185" fill="white"/>
</clipPath>
</defs>
</svg>
