<svg width="413" height="261" viewBox="0 0 413 261" fill="none" xmlns="http://www.w3.org/2000/svg">
<path d="M32.8553 260.282C32.8553 260.282 24.8868 178.384 106.521 178.384C194.715 178.384 143.234 130.625 201.535 116.821C252.993 104.64 285.863 157.388 264.448 190.531C249.032 214.388 311.953 227.61 304.429 260.774L32.8553 260.282Z" fill="#FFCE41" fill-opacity="0.69"/>
<path d="M188.966 141.886C189.379 141.182 194.12 133.745 206.834 139.291C206.834 139.291 200.318 137.054 197.888 139.091C197.888 139.091 203.763 137.942 206.627 140.575C209.49 143.207 208.471 149.776 207.497 151.633C206.525 153.49 201.427 158.544 198.992 158.021C198.071 157.822 197.154 157.323 196.372 156.776C196.492 157.895 196.555 159.097 196.535 160.395C196.341 172.399 186.136 179.363 182.473 176.314C180.125 174.357 177.021 178.339 177.021 178.339L161.493 145.782C161.493 145.782 181.271 131.574 188.966 141.886Z" fill="#2C3A64"/>
<path d="M152.764 209.519C156.02 211.644 160.101 213.395 165.224 214.507C184.431 218.683 191.791 203.411 194.554 192.928C191.935 191.518 189.471 191.207 188.047 191.047C186.66 190.893 185.2 190.791 183.991 190.734C181.834 189.18 178.62 182.82 177.911 172.945L177.006 173.173L161.87 177.07C161.87 177.07 162.563 181.598 162.903 185.876C163.166 189.224 163.208 192.424 162.533 193.206C161.352 193.447 160.643 193.604 160.643 193.604C160.643 193.604 160.643 193.61 160.635 193.619C160.433 193.932 156.042 200.725 152.764 209.519Z" fill="#FFB27D"/>
<g filter="url(#filter0_f_208_206)">
<path d="M161.87 177.073C161.87 177.073 162.566 181.596 162.904 185.878C171.479 185.07 175.458 177.389 177.007 173.175L161.87 177.073Z" fill="#ED985F"/>
</g>
<path d="M157.19 178.637C157.19 178.637 176.987 183.215 179.828 171.573C182.668 159.931 187.137 152.682 174.617 149.266C162.097 145.85 158.549 149.761 156.597 153.43C154.644 157.099 152.113 177.147 157.19 178.637Z" fill="#FFB27D"/>
<path d="M158.759 147.083C162.68 144.241 164.815 145.508 165.86 146.842C178.085 143.557 183.067 153.366 183.067 153.366C182.369 162.007 187.61 168.171 187.61 168.171C187.61 168.171 183.478 169.497 175.619 165.682C173.218 164.518 171.355 162.324 169.921 159.839C172.007 165.894 175.673 170.721 175.673 170.721C166.754 164.241 165.916 150.33 165.852 148.864C164.39 149.627 161.458 151.341 160.201 153.366C158.489 156.119 156.562 162.128 154.721 161.513C154.721 161.513 152.876 151.347 158.759 147.083Z" fill="#2C3A64"/>
<path d="M152.767 195.095C155.532 193.711 159.088 192.685 162.957 191.929C162.957 191.929 164.951 196.76 171.03 196.657C176.805 196.557 182.518 190.547 183.074 189.948C189.692 189.749 194.555 189.946 194.555 189.946C194.555 189.946 208.492 210.462 206.766 215.214C205.629 218.345 204.734 221.438 204.037 224.448C200.795 238.443 201.821 250.633 202.646 256.341C202.965 258.548 203.253 259.787 203.253 259.787L159.359 260.746C159.359 260.746 155.722 248.566 153.026 238.174C152.943 237.862 152.865 237.55 152.785 237.242C150.958 240.786 145.771 246.115 143.425 246.533C143.284 246.558 142.626 246.573 141.678 246.579C138.163 246.607 131.364 246.651 131.364 246.651C130.057 236.859 147.058 197.425 152.767 195.095Z" fill="#DD4E41"/>
<path d="M202.646 256.343C201.821 250.635 200.796 238.445 204.037 224.449C204.023 224.287 204.017 224.201 204.017 224.201C204.017 224.201 192.009 234.994 189.934 246.279C188.518 253.983 197.164 255.992 202.646 256.343Z" fill="#AD2B1F"/>
<path d="M168.603 246.274C168.851 245.529 172.836 241.709 174.993 241.24C177.151 240.772 184.275 242.313 184.275 242.313C188.695 241.76 198.776 240.272 210.583 237.046C212.663 236.478 214.796 235.857 216.963 235.175L198.98 219.922L183.074 189.944C183.074 189.944 196.562 188.943 199.976 190.858C212.261 197.746 235.018 237.948 234.586 246.274C234.586 246.274 228.822 246.572 218.291 246.698C210.202 246.797 199.296 246.791 186.031 246.472C186.031 246.472 184.574 246.463 183.042 246.274H168.603Z" fill="#FFB27D"/>
<path d="M198.98 219.922L214.841 235.355C213.278 235.912 211.647 236.707 210.583 237.046C210.583 237.046 212.033 242.915 218.291 246.698C228.822 246.572 234.586 246.274 234.586 246.274C235.018 237.948 212.261 197.746 199.976 190.858C196.562 188.943 183.074 189.944 183.074 189.944L198.98 219.922Z" fill="#DD4E41"/>
<path d="M131.363 246.649C132.311 246.641 143.283 246.555 143.424 246.53C145.77 246.113 150.956 240.784 152.784 237.24C152.863 237.547 152.202 233.886 151.589 232.401C150.263 229.2 148.496 226.483 148.496 226.483C142.191 225.59 131.346 241.015 131.363 246.649Z" fill="#AD2B1F"/>
<path d="M131.737 237.346C133.136 227.383 136.12 210.127 141.992 190.265L142.027 190.262C142.372 189.009 145.097 179.221 146.237 178.149C147.454 177.003 153.872 174.604 154.978 174.346C154.978 174.346 155.16 175.038 154.495 175.586C154.302 175.745 153.93 175.991 153.481 176.269L155.002 177.039C155.002 177.039 154.43 177.508 153.58 177.39C153.174 177.335 152.622 177.192 152.155 177.057C151.841 177.239 151.529 177.413 151.247 177.569C150.769 177.994 150.202 178.532 150.152 178.724C150.095 178.952 149.888 179.954 149.759 180.588C149.994 180.391 150.197 180.192 150.329 179.999C150.937 179.115 152.211 179.205 152.211 179.205C152.211 179.205 150.468 181.265 150.303 182.6C150.052 184.633 148.846 185.698 148.846 185.698H148.845C148.402 186.189 147.778 186.629 147.251 187.66C146.864 188.413 146.714 189.856 146.607 190.686H146.606C146.345 193.687 145.45 204.753 145.695 212.9C146.023 223.865 147.128 233.693 145.817 239.791C145.48 241.371 144.979 242.7 144.262 243.734C141.404 247.856 131.364 246.653 131.364 246.653C131.364 246.653 130.933 243.087 131.737 237.346Z" fill="#FFB27D"/>
<path d="M131.365 246.649C131.365 246.649 141.405 247.852 144.264 243.73C144.98 242.696 145.481 241.367 145.818 239.788C143.665 240.296 137.772 241.153 131.738 237.342C130.934 243.084 131.365 246.649 131.365 246.649Z" fill="#DD4E41"/>
<path d="M55.9205 241.518C55.9205 241.518 64.0874 232.553 56.4239 226.86C56.4239 226.86 50.8264 223.672 46.2623 223.931C46.2623 223.931 52.7303 234.132 50.6376 235.148C48.5455 236.163 44.3015 223.29 44.3015 223.29C44.3015 223.29 31.5644 222.129 27.4661 223.982C27.4661 223.982 38.3555 232.365 36.062 232.865C33.7696 233.363 22.0084 225.135 22.0084 225.135C22.0084 225.135 10.1522 227.033 10.7838 233.837C11.4161 240.642 15.5016 242.741 17.2967 242.56C19.0917 242.38 29.5939 238.609 29.8232 239.992C30.0525 241.376 23.7302 245.899 19.3041 246.112C19.3041 246.112 27.6615 254.783 33.2167 252.28C38.7706 249.778 39.2461 245.81 42.7079 244.323C46.1709 242.835 49.1276 242.838 47.6967 244.356C46.2671 245.872 40.0005 247.347 38.021 250.643C36.0402 253.94 34.2639 256.162 40.0114 255.348C45.7577 254.534 55.1001 250.578 55.5103 246.048C55.9205 241.518 55.9205 241.518 55.9205 241.518Z" fill="#16834F"/>
<path d="M16.6096 234.021C16.6096 234.021 48.8095 232.854 55.9213 241.518C55.9213 241.518 57.4937 245.949 62.3337 249.984L63.0875 251.917C63.0875 251.917 57.5076 246.383 55.5111 246.048C55.5111 246.048 58.6335 235.315 16.6096 234.021Z" fill="#0F5734"/>
<path d="M60.992 249.941C61.2703 250.228 61.6841 250.614 62.274 251.13C62.2867 251.139 62.2958 251.148 62.3066 251.158C62.4972 251.327 62.686 251.507 62.8675 251.699C64.0152 252.898 64.9971 254.521 65.8042 256.18C65.9633 256.508 66.1182 256.839 66.2621 257.167H68.1455C67.9864 256.826 67.8206 256.498 67.647 256.18C65.4557 252.153 62.3363 249.982 62.3363 249.982C62.3363 249.982 62.3345 249.981 62.3333 249.981C62.2153 249.912 59.4305 248.33 60.992 249.941Z" fill="#82B378"/>
<path d="M78.4648 230.041C78.4648 230.041 65.473 223.197 71.5369 213.908C71.5369 213.908 76.386 208.205 81.5823 206.739C81.5823 206.739 78.8114 220.59 81.5823 220.915C84.3545 221.242 83.4875 205.272 83.4875 205.272C83.4875 205.272 97.1708 199.079 102.541 199.568C102.541 199.568 94.0532 213.094 96.8253 212.769C99.5962 212.442 109.123 198.754 109.123 198.754C109.123 198.754 123.154 196.309 125.406 204.131C127.657 211.952 124.02 215.865 121.941 216.353C119.863 216.842 106.526 216.679 106.871 218.309C107.218 219.938 116.224 222.546 121.249 221.078C121.249 221.078 115.706 233.952 108.431 233.301C101.156 232.649 98.9041 228.412 94.4005 228.085C89.8963 227.761 86.6051 228.9 88.8569 230.041C91.1093 231.182 98.7305 230.416 102.369 233.324C106.006 236.234 108.95 238.026 102.195 239.33C95.4393 240.634 83.3157 239.819 80.8902 234.93C78.4648 230.041 78.4648 230.041 78.4648 230.041Z" fill="#1BA261"/>
<path d="M118.998 206.576C118.998 206.576 82.6229 217.658 78.466 230.042C78.466 230.042 78.639 235.583 75.0011 241.938V244.382C75.0011 244.382 78.8127 236.071 80.8914 234.93C80.8914 234.93 72.7493 224.175 118.998 206.576Z" fill="#0F5734"/>
<path d="M71.78 256.182C71.823 256.509 71.8756 256.837 71.9379 257.168H73.8291C73.8074 256.864 73.7856 256.533 73.7686 256.182C73.5968 252.876 73.6319 247.677 75.1317 244.105C75.1378 244.09 75.1438 244.074 75.1517 244.059C75.2787 243.757 75.4167 243.469 75.5667 243.194C75.5697 243.186 75.5746 243.18 75.5776 243.173C76.0035 242.386 76.2933 241.805 76.4772 241.382C76.4772 241.382 76.4772 241.381 76.479 241.379C77.5196 238.978 75.1111 241.806 75.0047 241.933C75.0028 241.936 75.0016 241.937 75.0016 241.937C75.0016 241.937 70.691 248.092 71.78 256.182Z" fill="#82B378"/>
<path d="M62.8121 216.066C62.8121 216.066 79.9372 207.045 71.9458 194.801C71.9458 194.801 65.5521 187.282 58.7035 185.349C58.7035 185.349 62.3553 203.608 58.7035 204.038C55.0499 204.467 56.191 183.415 56.191 183.415C56.191 183.415 38.1541 175.252 31.0756 175.896C31.0756 175.896 42.2626 193.726 38.6109 193.297C34.9573 192.867 22.3993 174.822 22.3993 174.822C22.3993 174.822 3.905 171.601 0.936264 181.911C-2.03127 192.222 2.76215 197.379 5.50341 198.022C8.24346 198.667 25.8236 198.453 25.3668 200.6C24.91 202.748 13.0369 206.186 6.41575 204.252C6.41575 204.252 13.7229 221.221 23.3116 220.363C32.9021 219.504 35.8708 213.918 41.8077 213.488C47.7427 213.059 52.0806 214.563 49.1131 216.066C46.1455 217.57 36.0983 216.559 31.3037 220.394C26.5084 224.229 22.6273 226.592 31.533 228.311C40.4367 230.03 56.4203 228.956 59.6153 222.511C62.8121 216.066 62.8121 216.066 62.8121 216.066Z" fill="#21C576"/>
<path d="M9.38515 185.128C9.38515 185.128 57.3326 199.735 62.8121 216.06C62.8121 216.06 62.5847 223.365 67.3799 231.742V234.964C67.3799 234.964 62.3554 224.009 59.6153 222.505C59.6153 222.505 70.3474 208.327 9.38515 185.128Z" fill="#0F5734"/>
<path d="M67.3827 231.747C67.3827 231.747 74.7764 242.311 70.5607 255.171L68.6586 254.69C68.6586 254.69 70.5051 240.526 66.6361 233.402C62.7689 226.278 67.3827 231.747 67.3827 231.747Z" fill="#0F5734"/>
<path d="M93.2617 246.531H266.686C274.813 246.531 281.399 252.729 281.399 260.374H78.5499C78.5499 252.729 85.1371 246.531 93.2617 246.531Z" fill="#083B91"/>
<path d="M71.8712 247.157H245.296C253.422 247.157 260.009 253.355 260.009 261H57.1588C57.1588 253.355 63.746 247.157 71.8712 247.157Z" fill="#4C8BF5"/>
<path d="M45.6162 125.859C45.6162 138.719 54.9321 146.842 67.2908 151.756C70.1102 152.878 73.0894 153.831 76.1516 154.636C82.6881 156.355 89.6085 157.393 96.1837 157.929C100.09 158.248 103.876 158.388 107.388 158.388C114.947 158.388 121.488 157.028 127.098 154.636C147.21 146.056 155.326 124.184 155.326 104.026C155.326 78.2459 132.01 70.6999 107.388 67.9316C57.5448 62.3283 45.6162 100.08 45.6162 125.859Z" fill="#4C8BF5"/>
<path d="M211.891 99.4876C214.399 100.511 217.128 101.419 220.081 102.197C227.405 104.122 234.039 106.817 240.119 109.704C265.235 121.623 280.912 136.803 296.783 114.529C312.97 91.81 297.528 47.5987 278.922 28.9818C257.069 7.11567 218.603 23.2422 200.208 44.4952C183.373 63.9465 184.842 88.4521 211.891 99.4876Z" fill="#49B165"/>
<path d="M286.834 177.371C286.834 200.435 308.818 212.788 335.431 215.293C338.834 215.614 342.312 215.773 345.83 215.773C346.493 215.773 347.15 215.766 347.803 215.753C347.834 215.753 347.865 215.752 347.896 215.752C348.823 215.731 349.741 215.699 350.647 215.652C354.408 215.462 358.005 215.047 361.432 214.433C364.427 213.896 367.293 213.208 370.032 212.381C370.809 212.147 371.575 211.903 372.331 211.645C399.187 202.555 413 180.003 413 159.818C413 133.806 376.68 115.324 345.83 121.574C315.495 127.72 286.834 151.358 286.834 177.371Z" fill="#ED564A"/>
<path d="M132.965 245.913L133.371 247.023H190.68V245.913H132.965Z" fill="white" stroke="#2C3A64" stroke-width="0.243513"/>
<g filter="url(#filter1_d_208_206)">
<path d="M163.948 211.752H120.106L133.285 247.143H177.241L163.948 211.752Z" fill="white"/>
<path d="M177.065 247.021L163.863 211.874H120.281L133.37 247.021H177.065Z" stroke="#2C3A64" stroke-width="0.243513"/>
</g>
<path d="M147.073 231.724C148.254 231.724 148.901 230.699 148.558 229.468C148.254 228.197 147.035 227.213 145.892 227.213C144.711 227.213 144.064 228.197 144.407 229.468C144.711 230.699 145.93 231.724 147.073 231.724Z" fill="#2C3A64"/>
<path d="M59.3881 106.526L59.1471 107.716H60.4702V108.772H58.9471L58.5522 110.854H57.4239L57.824 108.772H56.8291L56.4393 110.854H55.3367L55.7162 108.772H54.4957V107.716H55.9162L56.1572 106.526H54.8649V105.454H56.347L56.7419 103.367H57.865L57.4701 105.454H58.4855L58.8855 103.367H59.9881L59.5881 105.454H60.8189V106.526H59.3881ZM57.0291 107.716H58.0342L58.2752 106.526H57.2701L57.0291 107.716ZM63.4395 102.875V104.731C63.4395 104.947 63.4326 105.16 63.419 105.372C63.4087 105.584 63.395 105.748 63.3779 105.865H63.4395C63.5899 105.629 63.795 105.429 64.0549 105.265C64.3147 105.097 64.6515 105.013 65.0652 105.013C65.7079 105.013 66.2293 105.265 66.6293 105.767C67.0293 106.27 67.2293 107.007 67.2293 107.977C67.2293 108.631 67.137 109.179 66.9524 109.624C66.7678 110.065 66.5096 110.398 66.178 110.624C65.8464 110.846 65.4617 110.957 65.0241 110.957C64.6036 110.957 64.272 110.882 64.0292 110.731C63.7865 110.581 63.5899 110.412 63.4395 110.224H63.3318L63.0702 110.854H61.8753V102.875H63.4395ZM64.5626 106.265C64.2891 106.265 64.072 106.321 63.9113 106.434C63.7506 106.547 63.6326 106.716 63.5574 106.942C63.4856 107.167 63.4463 107.453 63.4395 107.798V107.967C63.4395 108.525 63.5215 108.952 63.6856 109.249C63.8497 109.543 64.1489 109.69 64.5831 109.69C64.9045 109.69 65.1592 109.542 65.3472 109.244C65.5387 108.947 65.6344 108.518 65.6344 107.957C65.6344 107.396 65.5387 106.974 65.3472 106.69C65.1558 106.407 64.8942 106.265 64.5626 106.265ZM70.8858 105.013C71.4157 105.013 71.8722 105.116 72.2551 105.321C72.638 105.523 72.9337 105.817 73.1423 106.203C73.3508 106.589 73.4551 107.061 73.4551 107.619V108.378H69.7576C69.7747 108.819 69.9063 109.166 70.1525 109.419C70.402 109.668 70.7473 109.793 71.1884 109.793C71.5542 109.793 71.8893 109.755 72.1935 109.68C72.4978 109.605 72.8106 109.492 73.132 109.342V110.552C72.8483 110.692 72.5508 110.795 72.2397 110.86C71.932 110.925 71.5576 110.957 71.1166 110.957C70.5422 110.957 70.0328 110.851 69.5883 110.639C69.1473 110.427 68.8003 110.104 68.5473 109.67C68.2977 109.236 68.1729 108.689 68.1729 108.029C68.1729 107.359 68.2858 106.801 68.5114 106.357C68.7405 105.909 69.0584 105.574 69.4653 105.352C69.8721 105.126 70.3456 105.013 70.8858 105.013ZM70.8961 106.126C70.5918 106.126 70.3388 106.224 70.1371 106.418C69.9388 106.613 69.8242 106.919 69.7935 107.336H71.9884C71.985 107.104 71.9423 106.897 71.8602 106.716C71.7816 106.535 71.6619 106.391 71.5012 106.285C71.3439 106.179 71.1422 106.126 70.8961 106.126ZM78.727 109.152C78.727 109.542 78.6347 109.872 78.4501 110.142C78.2689 110.408 77.9971 110.612 77.6347 110.752C77.2723 110.889 76.821 110.957 76.2808 110.957C75.8808 110.957 75.5372 110.931 75.25 110.88C74.9663 110.829 74.6791 110.743 74.3885 110.624V109.331C74.6996 109.472 75.0329 109.588 75.3885 109.68C75.7475 109.769 76.062 109.813 76.3321 109.813C76.6364 109.813 76.8535 109.769 76.9834 109.68C77.1167 109.588 77.1834 109.468 77.1834 109.321C77.1834 109.225 77.1561 109.14 77.1014 109.065C77.0501 108.986 76.9372 108.899 76.7629 108.803C76.5885 108.704 76.315 108.576 75.9423 108.419C75.5834 108.268 75.2876 108.116 75.0551 107.962C74.8261 107.808 74.6551 107.627 74.5423 107.419C74.4329 107.207 74.3782 106.938 74.3782 106.613C74.3782 106.083 74.5833 105.685 74.9936 105.418C75.4073 105.148 75.9594 105.013 76.6501 105.013C77.0056 105.013 77.3441 105.049 77.6655 105.121C77.9903 105.193 78.3236 105.307 78.6655 105.465L78.1937 106.593C77.9099 106.47 77.6415 106.369 77.3885 106.29C77.139 106.212 76.8843 106.172 76.6244 106.172C76.3954 106.172 76.2227 106.203 76.1065 106.265C75.9902 106.326 75.9321 106.42 75.9321 106.547C75.9321 106.639 75.9612 106.721 76.0193 106.793C76.0808 106.865 76.1971 106.945 76.368 107.034C76.5424 107.119 76.7971 107.23 77.1321 107.367C77.4569 107.501 77.739 107.641 77.9783 107.788C78.2176 107.931 78.4022 108.111 78.5322 108.326C78.6621 108.538 78.727 108.813 78.727 109.152ZM82.363 109.711C82.534 109.711 82.6998 109.694 82.8605 109.66C83.0246 109.625 83.187 109.583 83.3477 109.531V110.696C83.1801 110.771 82.9716 110.832 82.722 110.88C82.4758 110.931 82.2057 110.957 81.9117 110.957C81.5698 110.957 81.2621 110.902 80.9886 110.793C80.7185 110.68 80.5049 110.487 80.3476 110.213C80.1937 109.937 80.1168 109.552 80.1168 109.06V106.295H79.3681V105.634L80.2296 105.111L80.6809 103.9H81.6809V105.121H83.2861V106.295H81.6809V109.06C81.6809 109.278 81.7425 109.442 81.8656 109.552C81.9921 109.658 82.1579 109.711 82.363 109.711ZM57.4137 124.957C56.8462 124.957 56.3624 124.854 55.9624 124.649C55.5624 124.441 55.2581 124.119 55.0495 123.685C54.841 123.251 54.7367 122.695 54.7367 122.019C54.7367 121.318 54.8547 120.747 55.0906 120.306C55.3299 119.861 55.6598 119.535 56.0803 119.326C56.5043 119.118 56.9949 119.013 57.5522 119.013C57.9487 119.013 58.2906 119.053 58.5778 119.131C58.8684 119.206 59.1214 119.297 59.3368 119.403L58.8753 120.613C58.6291 120.514 58.4 120.434 58.1881 120.372C57.9761 120.307 57.7641 120.275 57.5522 120.275C57.2786 120.275 57.0513 120.34 56.8701 120.47C56.6889 120.596 56.5538 120.788 56.4649 121.044C56.3761 121.301 56.3316 121.622 56.3316 122.008C56.3316 122.388 56.3795 122.702 56.4752 122.952C56.5709 123.201 56.7094 123.388 56.8906 123.511C57.0718 123.631 57.2923 123.69 57.5522 123.69C57.8769 123.69 58.1658 123.648 58.4188 123.562C58.6718 123.473 58.918 123.35 59.1573 123.193V124.531C58.918 124.682 58.6667 124.79 58.4035 124.854C58.1436 124.923 57.8137 124.957 57.4137 124.957ZM65.7011 121.977C65.7011 122.456 65.6361 122.88 65.5062 123.249C65.3797 123.619 65.1934 123.931 64.9472 124.188C64.7045 124.441 64.4104 124.632 64.0651 124.762C63.7232 124.892 63.3369 124.957 62.9061 124.957C62.5027 124.957 62.1318 124.892 61.7933 124.762C61.4582 124.632 61.1659 124.441 60.9163 124.188C60.6702 123.931 60.4787 123.619 60.342 123.249C60.2086 122.88 60.142 122.456 60.142 121.977C60.142 121.342 60.2548 120.803 60.4804 120.362C60.7061 119.921 61.0275 119.586 61.4446 119.357C61.8617 119.128 62.3591 119.013 62.9369 119.013C63.4737 119.013 63.9489 119.128 64.3626 119.357C64.7797 119.586 65.1062 119.921 65.3421 120.362C65.5814 120.803 65.7011 121.342 65.7011 121.977ZM61.7369 121.977C61.7369 122.354 61.7779 122.67 61.86 122.926C61.942 123.183 62.0702 123.376 62.2446 123.506C62.4189 123.636 62.6463 123.701 62.9266 123.701C63.2036 123.701 63.4275 123.636 63.5985 123.506C63.7728 123.376 63.8993 123.183 63.978 122.926C64.06 122.67 64.101 122.354 64.101 121.977C64.101 121.598 64.06 121.283 63.978 121.034C63.8993 120.781 63.7728 120.591 63.5985 120.465C63.4241 120.338 63.1967 120.275 62.9164 120.275C62.5027 120.275 62.2018 120.417 62.0138 120.701C61.8292 120.984 61.7369 121.41 61.7369 121.977ZM73.7269 119.013C74.3765 119.013 74.8671 119.181 75.1987 119.516C75.5338 119.848 75.7013 120.381 75.7013 121.116V124.854H74.132V121.506C74.132 121.095 74.062 120.786 73.9218 120.577C73.7816 120.369 73.5645 120.265 73.2705 120.265C72.8568 120.265 72.5628 120.413 72.3884 120.711C72.2141 121.005 72.1269 121.427 72.1269 121.977V124.854H70.5627V121.506C70.5627 121.232 70.532 121.003 70.4704 120.818C70.4089 120.634 70.3149 120.495 70.1884 120.403C70.0619 120.311 69.8995 120.265 69.7012 120.265C69.4106 120.265 69.1815 120.338 69.014 120.485C68.8499 120.629 68.7319 120.842 68.6601 121.126C68.5917 121.407 68.5576 121.75 68.5576 122.157V124.854H66.9934V119.121H68.1883L68.3986 119.854H68.4858C68.602 119.656 68.7473 119.495 68.9217 119.372C69.0994 119.249 69.2943 119.159 69.5063 119.101C69.7183 119.042 69.9337 119.013 70.1525 119.013C70.573 119.013 70.9285 119.082 71.2192 119.218C71.5132 119.355 71.7388 119.567 71.8961 119.854H72.0346C72.2055 119.56 72.4465 119.347 72.7577 119.213C73.0722 119.08 73.3953 119.013 73.7269 119.013ZM84.0451 119.013C84.6947 119.013 85.1853 119.181 85.5169 119.516C85.852 119.848 86.0195 120.381 86.0195 121.116V124.854H84.4502V121.506C84.4502 121.095 84.3802 120.786 84.24 120.577C84.0998 120.369 83.8827 120.265 83.5887 120.265C83.175 120.265 82.881 120.413 82.7066 120.711C82.5323 121.005 82.4451 121.427 82.4451 121.977V124.854H80.8809V121.506C80.8809 121.232 80.8502 121.003 80.7886 120.818C80.7271 120.634 80.6331 120.495 80.5066 120.403C80.3801 120.311 80.2177 120.265 80.0194 120.265C79.7288 120.265 79.4997 120.338 79.3322 120.485C79.1681 120.629 79.0501 120.842 78.9783 121.126C78.9099 121.407 78.8758 121.75 78.8758 122.157V124.854H77.3116V119.121H78.5065L78.7168 119.854H78.804C78.9202 119.656 79.0655 119.495 79.2399 119.372C79.4176 119.249 79.6125 119.159 79.8245 119.101C80.0365 119.042 80.2519 119.013 80.4707 119.013C80.8912 119.013 81.2468 119.082 81.5374 119.218C81.8314 119.355 82.057 119.567 82.2143 119.854H82.3528C82.5237 119.56 82.7647 119.347 83.0759 119.213C83.3904 119.08 83.7135 119.013 84.0451 119.013ZM92.8915 119.121V124.854H91.6915L91.4812 124.121H91.3991C91.2761 124.316 91.1222 124.475 90.9376 124.598C90.753 124.721 90.5495 124.812 90.3273 124.87C90.1051 124.928 89.8743 124.957 89.635 124.957C89.2247 124.957 88.8675 124.885 88.5632 124.742C88.2589 124.595 88.0213 124.367 87.8503 124.06C87.6828 123.752 87.599 123.352 87.599 122.86V119.121H89.1632V122.47C89.1632 122.88 89.2367 123.189 89.3837 123.398C89.5307 123.607 89.7649 123.711 90.0863 123.711C90.4042 123.711 90.6538 123.639 90.835 123.495C91.0162 123.348 91.1427 123.135 91.2145 122.854C91.2897 122.571 91.3273 122.225 91.3273 121.819V119.121H92.8915ZM97.789 119.013C98.401 119.013 98.8933 119.181 99.266 119.516C99.6387 119.848 99.825 120.381 99.825 121.116V124.854H98.2608V121.506C98.2608 121.095 98.1856 120.786 98.0352 120.577C97.8882 120.369 97.6557 120.265 97.3377 120.265C96.8591 120.265 96.5326 120.427 96.3582 120.752C96.1839 121.077 96.0967 121.545 96.0967 122.157V124.854H94.5325V119.121H95.7274L95.9377 119.854H96.0249C96.148 119.656 96.3001 119.495 96.4813 119.372C96.6659 119.249 96.8694 119.159 97.0916 119.101C97.3172 119.042 97.5497 119.013 97.789 119.013ZM102.999 119.121V124.854H101.435V119.121H102.999ZM102.22 116.875C102.452 116.875 102.652 116.93 102.82 117.039C102.987 117.145 103.071 117.345 103.071 117.639C103.071 117.93 102.987 118.131 102.82 118.244C102.652 118.353 102.452 118.408 102.22 118.408C101.984 118.408 101.782 118.353 101.615 118.244C101.451 118.131 101.369 117.93 101.369 117.639C101.369 117.345 101.451 117.145 101.615 117.039C101.782 116.93 101.984 116.875 102.22 116.875ZM107.061 123.711C107.232 123.711 107.398 123.694 107.559 123.66C107.723 123.625 107.885 123.583 108.046 123.531V124.696C107.878 124.771 107.67 124.832 107.42 124.88C107.174 124.931 106.904 124.957 106.61 124.957C106.268 124.957 105.96 124.902 105.687 124.793C105.417 124.68 105.203 124.487 105.046 124.213C104.892 123.937 104.815 123.552 104.815 123.06V120.295H104.066V119.634L104.928 119.111L105.379 117.9H106.379V119.121H107.984V120.295H106.379V123.06C106.379 123.278 106.441 123.442 106.564 123.552C106.69 123.658 106.856 123.711 107.061 123.711ZM108.389 119.121H110.102L111.184 122.347C111.218 122.449 111.247 122.554 111.271 122.66C111.295 122.766 111.316 122.875 111.333 122.988C111.35 123.101 111.364 123.219 111.374 123.342H111.405C111.425 123.157 111.453 122.984 111.487 122.824C111.524 122.663 111.571 122.504 111.625 122.347L112.687 119.121H114.364L111.938 125.588C111.791 125.984 111.6 126.314 111.364 126.578C111.128 126.844 110.856 127.044 110.548 127.178C110.244 127.311 109.909 127.378 109.543 127.378C109.365 127.378 109.212 127.367 109.082 127.347C108.952 127.33 108.841 127.311 108.748 127.29V126.049C108.82 126.066 108.911 126.082 109.02 126.096C109.129 126.109 109.244 126.116 109.364 126.116C109.582 126.116 109.771 126.07 109.928 125.978C110.085 125.885 110.217 125.76 110.323 125.603C110.429 125.449 110.512 125.28 110.574 125.096L110.666 124.813L108.389 119.121Z" fill="white"/>
<path d="M211.491 61.6187V54.121H213.081V61.6187H211.491ZM216.661 61.7212C216.021 61.7212 215.5 61.4716 215.096 60.9725C214.696 60.4699 214.496 59.7331 214.496 58.7622C214.496 57.781 214.7 57.0391 215.107 56.5365C215.514 56.0305 216.045 55.7775 216.702 55.7775C216.975 55.7775 217.216 55.8151 217.425 55.8903C217.633 55.9655 217.813 56.0664 217.963 56.1929C218.117 56.3194 218.247 56.4613 218.353 56.6185H218.404C218.384 56.5091 218.358 56.3484 218.327 56.1365C218.3 55.9211 218.286 55.7006 218.286 55.4749V53.639H219.856V61.6187H218.655L218.353 60.875H218.286C218.187 61.0323 218.062 61.1759 217.912 61.3058C217.765 61.4323 217.589 61.5332 217.384 61.6084C217.179 61.6836 216.938 61.7212 216.661 61.7212ZM217.209 60.475C217.637 60.475 217.938 60.3485 218.112 60.0955C218.29 59.8391 218.384 59.4545 218.394 58.9417V58.7724C218.394 58.2151 218.308 57.7895 218.138 57.4955C217.967 57.198 217.649 57.0493 217.184 57.0493C216.838 57.0493 216.568 57.198 216.373 57.4955C216.179 57.7929 216.081 58.222 216.081 58.7827C216.081 59.3434 216.179 59.7656 216.373 60.0494C216.572 60.3332 216.85 60.475 217.209 60.475ZM223.856 55.7775C224.386 55.7775 224.842 55.88 225.225 56.0852C225.608 56.2869 225.904 56.5809 226.112 56.9673C226.321 57.3536 226.425 57.8254 226.425 58.3827V59.1417H222.727C222.744 59.5827 222.876 59.9297 223.122 60.1827C223.372 60.4323 223.717 60.5571 224.158 60.5571C224.524 60.5571 224.859 60.5195 225.163 60.4443C225.468 60.369 225.78 60.2562 226.102 60.1058V61.3161C225.818 61.4563 225.521 61.5588 225.21 61.6238C224.902 61.6887 224.527 61.7212 224.086 61.7212C223.512 61.7212 223.003 61.6152 222.558 61.4033C222.117 61.1913 221.77 60.8682 221.517 60.434C221.268 59.9998 221.143 59.4528 221.143 58.7929C221.143 58.1228 221.256 57.5656 221.481 57.1211C221.71 56.6732 222.028 56.3382 222.435 56.116C222.842 55.8903 223.315 55.7775 223.856 55.7775ZM223.866 56.8903C223.562 56.8903 223.309 56.9878 223.107 57.1826C222.909 57.3775 222.794 57.6835 222.763 58.1006H224.958C224.955 57.8681 224.912 57.6613 224.83 57.4801C224.751 57.2989 224.632 57.1553 224.471 57.0493C224.314 56.9433 224.112 56.8903 223.866 56.8903ZM230.046 55.7672C230.815 55.7672 231.405 55.9348 231.815 56.2698C232.225 56.6049 232.43 57.1143 232.43 57.798V61.6187H231.338L231.035 60.8391H230.994C230.83 61.0443 230.663 61.2118 230.492 61.3417C230.321 61.4716 230.124 61.5674 229.902 61.6289C229.68 61.6904 229.41 61.7212 229.092 61.7212C228.753 61.7212 228.449 61.6563 228.179 61.5263C227.912 61.3964 227.702 61.1981 227.548 60.9315C227.394 60.6614 227.317 60.3195 227.317 59.9058C227.317 59.2972 227.531 58.8494 227.958 58.5622C228.386 58.2716 229.027 58.1109 229.881 58.0801L230.876 58.0493V57.798C230.876 57.4972 230.798 57.2767 230.64 57.1365C230.483 56.9963 230.264 56.9262 229.984 56.9262C229.707 56.9262 229.435 56.9655 229.169 57.0442C228.902 57.1228 228.635 57.222 228.369 57.3416L227.851 56.2852C228.155 56.1245 228.495 55.998 228.871 55.9057C229.251 55.8134 229.642 55.7672 230.046 55.7672ZM230.876 58.9622L230.271 58.9827C229.765 58.9964 229.413 59.087 229.215 59.2545C229.02 59.422 228.922 59.6425 228.922 59.916C228.922 60.1554 228.993 60.3263 229.133 60.4289C229.273 60.528 229.456 60.5776 229.681 60.5776C230.016 60.5776 230.299 60.4785 230.528 60.2802C230.76 60.0819 230.876 59.7998 230.876 59.434V58.9622ZM238.046 59.916C238.046 60.3058 237.953 60.6357 237.769 60.9058C237.588 61.1725 237.316 61.3759 236.953 61.5161C236.591 61.6528 236.14 61.7212 235.6 61.7212C235.199 61.7212 234.856 61.6956 234.569 61.6443C234.285 61.593 233.998 61.5075 233.707 61.3879V60.0955C234.018 60.2357 234.352 60.352 234.707 60.4443C235.066 60.5332 235.381 60.5776 235.651 60.5776C235.955 60.5776 236.172 60.5332 236.302 60.4443C236.435 60.352 236.502 60.2323 236.502 60.0853C236.502 59.9896 236.475 59.9041 236.42 59.8289C236.369 59.7502 236.256 59.663 236.082 59.5673C235.907 59.4682 235.634 59.34 235.261 59.1827C234.902 59.0323 234.606 58.8801 234.374 58.7263C234.145 58.5724 233.974 58.3912 233.861 58.1827C233.752 57.9707 233.697 57.7023 233.697 57.3775C233.697 56.8476 233.902 56.4493 234.312 56.1826C234.726 55.9125 235.278 55.7775 235.969 55.7775C236.324 55.7775 236.663 55.8134 236.984 55.8852C237.309 55.957 237.642 56.0715 237.984 56.2288L237.512 57.357C237.229 57.2339 236.96 57.1331 236.707 57.0544C236.458 56.9758 236.203 56.9365 235.943 56.9365C235.714 56.9365 235.541 56.9673 235.425 57.0288C235.309 57.0903 235.251 57.1844 235.251 57.3109C235.251 57.4032 235.28 57.4852 235.338 57.557C235.399 57.6288 235.516 57.7092 235.687 57.798C235.861 57.8835 236.116 57.9946 236.451 58.1314C236.776 58.2647 237.058 58.4049 237.297 58.5519C237.536 58.6955 237.721 58.875 237.851 59.0904C237.981 59.3024 238.046 59.5776 238.046 59.916ZM239.861 59.1314V58.7519C239.861 58.5194 239.894 58.3143 239.959 58.1365C240.024 57.9553 240.128 57.7844 240.271 57.6237C240.415 57.4596 240.605 57.2921 240.841 57.1211C241.053 56.9707 241.222 56.8356 241.348 56.716C241.478 56.5963 241.572 56.4784 241.63 56.3621C241.692 56.2425 241.723 56.1074 241.723 55.957C241.723 55.7347 241.641 55.5655 241.477 55.4493C241.312 55.333 241.083 55.2749 240.789 55.2749C240.495 55.2749 240.203 55.3211 239.912 55.4134C239.625 55.5057 239.333 55.6271 239.035 55.7775L238.476 54.6544C238.818 54.4629 239.189 54.3091 239.589 54.1928C239.989 54.0732 240.427 54.0133 240.902 54.0133C241.634 54.0133 242.2 54.1894 242.6 54.5416C243.003 54.8903 243.205 55.3347 243.205 55.8749C243.205 56.1621 243.159 56.4117 243.066 56.6237C242.977 56.8322 242.841 57.0271 242.656 57.2083C242.475 57.3861 242.248 57.5741 241.974 57.7724C241.769 57.9228 241.612 58.0493 241.502 58.1519C241.393 58.2545 241.318 58.357 241.277 58.4596C241.239 58.5587 241.22 58.6801 241.22 58.8237V59.1314H239.861ZM239.697 60.8853C239.697 60.5639 239.784 60.3383 239.959 60.2084C240.136 60.0784 240.35 60.0135 240.6 60.0135C240.842 60.0135 241.051 60.0784 241.225 60.2084C241.403 60.3383 241.492 60.5639 241.492 60.8853C241.492 61.193 241.403 61.4152 241.225 61.552C241.051 61.6887 240.842 61.7571 240.6 61.7571C240.35 61.7571 240.136 61.6887 239.959 61.552C239.784 61.4152 239.697 61.193 239.697 60.8853ZM211.491 75.6187V68.121H213.081V75.6187H211.491ZM218.102 69.7775C218.714 69.7775 219.206 69.945 219.579 70.2801C219.951 70.6117 220.138 71.145 220.138 71.8801V75.6187H218.573V72.2699C218.573 71.8596 218.498 71.5502 218.348 71.3416C218.201 71.1331 217.968 71.0288 217.65 71.0288C217.172 71.0288 216.845 71.1912 216.671 71.516C216.496 71.8408 216.409 72.3092 216.409 72.9212V75.6187H214.845V69.8852H216.04L216.25 70.6185H216.337C216.461 70.4202 216.613 70.2595 216.794 70.1365C216.979 70.0134 217.182 69.9228 217.404 69.8647C217.63 69.8065 217.862 69.7775 218.102 69.7775ZM225.004 69.7775C225.616 69.7775 226.109 69.945 226.481 70.2801C226.854 70.6117 227.04 71.145 227.04 71.8801V75.6187H225.476V72.2699C225.476 71.8596 225.401 71.5502 225.251 71.3416C225.104 71.1331 224.871 71.0288 224.553 71.0288C224.074 71.0288 223.748 71.1912 223.574 71.516C223.399 71.8408 223.312 72.3092 223.312 72.9212V75.6187H221.748V69.8852H222.943L223.153 70.6185H223.24C223.363 70.4202 223.515 70.2595 223.697 70.1365C223.881 70.0134 224.085 69.9228 224.307 69.8647C224.533 69.8065 224.765 69.7775 225.004 69.7775ZM233.861 72.7417C233.861 73.2203 233.796 73.6442 233.666 74.0135C233.54 74.3827 233.353 74.6956 233.107 74.952C232.864 75.205 232.57 75.3964 232.225 75.5263C231.883 75.6563 231.497 75.7212 231.066 75.7212C230.663 75.7212 230.292 75.6563 229.953 75.5263C229.618 75.3964 229.326 75.205 229.076 74.952C228.83 74.6956 228.639 74.3827 228.502 74.0135C228.369 73.6442 228.302 73.2203 228.302 72.7417C228.302 72.1057 228.415 71.5673 228.64 71.1262C228.866 70.6852 229.187 70.3501 229.604 70.1211C230.022 69.892 230.519 69.7775 231.097 69.7775C231.634 69.7775 232.109 69.892 232.523 70.1211C232.94 70.3501 233.266 70.6852 233.502 71.1262C233.741 71.5673 233.861 72.1057 233.861 72.7417ZM229.897 72.7417C229.897 73.1177 229.938 73.434 230.02 73.6904C230.102 73.9468 230.23 74.14 230.405 74.2699C230.579 74.3998 230.806 74.4648 231.087 74.4648C231.364 74.4648 231.587 74.3998 231.758 74.2699C231.933 74.14 232.059 73.9468 232.138 73.6904C232.22 73.434 232.261 73.1177 232.261 72.7417C232.261 72.3622 232.22 72.0476 232.138 71.798C232.059 71.545 231.933 71.3553 231.758 71.2288C231.584 71.1023 231.357 71.0391 231.076 71.0391C230.663 71.0391 230.362 71.1809 230.174 71.4647C229.989 71.7485 229.897 72.1741 229.897 72.7417ZM236.517 75.6187L234.333 69.8852H235.969L237.076 73.1519C237.138 73.3434 237.186 73.5451 237.22 73.7571C237.258 73.969 237.283 74.1588 237.297 74.3263H237.338C237.348 74.1451 237.372 73.9519 237.41 73.7468C237.451 73.5417 237.504 73.3434 237.569 73.1519L238.671 69.8852H240.307L238.123 75.6187H236.517ZM243.482 69.7672C244.251 69.7672 244.841 69.9348 245.251 70.2698C245.661 70.6049 245.866 71.1143 245.866 71.798V75.6187H244.774L244.472 74.8391H244.43C244.266 75.0443 244.099 75.2118 243.928 75.3417C243.757 75.4716 243.56 75.5674 243.338 75.6289C243.116 75.6904 242.846 75.7212 242.528 75.7212C242.189 75.7212 241.885 75.6563 241.615 75.5263C241.348 75.3964 241.138 75.1981 240.984 74.9315C240.83 74.6614 240.753 74.3195 240.753 73.9058C240.753 73.2972 240.967 72.8494 241.395 72.5622C241.822 72.2716 242.463 72.1109 243.318 72.0801L244.313 72.0493V71.798C244.313 71.4972 244.234 71.2767 244.077 71.1365C243.919 70.9963 243.701 70.9262 243.42 70.9262C243.143 70.9262 242.871 70.9655 242.605 71.0442C242.338 71.1228 242.071 71.222 241.805 71.3416L241.287 70.2852C241.591 70.1245 241.931 69.998 242.307 69.9057C242.687 69.8134 243.078 69.7672 243.482 69.7672ZM244.313 72.9622L243.707 72.9827C243.201 72.9964 242.849 73.087 242.651 73.2545C242.456 73.422 242.359 73.6425 242.359 73.916C242.359 74.1554 242.429 74.3263 242.569 74.4289C242.709 74.528 242.892 74.5776 243.118 74.5776C243.453 74.5776 243.735 74.4785 243.964 74.2802C244.196 74.0819 244.313 73.7998 244.313 73.434V72.9622ZM249.897 74.475C250.068 74.475 250.234 74.4579 250.395 74.4238C250.559 74.3896 250.721 74.3468 250.882 74.2955V75.4597C250.714 75.5349 250.506 75.5964 250.256 75.6443C250.01 75.6956 249.74 75.7212 249.446 75.7212C249.104 75.7212 248.796 75.6665 248.523 75.5571C248.253 75.4443 248.039 75.2511 247.882 74.9776C247.728 74.7007 247.651 74.3161 247.651 73.8237V71.0596H246.902V70.398L247.764 69.8749L248.215 68.6646H249.215V69.8852H250.82V71.0596H249.215V73.8237C249.215 74.0425 249.277 74.2067 249.4 74.3161C249.526 74.422 249.692 74.475 249.897 74.475ZM253.61 69.8852V75.6187H252.046V69.8852H253.61ZM252.831 67.639C253.063 67.639 253.263 67.6937 253.431 67.8031C253.598 67.9091 253.682 68.1091 253.682 68.4031C253.682 68.6937 253.598 68.8954 253.431 69.0082C253.263 69.1176 253.063 69.1723 252.831 69.1723C252.595 69.1723 252.393 69.1176 252.226 69.0082C252.061 68.8954 251.979 68.6937 251.979 68.4031C251.979 68.1091 252.061 67.9091 252.226 67.8031C252.393 67.6937 252.595 67.639 252.831 67.639ZM260.467 72.7417C260.467 73.2203 260.402 73.6442 260.272 74.0135C260.145 74.3827 259.959 74.6956 259.713 74.952C259.47 75.205 259.176 75.3964 258.831 75.5263C258.489 75.6563 258.103 75.7212 257.672 75.7212C257.268 75.7212 256.897 75.6563 256.559 75.5263C256.224 75.3964 255.932 75.205 255.682 74.952C255.436 74.6956 255.244 74.3827 255.108 74.0135C254.974 73.6442 254.908 73.2203 254.908 72.7417C254.908 72.1057 255.02 71.5673 255.246 71.1262C255.472 70.6852 255.793 70.3501 256.21 70.1211C256.627 69.892 257.125 69.7775 257.703 69.7775C258.239 69.7775 258.715 69.892 259.128 70.1211C259.545 70.3501 259.872 70.6852 260.108 71.1262C260.347 71.5673 260.467 72.1057 260.467 72.7417ZM256.503 72.7417C256.503 73.1177 256.544 73.434 256.626 73.6904C256.708 73.9468 256.836 74.14 257.01 74.2699C257.185 74.3998 257.412 74.4648 257.692 74.4648C257.969 74.4648 258.193 74.3998 258.364 74.2699C258.539 74.14 258.665 73.9468 258.744 73.6904C258.826 73.434 258.867 73.1177 258.867 72.7417C258.867 72.3622 258.826 72.0476 258.744 71.798C258.665 71.545 258.539 71.3553 258.364 71.2288C258.19 71.1023 257.962 71.0391 257.682 71.0391C257.268 71.0391 256.968 71.1809 256.78 71.4647C256.595 71.7485 256.503 72.1741 256.503 72.7417ZM265.016 69.7775C265.628 69.7775 266.12 69.945 266.493 70.2801C266.865 70.6117 267.052 71.145 267.052 71.8801V75.6187H265.487V72.2699C265.487 71.8596 265.412 71.5502 265.262 71.3416C265.115 71.1331 264.882 71.0288 264.564 71.0288C264.086 71.0288 263.759 71.1912 263.585 71.516C263.41 71.8408 263.323 72.3092 263.323 72.9212V75.6187H261.759V69.8852H262.954L263.164 70.6185H263.251C263.375 70.4202 263.527 70.2595 263.708 70.1365C263.893 70.0134 264.096 69.9228 264.318 69.8647C264.544 69.8065 264.776 69.7775 265.016 69.7775ZM269.257 73.1314V72.7519C269.257 72.5194 269.289 72.3143 269.354 72.1365C269.419 71.9553 269.523 71.7844 269.667 71.6237C269.811 71.4596 270 71.2921 270.236 71.1211C270.448 70.9707 270.617 70.8356 270.744 70.716C270.874 70.5963 270.968 70.4784 271.026 70.3621C271.088 70.2425 271.118 70.1074 271.118 69.957C271.118 69.7347 271.036 69.5655 270.872 69.4493C270.708 69.333 270.479 69.2749 270.185 69.2749C269.891 69.2749 269.599 69.3211 269.308 69.4134C269.021 69.5057 268.729 69.6271 268.431 69.7775L267.872 68.6544C268.214 68.4629 268.585 68.3091 268.985 68.1928C269.385 68.0732 269.823 68.0133 270.298 68.0133C271.029 68.0133 271.595 68.1894 271.995 68.5416C272.399 68.8903 272.6 69.3347 272.6 69.8749C272.6 70.1621 272.554 70.4117 272.462 70.6237C272.373 70.8322 272.236 71.0271 272.052 71.2083C271.87 71.3861 271.643 71.5741 271.37 71.7724C271.164 71.9228 271.007 72.0493 270.898 72.1519C270.788 72.2545 270.713 72.357 270.672 72.4596C270.635 72.5587 270.616 72.6801 270.616 72.8237V73.1314H269.257ZM269.093 74.8853C269.093 74.5639 269.18 74.3383 269.354 74.2084C269.532 74.0784 269.746 74.0135 269.995 74.0135C270.238 74.0135 270.447 74.0784 270.621 74.2084C270.799 74.3383 270.888 74.5639 270.888 74.8853C270.888 75.193 270.799 75.4152 270.621 75.552C270.447 75.6887 270.238 75.7571 269.995 75.7571C269.746 75.7571 269.532 75.6887 269.354 75.552C269.18 75.4152 269.093 75.193 269.093 74.8853Z" fill="white"/>
<path fill-rule="evenodd" clip-rule="evenodd" d="M271.301 112.644C271 112.808 271 113.241 271.301 113.405L281.9 119.163C282.188 119.32 282.539 119.111 282.539 118.782V107.266C282.539 106.938 282.188 106.729 281.9 106.886L278.254 108.867C278.73 109.407 279.019 110.116 279.019 110.893C279.019 112.585 277.646 113.957 275.954 113.957C274.548 113.957 273.363 113.011 273.002 111.72L271.301 112.644Z" fill="white" fill-opacity="0.9"/>
<path fill-rule="evenodd" clip-rule="evenodd" d="M275.954 113.957C277.647 113.957 279.019 112.585 279.019 110.892C279.019 110.301 278.851 109.748 278.561 109.28H284.678C285.017 109.28 285.225 109.651 285.048 109.939L278.929 119.913C278.76 120.188 278.36 120.188 278.191 119.913L274.197 113.404C274.695 113.753 275.301 113.957 275.954 113.957ZM272.919 111.32C272.899 111.18 272.889 111.038 272.889 110.892C272.889 110.301 273.057 109.748 273.347 109.28H272.441C272.102 109.28 271.895 109.651 272.072 109.939L272.919 111.32Z" fill="white" fill-opacity="0.9"/>
<path fill-rule="evenodd" clip-rule="evenodd" d="M285.818 113.405C286.12 113.241 286.12 112.808 285.818 112.644L275.22 106.886C274.932 106.729 274.58 106.938 274.58 107.266V108.152C274.994 107.945 275.46 107.828 275.954 107.828C277.647 107.828 279.019 109.2 279.019 110.893C279.019 112.585 277.647 113.957 275.954 113.957C275.46 113.957 274.994 113.84 274.58 113.633V118.782C274.58 119.111 274.932 119.32 275.22 119.163L285.818 113.405Z" fill="white" fill-opacity="0.9"/>
<path fill-rule="evenodd" clip-rule="evenodd" d="M278.929 106.138C278.76 105.862 278.359 105.862 278.19 106.138L277.033 108.024C278.193 108.461 279.019 109.581 279.019 110.894C279.019 112.586 277.646 113.958 275.954 113.958C275.157 113.958 274.43 113.654 273.885 113.155L272.072 116.111C271.895 116.4 272.102 116.77 272.441 116.77H284.678C285.017 116.77 285.224 116.4 285.047 116.111L278.929 106.138Z" fill="white" fill-opacity="0.9"/>
<path fill-rule="evenodd" clip-rule="evenodd" d="M281.154 110.14C279.463 108.791 276.93 108.986 275.496 110.577L275.496 110.577C275.783 110.259 276.289 110.22 276.627 110.49C276.961 110.756 277.006 111.224 276.732 111.542C277.594 110.599 279.105 110.487 280.115 111.293L280.115 111.293L280.115 111.293C280.453 111.563 280.959 111.523 281.246 111.205C281.533 110.887 281.491 110.411 281.153 110.141L281.154 110.14Z" fill="url(#paint0_linear_208_206)"/>
<path fill-rule="evenodd" clip-rule="evenodd" d="M276.721 111.555C277.007 111.237 276.966 110.76 276.628 110.49C276.29 110.22 275.783 110.26 275.496 110.578C275.487 110.588 275.478 110.599 275.469 110.61C274.069 112.195 274.279 114.547 275.944 115.89L275.948 115.894C275.621 115.622 275.584 115.153 275.867 114.839C276.154 114.52 276.661 114.481 276.999 114.751L276.999 114.751L276.999 114.751L276.999 114.751C275.985 113.941 275.86 112.511 276.72 111.556L276.72 111.556C276.72 111.556 276.72 111.555 276.721 111.555Z" fill="url(#paint1_linear_208_206)"/>
<path fill-rule="evenodd" clip-rule="evenodd" d="M276.998 114.75C276.66 114.48 276.154 114.519 275.867 114.837C275.58 115.156 275.621 115.632 275.96 115.902C275.965 115.907 275.971 115.911 275.977 115.915L276.005 115.938C277.684 117.24 280.165 117.045 281.591 115.494L281.602 115.481C281.313 115.785 280.818 115.818 280.485 115.553C280.147 115.283 280.106 114.806 280.393 114.488L280.393 114.488L280.393 114.488L280.392 114.488C279.537 115.437 278.028 115.559 277.014 114.763C277.009 114.759 277.004 114.754 276.998 114.75Z" fill="url(#paint2_linear_208_206)"/>
<path fill-rule="evenodd" clip-rule="evenodd" d="M281.617 115.466C283.048 113.879 282.845 111.503 281.165 110.152C281.492 110.423 281.53 110.893 281.246 111.207C280.959 111.525 280.453 111.564 280.115 111.295L280.114 111.295C281.122 112.1 281.251 113.516 280.41 114.47C280.404 114.476 280.399 114.482 280.393 114.488C280.106 114.806 280.148 115.283 280.486 115.553C280.824 115.823 281.33 115.784 281.617 115.466L281.617 115.466Z" fill="url(#paint3_linear_208_206)"/>
<path d="M321.437 166.622C322.214 166.622 322.781 166.79 323.138 167.125C323.495 167.457 323.673 167.915 323.673 168.5C323.673 168.764 323.633 169.016 323.554 169.258C323.474 169.497 323.344 169.71 323.162 169.896C322.984 170.083 322.745 170.231 322.446 170.341C322.146 170.448 321.777 170.502 321.338 170.502H320.79V172.644H319.513V166.622H321.437ZM321.371 167.668H320.79V169.456H321.21C321.449 169.456 321.656 169.424 321.832 169.361C322.008 169.298 322.144 169.199 322.24 169.064C322.336 168.93 322.384 168.757 322.384 168.546C322.384 168.249 322.302 168.029 322.137 167.887C321.972 167.741 321.717 167.668 321.371 167.668ZM327.281 167.952C327.344 167.952 327.417 167.957 327.499 167.965C327.584 167.97 327.653 167.979 327.705 167.99L327.61 169.167C327.569 169.154 327.51 169.144 327.433 169.139C327.359 169.13 327.295 169.126 327.24 169.126C327.078 169.126 326.92 169.147 326.766 169.188C326.615 169.229 326.479 169.296 326.358 169.39C326.238 169.48 326.141 169.601 326.07 169.752C326.001 169.901 325.967 170.083 325.967 170.3V172.644H324.711V168.039H325.662L325.848 168.813H325.909C326 168.657 326.113 168.514 326.247 168.385C326.384 168.253 326.54 168.149 326.713 168.072C326.888 167.992 327.078 167.952 327.281 167.952ZM329.797 168.039V172.644H328.541V168.039H329.797ZM329.171 166.235C329.358 166.235 329.519 166.279 329.653 166.367C329.788 166.452 329.855 166.613 329.855 166.849C329.855 167.082 329.788 167.244 329.653 167.335C329.519 167.423 329.358 167.466 329.171 167.466C328.982 167.466 328.82 167.423 328.685 167.335C328.554 167.244 328.488 167.082 328.488 166.849C328.488 166.613 328.554 166.452 328.685 166.367C328.82 166.279 328.982 166.235 329.171 166.235ZM334.324 172.644H330.687V171.902L332.82 168.999H330.815V168.039H334.25V168.854L332.174 171.684H334.324V172.644ZM337.137 167.952C337.562 167.952 337.929 168.035 338.236 168.2C338.544 168.362 338.781 168.598 338.949 168.908C339.116 169.218 339.2 169.597 339.2 170.045V170.654H336.231C336.244 171.008 336.35 171.287 336.548 171.49C336.748 171.691 337.026 171.791 337.38 171.791C337.674 171.791 337.943 171.761 338.187 171.7C338.431 171.64 338.683 171.549 338.941 171.429V172.401C338.713 172.513 338.474 172.596 338.224 172.648C337.977 172.7 337.676 172.726 337.322 172.726C336.861 172.726 336.452 172.641 336.095 172.471C335.741 172.3 335.462 172.041 335.259 171.692C335.058 171.343 334.958 170.904 334.958 170.374C334.958 169.836 335.049 169.388 335.23 169.032C335.414 168.672 335.669 168.403 335.996 168.224C336.323 168.043 336.703 167.952 337.137 167.952ZM337.145 168.846C336.901 168.846 336.697 168.924 336.535 169.081C336.376 169.237 336.284 169.483 336.259 169.818H338.022C338.019 169.631 337.985 169.465 337.919 169.32C337.856 169.174 337.76 169.059 337.631 168.974C337.505 168.889 337.343 168.846 337.145 168.846ZM343.434 171.276C343.434 171.589 343.36 171.854 343.212 172.071C343.066 172.285 342.848 172.449 342.557 172.561C342.266 172.671 341.903 172.726 341.47 172.726C341.148 172.726 340.872 172.705 340.642 172.664C340.414 172.623 340.183 172.554 339.95 172.458V171.42C340.2 171.533 340.467 171.626 340.753 171.7C341.041 171.772 341.294 171.807 341.511 171.807C341.755 171.807 341.929 171.772 342.034 171.7C342.141 171.626 342.194 171.53 342.194 171.412C342.194 171.335 342.172 171.267 342.128 171.206C342.087 171.143 341.997 171.073 341.857 170.996C341.717 170.916 341.497 170.814 341.198 170.687C340.909 170.566 340.672 170.444 340.485 170.321C340.301 170.197 340.164 170.052 340.073 169.884C339.985 169.714 339.942 169.498 339.942 169.237C339.942 168.812 340.106 168.492 340.436 168.278C340.768 168.061 341.211 167.952 341.766 167.952C342.052 167.952 342.323 167.981 342.582 168.039C342.842 168.097 343.11 168.189 343.385 168.315L343.006 169.221C342.778 169.122 342.562 169.041 342.359 168.978C342.159 168.915 341.954 168.883 341.745 168.883C341.561 168.883 341.423 168.908 341.329 168.957C341.236 169.007 341.189 169.082 341.189 169.184C341.189 169.258 341.213 169.324 341.259 169.382C341.309 169.439 341.402 169.504 341.54 169.575C341.68 169.644 341.884 169.733 342.153 169.843C342.414 169.95 342.641 170.063 342.833 170.181C343.025 170.296 343.173 170.44 343.278 170.613C343.382 170.783 343.434 171.004 343.434 171.276ZM345.469 170.646H344.464L344.254 166.622H345.679L345.469 170.646ZM344.237 172.055C344.237 171.796 344.307 171.615 344.447 171.511C344.59 171.407 344.762 171.354 344.962 171.354C345.157 171.354 345.325 171.407 345.465 171.511C345.607 171.615 345.679 171.796 345.679 172.055C345.679 172.302 345.607 172.48 345.465 172.59C345.325 172.7 345.157 172.755 344.962 172.755C344.762 172.755 344.59 172.7 344.447 172.59C344.307 172.48 344.237 172.302 344.237 172.055ZM347.306 170.646V170.341C347.306 170.155 347.332 169.99 347.384 169.847C347.436 169.701 347.52 169.564 347.635 169.435C347.75 169.303 347.903 169.169 348.092 169.032C348.262 168.911 348.398 168.802 348.5 168.706C348.604 168.61 348.68 168.515 348.726 168.422C348.776 168.326 348.801 168.217 348.801 168.097C348.801 167.918 348.735 167.782 348.603 167.689C348.471 167.596 348.287 167.549 348.051 167.549C347.815 167.549 347.58 167.586 347.347 167.66C347.116 167.734 346.881 167.832 346.642 167.952L346.194 167.05C346.468 166.897 346.766 166.773 347.087 166.68C347.409 166.584 347.76 166.536 348.142 166.536C348.729 166.536 349.184 166.677 349.505 166.96C349.829 167.24 349.991 167.597 349.991 168.031C349.991 168.261 349.954 168.462 349.88 168.632C349.808 168.8 349.698 168.956 349.55 169.102C349.405 169.244 349.222 169.395 349.002 169.555C348.838 169.675 348.711 169.777 348.624 169.859C348.536 169.942 348.475 170.024 348.442 170.106C348.412 170.186 348.397 170.284 348.397 170.399V170.646H347.306ZM347.174 172.055C347.174 171.796 347.244 171.615 347.384 171.511C347.527 171.407 347.698 171.354 347.899 171.354C348.094 171.354 348.261 171.407 348.401 171.511C348.544 171.615 348.615 171.796 348.615 172.055C348.615 172.302 348.544 172.48 348.401 172.59C348.261 172.7 348.094 172.755 347.899 172.755C347.698 172.755 347.527 172.7 347.384 172.59C347.244 172.48 347.174 172.302 347.174 172.055ZM356.7 170.971C356.7 171.328 356.614 171.639 356.441 171.902C356.268 172.166 356.015 172.369 355.683 172.512C355.353 172.655 354.952 172.726 354.48 172.726C354.272 172.726 354.067 172.712 353.867 172.685C353.669 172.657 353.478 172.617 353.294 172.565C353.113 172.51 352.94 172.443 352.775 172.363V171.177C353.061 171.304 353.357 171.418 353.665 171.519C353.972 171.621 354.277 171.672 354.579 171.672C354.788 171.672 354.955 171.644 355.082 171.589C355.211 171.534 355.304 171.459 355.362 171.363C355.419 171.267 355.448 171.157 355.448 171.033C355.448 170.882 355.397 170.753 355.296 170.646C355.194 170.539 355.054 170.439 354.876 170.345C354.7 170.252 354.501 170.152 354.278 170.045C354.138 169.979 353.986 169.899 353.821 169.806C353.656 169.71 353.5 169.593 353.352 169.456C353.203 169.318 353.081 169.152 352.985 168.957C352.892 168.76 352.845 168.524 352.845 168.249C352.845 167.889 352.927 167.582 353.092 167.326C353.257 167.071 353.492 166.876 353.797 166.742C354.104 166.604 354.466 166.536 354.884 166.536C355.197 166.536 355.495 166.573 355.778 166.647C356.063 166.718 356.361 166.823 356.671 166.96L356.259 167.952C355.982 167.84 355.734 167.753 355.514 167.693C355.294 167.63 355.071 167.598 354.843 167.598C354.683 167.598 354.547 167.624 354.435 167.677C354.322 167.726 354.237 167.797 354.18 167.891C354.122 167.981 354.093 168.087 354.093 168.208C354.093 168.351 354.134 168.471 354.217 168.57C354.302 168.666 354.428 168.76 354.596 168.85C354.766 168.941 354.977 169.047 355.23 169.167C355.537 169.313 355.8 169.465 356.016 169.625C356.236 169.781 356.405 169.966 356.523 170.181C356.641 170.392 356.7 170.656 356.7 170.971ZM361.478 172.644L361.124 171.033C361.104 170.937 361.073 170.796 361.029 170.609C360.985 170.42 360.937 170.218 360.885 170.004C360.835 169.787 360.789 169.586 360.745 169.402C360.703 169.218 360.673 169.084 360.654 168.999H360.617C360.598 169.084 360.567 169.218 360.526 169.402C360.485 169.586 360.438 169.787 360.386 170.004C360.337 170.22 360.29 170.425 360.246 170.617C360.202 170.807 360.169 170.951 360.147 171.05L359.777 172.644H358.426L357.116 168.039H358.368L358.899 170.078C358.935 170.22 358.969 170.391 359.002 170.588C359.035 170.783 359.064 170.973 359.089 171.157C359.116 171.338 359.137 171.482 359.151 171.589H359.184C359.189 171.51 359.2 171.404 359.217 171.272C359.236 171.14 359.256 171.004 359.278 170.864C359.303 170.722 359.325 170.594 359.344 170.481C359.366 170.366 359.383 170.288 359.394 170.247L359.962 168.039H361.346L361.885 170.247C361.905 170.326 361.929 170.452 361.96 170.625C361.993 170.798 362.021 170.977 362.046 171.161C362.071 171.342 362.085 171.485 362.087 171.589H362.12C362.131 171.496 362.15 171.357 362.178 171.173C362.205 170.989 362.237 170.797 362.273 170.597C362.311 170.393 362.349 170.22 362.388 170.078L362.94 168.039H364.171L362.845 172.644H361.478ZM366.803 167.944C367.421 167.944 367.894 168.079 368.224 168.348C368.553 168.617 368.718 169.026 368.718 169.575V172.644H367.841L367.598 172.018H367.565C367.433 172.182 367.299 172.317 367.161 172.421C367.024 172.525 366.866 172.602 366.688 172.652C366.509 172.701 366.292 172.726 366.037 172.726C365.765 172.726 365.521 172.674 365.304 172.569C365.09 172.465 364.921 172.306 364.797 172.092C364.674 171.875 364.612 171.6 364.612 171.268C364.612 170.779 364.784 170.42 365.127 170.189C365.47 169.955 365.985 169.826 366.671 169.802L367.47 169.777V169.575C367.47 169.334 367.407 169.156 367.281 169.044C367.155 168.931 366.979 168.875 366.754 168.875C366.531 168.875 366.313 168.907 366.099 168.97C365.885 169.033 365.67 169.113 365.456 169.209L365.04 168.36C365.285 168.231 365.558 168.13 365.86 168.055C366.165 167.981 366.479 167.944 366.803 167.944ZM367.47 170.51L366.984 170.527C366.578 170.538 366.295 170.61 366.136 170.745C365.979 170.879 365.901 171.057 365.901 171.276C365.901 171.468 365.957 171.606 366.07 171.688C366.183 171.768 366.329 171.807 366.511 171.807C366.78 171.807 367.006 171.728 367.19 171.569C367.377 171.409 367.47 171.183 367.47 170.889V170.51ZM371.362 174.67C370.72 174.67 370.228 174.557 369.888 174.332C369.55 174.11 369.381 173.797 369.381 173.393C369.381 173.116 369.468 172.884 369.641 172.697C369.814 172.51 370.068 172.377 370.403 172.298C370.274 172.243 370.161 172.153 370.065 172.03C369.969 171.904 369.921 171.77 369.921 171.63C369.921 171.455 369.972 171.309 370.073 171.194C370.175 171.076 370.322 170.96 370.514 170.848C370.272 170.744 370.08 170.576 369.937 170.345C369.797 170.115 369.727 169.843 369.727 169.53C369.727 169.195 369.8 168.911 369.946 168.677C370.094 168.441 370.308 168.261 370.588 168.138C370.871 168.014 371.214 167.952 371.618 167.952C371.703 167.952 371.802 167.958 371.914 167.969C372.027 167.98 372.13 167.992 372.223 168.006C372.319 168.02 372.384 168.031 372.417 168.039H374.023V168.677L373.302 168.863C373.368 168.964 373.418 169.073 373.451 169.188C373.483 169.303 373.5 169.426 373.5 169.555C373.5 170.049 373.327 170.435 372.981 170.712C372.638 170.987 372.16 171.124 371.548 171.124C371.402 171.116 371.265 171.105 371.136 171.091C371.073 171.14 371.025 171.192 370.992 171.247C370.959 171.302 370.942 171.36 370.942 171.42C370.942 171.481 370.967 171.532 371.016 171.573C371.069 171.611 371.145 171.641 371.247 171.663C371.351 171.683 371.48 171.692 371.634 171.692H372.417C372.922 171.692 373.306 171.801 373.57 172.018C373.836 172.234 373.969 172.553 373.969 172.973C373.969 173.511 373.744 173.929 373.294 174.225C372.846 174.522 372.203 174.67 371.362 174.67ZM371.416 173.85C371.715 173.85 371.972 173.821 372.186 173.764C372.403 173.709 372.569 173.629 372.684 173.525C372.8 173.423 372.857 173.301 372.857 173.158C372.857 173.043 372.823 172.951 372.754 172.882C372.689 172.817 372.587 172.77 372.45 172.742C372.315 172.715 372.142 172.701 371.931 172.701H371.28C371.126 172.701 370.988 172.726 370.864 172.775C370.743 172.825 370.647 172.893 370.576 172.981C370.504 173.072 370.469 173.176 370.469 173.294C370.469 173.467 370.551 173.603 370.716 173.702C370.883 173.801 371.117 173.85 371.416 173.85ZM371.618 170.358C371.854 170.358 372.027 170.285 372.137 170.139C372.246 169.994 372.301 169.796 372.301 169.546C372.301 169.269 372.244 169.062 372.128 168.924C372.016 168.784 371.846 168.714 371.618 168.714C371.387 168.714 371.214 168.784 371.099 168.924C370.983 169.062 370.926 169.269 370.926 169.546C370.926 169.796 370.982 169.994 371.095 170.139C371.21 170.285 371.384 170.358 371.618 170.358ZM377.997 171.276C377.997 171.589 377.923 171.854 377.775 172.071C377.63 172.285 377.411 172.449 377.12 172.561C376.829 172.671 376.467 172.726 376.033 172.726C375.712 172.726 375.436 172.705 375.205 172.664C374.977 172.623 374.746 172.554 374.513 172.458V171.42C374.763 171.533 375.031 171.626 375.316 171.7C375.605 171.772 375.857 171.807 376.074 171.807C376.318 171.807 376.493 171.772 376.597 171.7C376.704 171.626 376.758 171.53 376.758 171.412C376.758 171.335 376.736 171.267 376.692 171.206C376.651 171.143 376.56 171.073 376.42 170.996C376.28 170.916 376.06 170.814 375.761 170.687C375.473 170.566 375.235 170.444 375.049 170.321C374.865 170.197 374.727 170.052 374.637 169.884C374.549 169.714 374.505 169.498 374.505 169.237C374.505 168.812 374.67 168.492 374.999 168.278C375.331 168.061 375.775 167.952 376.329 167.952C376.615 167.952 376.887 167.981 377.145 168.039C377.406 168.097 377.673 168.189 377.948 168.315L377.569 169.221C377.341 169.122 377.126 169.041 376.922 168.978C376.722 168.915 376.517 168.883 376.309 168.883C376.125 168.883 375.986 168.908 375.893 168.957C375.799 169.007 375.753 169.082 375.753 169.184C375.753 169.258 375.776 169.324 375.823 169.382C375.872 169.439 375.966 169.504 376.103 169.575C376.243 169.644 376.447 169.733 376.717 169.843C376.977 169.95 377.204 170.063 377.396 170.181C377.588 170.296 377.737 170.44 377.841 170.613C377.945 170.783 377.997 171.004 377.997 171.276ZM379.455 170.646V170.341C379.455 170.155 379.482 169.99 379.534 169.847C379.586 169.701 379.67 169.564 379.785 169.435C379.9 169.303 380.053 169.169 380.242 169.032C380.412 168.911 380.548 168.802 380.65 168.706C380.754 168.61 380.83 168.515 380.876 168.422C380.926 168.326 380.95 168.217 380.95 168.097C380.95 167.918 380.885 167.782 380.753 167.689C380.621 167.596 380.437 167.549 380.201 167.549C379.965 167.549 379.73 167.586 379.497 167.66C379.266 167.734 379.031 167.832 378.792 167.952L378.343 167.05C378.618 166.897 378.916 166.773 379.237 166.68C379.558 166.584 379.91 166.536 380.292 166.536C380.879 166.536 381.334 166.677 381.655 166.96C381.979 167.24 382.141 167.597 382.141 168.031C382.141 168.261 382.104 168.462 382.03 168.632C381.958 168.8 381.848 168.956 381.7 169.102C381.555 169.244 381.372 169.395 381.152 169.555C380.988 169.675 380.861 169.777 380.773 169.859C380.686 169.942 380.625 170.024 380.592 170.106C380.562 170.186 380.547 170.284 380.547 170.399V170.646H379.455ZM379.324 172.055C379.324 171.796 379.394 171.615 379.534 171.511C379.676 171.407 379.848 171.354 380.049 171.354C380.243 171.354 380.411 171.407 380.551 171.511C380.694 171.615 380.765 171.796 380.765 172.055C380.765 172.302 380.694 172.48 380.551 172.59C380.411 172.7 380.243 172.755 380.049 172.755C379.848 172.755 379.676 172.7 379.534 172.59C379.394 172.48 379.324 172.302 379.324 172.055Z" fill="white"/>
<defs>
<filter id="filter0_f_208_206" x="160.026" y="171.331" width="18.8258" height="16.3924" filterUnits="userSpaceOnUse" color-interpolation-filters="sRGB">
<feFlood flood-opacity="0" result="BackgroundImageFix"/>
<feBlend mode="normal" in="SourceGraphic" in2="BackgroundImageFix" result="shape"/>
<feGaussianBlur stdDeviation="0.922329" result="effect1_foregroundBlur_208_206"/>
</filter>
<filter id="filter1_d_208_206" x="113.288" y="202.011" width="76.616" height="54.8722" filterUnits="userSpaceOnUse" color-interpolation-filters="sRGB">
<feFlood flood-opacity="0" result="BackgroundImageFix"/>
<feColorMatrix in="SourceAlpha" type="matrix" values="0 0 0 0 0 0 0 0 0 0 0 0 0 0 0 0 0 0 127 0" result="hardAlpha"/>
<feOffset dx="2.92216"/>
<feGaussianBlur stdDeviation="4.87026"/>
<feComposite in2="hardAlpha" operator="out"/>
<feColorMatrix type="matrix" values="0 0 0 0 0 0 0 0 0 0 0 0 0 0 0 0 0 0 0.25 0"/>
<feBlend mode="normal" in2="BackgroundImageFix" result="effect1_dropShadow_208_206"/>
<feBlend mode="normal" in="SourceGraphic" in2="effect1_dropShadow_208_206" result="shape"/>
</filter>
<linearGradient id="paint0_linear_208_206" x1="279.185" y1="110.164" x2="276.2" y2="111.068" gradientUnits="userSpaceOnUse">
<stop stop-color="white"/>
<stop offset="1" stop-color="white" stop-opacity="0.7"/>
</linearGradient>
<linearGradient id="paint1_linear_208_206" x1="275.521" y1="112.431" x2="276.289" y2="115.292" gradientUnits="userSpaceOnUse">
<stop stop-color="white"/>
<stop offset="1" stop-color="white" stop-opacity="0.7"/>
</linearGradient>
<linearGradient id="paint2_linear_208_206" x1="277.928" y1="115.879" x2="280.913" y2="114.974" gradientUnits="userSpaceOnUse">
<stop stop-color="white"/>
<stop offset="1" stop-color="white" stop-opacity="0.7"/>
</linearGradient>
<linearGradient id="paint3_linear_208_206" x1="281.593" y1="113.614" x2="280.825" y2="110.753" gradientUnits="userSpaceOnUse">
<stop stop-color="white"/>
<stop offset="1" stop-color="white" stop-opacity="0.7"/>
</linearGradient>
</defs>
</svg>
