<svg xmlns="http://www.w3.org/2000/svg" viewBox="0 0 1018.85 125.15"><defs><style>.cls-1,.cls-6{fill:#656c73;}.cls-2{fill:#ea4335;}.cls-3{fill:#4285f4;}.cls-4{fill:#fbbc04;}.cls-5{fill:#34a853;}.cls-6{font-size:43.01px;font-family:GoogleSansDisplay-Regular, Google Sans Display;}.cls-7{letter-spacing:-0.06em;}.cls-8{letter-spacing:-0.02em;}.cls-9{letter-spacing:-0.01em;}.cls-10{letter-spacing:-0.02em;}.cls-11{letter-spacing:0em;}.cls-12{letter-spacing:0em;}.cls-13{letter-spacing:0em;}</style></defs><g id="Layer_2" data-name="Layer 2"><g id="Layer_1-2" data-name="Layer 1"><path class="cls-1" d="M159.62,48.69a22,22,0,0,1-8.28-8.28,22.93,22.93,0,0,1-3-11.66,22.9,22.9,0,0,1,3-11.66,21.94,21.94,0,0,1,8.28-8.28,22.56,22.56,0,0,1,11.44-3,24.14,24.14,0,0,1,9.12,1.72,18.22,18.22,0,0,1,7,4.85l-3.74,3.74a13.47,13.47,0,0,0-5.37-4,18,18,0,0,0-7-1.38A17.48,17.48,0,0,0,162.44,13,17,17,0,0,0,156,19.33a18.05,18.05,0,0,0-2.43,9.42A18.05,18.05,0,0,0,156,38.17a17.05,17.05,0,0,0,6.44,6.32,18.89,18.89,0,0,0,16,.86,17.39,17.39,0,0,0,5.18-3.65,13.55,13.55,0,0,0,2.58-4.18,17.21,17.21,0,0,0,1.16-5.34h-16.2V27.34h21.11a17.7,17.7,0,0,1,.31,3.19,24.51,24.51,0,0,1-1.29,7.88,17.4,17.4,0,0,1-4.11,6.72Q181,51.7,171.06,51.7A22.66,22.66,0,0,1,159.62,48.69Z"/><path class="cls-1" d="M204.07,49.58a14.76,14.76,0,0,1-5.55-5.83,17.12,17.12,0,0,1-2-8.25,17.12,17.12,0,0,1,2-8.25,14.76,14.76,0,0,1,5.55-5.83,16.36,16.36,0,0,1,16.11,0,14.7,14.7,0,0,1,5.58,5.83,17.12,17.12,0,0,1,2,8.25,17.12,17.12,0,0,1-2,8.25,14.7,14.7,0,0,1-5.58,5.83,16.36,16.36,0,0,1-16.11,0Zm13.19-4a10.33,10.33,0,0,0,3.84-4,12.29,12.29,0,0,0,1.44-6,12.33,12.33,0,0,0-1.44-6.05,10.37,10.37,0,0,0-3.84-4A9.87,9.87,0,0,0,212.11,24,9.76,9.76,0,0,0,207,25.44a10.37,10.37,0,0,0-3.84,4,12.33,12.33,0,0,0-1.44,6.05,12.29,12.29,0,0,0,1.44,6,10.33,10.33,0,0,0,3.84,4A9.85,9.85,0,0,0,212.11,47,10,10,0,0,0,217.26,45.56Z"/><path class="cls-1" d="M238.86,49.58a14.76,14.76,0,0,1-5.55-5.83,17.12,17.12,0,0,1-2-8.25,17.12,17.12,0,0,1,2-8.25,14.76,14.76,0,0,1,5.55-5.83,16.36,16.36,0,0,1,16.11,0,14.7,14.7,0,0,1,5.58,5.83,17.12,17.12,0,0,1,2,8.25,17.12,17.12,0,0,1-2,8.25A14.7,14.7,0,0,1,255,49.58a16.36,16.36,0,0,1-16.11,0Zm13.2-4a10.38,10.38,0,0,0,3.83-4,12.29,12.29,0,0,0,1.44-6,12.33,12.33,0,0,0-1.44-6.05,10.42,10.42,0,0,0-3.83-4A9.93,9.93,0,0,0,246.9,24a9.79,9.79,0,0,0-5.09,1.42,10.37,10.37,0,0,0-3.84,4,12.33,12.33,0,0,0-1.44,6.05,12.29,12.29,0,0,0,1.44,6,10.33,10.33,0,0,0,3.84,4A9.87,9.87,0,0,0,246.9,47,10,10,0,0,0,252.06,45.56Z"/><path class="cls-1" d="M272.18,62.31a13.12,13.12,0,0,1-4.72-6.13l4.84-2a8.79,8.79,0,0,0,3.29,4.39,9.41,9.41,0,0,0,5.61,1.69q4.85,0,7.46-2.82c1.74-1.87,2.6-4.49,2.6-7.86V46.3H291a11.5,11.5,0,0,1-4.23,3.86,12.63,12.63,0,0,1-6.26,1.54,13.16,13.16,0,0,1-7.18-2.1,15,15,0,0,1-5.28-5.79,17.4,17.4,0,0,1-2-8.31,17.47,17.47,0,0,1,2-8.32,15.09,15.09,0,0,1,5.28-5.79,13.23,13.23,0,0,1,7.18-2.09,12.73,12.73,0,0,1,6.26,1.53A11.52,11.52,0,0,1,291,24.7h.24V20.28h5V49.49a17.21,17.21,0,0,1-2,8.53,12.54,12.54,0,0,1-5.37,5.21A16.81,16.81,0,0,1,281.2,65,14.57,14.57,0,0,1,272.18,62.31Zm14.11-16.73a10.06,10.06,0,0,0,3.66-4,12.84,12.84,0,0,0,1.37-6.11A13,13,0,0,0,290,29.36a9.83,9.83,0,0,0-3.66-4,9.55,9.55,0,0,0-5-1.36,9.41,9.41,0,0,0-5,1.39,10.14,10.14,0,0,0-3.65,4,12.81,12.81,0,0,0-1.38,6.11,12.84,12.84,0,0,0,1.38,6.11,10.11,10.11,0,0,0,3.65,4,9.58,9.58,0,0,0,9.94,0Z"/><path class="cls-1" d="M303.29,6.78h5.21V50.71h-5.21Z"/><path class="cls-1" d="M320.87,49.61a14.59,14.59,0,0,1-5.43-5.77,17.41,17.41,0,0,1-2-8.34,18,18,0,0,1,1.85-8.13,14.38,14.38,0,0,1,5.24-5.89,14.23,14.23,0,0,1,7.83-2.18,14.86,14.86,0,0,1,7.76,2,13.1,13.1,0,0,1,5.12,5.62,18.6,18.6,0,0,1,1.78,8.34,4.41,4.41,0,0,1-.12,1.23H318.75a11.31,11.31,0,0,0,1.66,5.8,9.93,9.93,0,0,0,3.83,3.53A10.51,10.51,0,0,0,329,47q5.78,0,8.9-5.64l4.6,2.21a15.86,15.86,0,0,1-5.43,5.92,16.24,16.24,0,0,1-16.2.15Zm16.66-17.49a9.7,9.7,0,0,0-1-3.68,7.93,7.93,0,0,0-3-3.13A9.72,9.72,0,0,0,328.26,24a8.74,8.74,0,0,0-5.95,2.21,10,10,0,0,0-3.19,5.89Z"/><path class="cls-1" d="M363,6.78h13.32a23.92,23.92,0,0,1,11.78,2.79,19.27,19.27,0,0,1,7.73,7.77,23.49,23.49,0,0,1,2.7,11.41,23.52,23.52,0,0,1-2.7,11.41,19.25,19.25,0,0,1-7.73,7.76,23.92,23.92,0,0,1-11.78,2.79H363Zm13.32,39q7.79,0,12.33-4.47t4.54-12.52q0-8-4.54-12.52t-12.33-4.48h-8.1v34Z"/><path class="cls-1" d="M410.33,49.61a14.59,14.59,0,0,1-5.43-5.77,17.41,17.41,0,0,1-2-8.34,18,18,0,0,1,1.84-8.13A14.38,14.38,0,0,1,410,21.48a14.23,14.23,0,0,1,7.83-2.18,14.86,14.86,0,0,1,7.76,2,13.1,13.1,0,0,1,5.12,5.62,18.6,18.6,0,0,1,1.78,8.34,4.41,4.41,0,0,1-.12,1.23H408.21a11.21,11.21,0,0,0,1.66,5.8,9.93,9.93,0,0,0,3.83,3.53A10.51,10.51,0,0,0,418.46,47q5.76,0,8.9-5.64l4.6,2.21a15.86,15.86,0,0,1-5.43,5.92,16.24,16.24,0,0,1-16.2.15ZM427,32.12a9.72,9.72,0,0,0-1.05-3.68,7.84,7.84,0,0,0-3-3.13A9.72,9.72,0,0,0,417.72,24a8.74,8.74,0,0,0-6,2.21,10,10,0,0,0-3.19,5.89Z"/><path class="cls-1" d="M433.74,20.28h5.64l9.33,24.3h.12l9.45-24.3h5.52L451.35,50.71h-5.28Z"/><path class="cls-1" d="M473.34,49.61a14.59,14.59,0,0,1-5.43-5.77,17.52,17.52,0,0,1-2-8.34,18,18,0,0,1,1.84-8.13A14.47,14.47,0,0,1,473,21.48a14.22,14.22,0,0,1,7.82-2.18,14.84,14.84,0,0,1,7.76,2,13.12,13.12,0,0,1,5.13,5.62,18.74,18.74,0,0,1,1.78,8.34,4.32,4.32,0,0,1-.13,1.23H471.23a11.21,11.21,0,0,0,1.65,5.8,10,10,0,0,0,3.84,3.53A10.47,10.47,0,0,0,481.47,47q5.77,0,8.9-5.64l4.6,2.21a15.86,15.86,0,0,1-5.43,5.92,16.24,16.24,0,0,1-16.2.15ZM490,32.12a9.52,9.52,0,0,0-1-3.68,7.86,7.86,0,0,0-3-3.13A9.69,9.69,0,0,0,480.74,24a8.72,8.72,0,0,0-5.95,2.21,10,10,0,0,0-3.19,5.89Z"/><path class="cls-1" d="M500.8,6.78H506V50.71H500.8Z"/><path class="cls-1" d="M518.53,49.58A14.76,14.76,0,0,1,513,43.75a17.12,17.12,0,0,1-2-8.25,17.12,17.12,0,0,1,2-8.25,14.76,14.76,0,0,1,5.55-5.83,16.36,16.36,0,0,1,16.11,0,14.7,14.7,0,0,1,5.58,5.83,17.12,17.12,0,0,1,2,8.25,17.12,17.12,0,0,1-2,8.25,14.7,14.7,0,0,1-5.58,5.83,16.36,16.36,0,0,1-16.11,0Zm13.2-4a10.38,10.38,0,0,0,3.83-4,12.29,12.29,0,0,0,1.44-6,12.33,12.33,0,0,0-1.44-6.05,10.42,10.42,0,0,0-3.83-4A9.93,9.93,0,0,0,526.57,24a9.79,9.79,0,0,0-5.09,1.42,10.28,10.28,0,0,0-3.83,4,12.23,12.23,0,0,0-1.45,6.05,12.19,12.19,0,0,0,1.45,6,10.24,10.24,0,0,0,3.83,4A9.87,9.87,0,0,0,526.57,47,10,10,0,0,0,531.73,45.56Z"/><path class="cls-1" d="M547,20.28h5v4.48h.24a11.77,11.77,0,0,1,4.23-3.9,12.79,12.79,0,0,1,6.39-1.56A13.08,13.08,0,0,1,570,21.42a15.24,15.24,0,0,1,5.28,5.79,17.35,17.35,0,0,1,2,8.29,17.28,17.28,0,0,1-2,8.28,15.2,15.2,0,0,1-5.28,5.8,13.16,13.16,0,0,1-7.23,2.12,12.83,12.83,0,0,1-6.42-1.57,10.88,10.88,0,0,1-4.2-4h-.24l.24,4.24V64H547Zm20,25.28a10.18,10.18,0,0,0,3.68-4,12.72,12.72,0,0,0,1.38-6,12.76,12.76,0,0,0-1.38-6.05,10.22,10.22,0,0,0-3.68-4A9.33,9.33,0,0,0,562,24a9.53,9.53,0,0,0-5,1.38,9.91,9.91,0,0,0-3.69,4,13,13,0,0,0-1.37,6.11,13,13,0,0,0,1.37,6.07,9.87,9.87,0,0,0,3.69,4A9.53,9.53,0,0,0,562,47,9.41,9.41,0,0,0,567,45.56Z"/><path class="cls-1" d="M589.43,49.61A14.59,14.59,0,0,1,584,43.84a17.52,17.52,0,0,1-2-8.34,18,18,0,0,1,1.84-8.13,14.47,14.47,0,0,1,5.25-5.89A14.22,14.22,0,0,1,597,19.3a14.84,14.84,0,0,1,7.76,2,13.12,13.12,0,0,1,5.13,5.62,18.74,18.74,0,0,1,1.78,8.34,4.32,4.32,0,0,1-.13,1.23H587.32a11.21,11.21,0,0,0,1.65,5.8,10,10,0,0,0,3.84,3.53A10.47,10.47,0,0,0,597.56,47q5.78,0,8.9-5.64l4.6,2.21a15.86,15.86,0,0,1-5.43,5.92,16.24,16.24,0,0,1-16.2.15Zm16.66-17.49a9.52,9.52,0,0,0-1-3.68,7.86,7.86,0,0,0-3-3.13A9.69,9.69,0,0,0,596.83,24a8.72,8.72,0,0,0-6,2.21,10,10,0,0,0-3.19,5.89Z"/><path class="cls-1" d="M616.89,20.28h5v5h.25A8.18,8.18,0,0,1,625.63,21a9.75,9.75,0,0,1,5.31-1.72,10.12,10.12,0,0,1,3.56.61V25.5a8.72,8.72,0,0,0-4.29-.92,7,7,0,0,0-4,1.26,9,9,0,0,0-3,3.35,9.53,9.53,0,0,0-1.1,4.55v17h-5.22Z"/><path class="cls-1" d="M657.36,50.32a15.77,15.77,0,0,1-5.46-4,16,16,0,0,1-3.41-6.48l5-2a12.86,12.86,0,0,0,3.87,6.44,9.55,9.55,0,0,0,6.56,2.52,10.28,10.28,0,0,0,6.51-2.06A6.73,6.73,0,0,0,673,39.06,6.5,6.5,0,0,0,670.8,34a22.06,22.06,0,0,0-7.34-3.71l-2.76-1a22,22,0,0,1-7.61-4.36,9.64,9.64,0,0,1-2.94-7.48,10.47,10.47,0,0,1,1.72-5.8,12.28,12.28,0,0,1,4.75-4.26,14.44,14.44,0,0,1,6.84-1.6,14.85,14.85,0,0,1,6.66,1.41,13.78,13.78,0,0,1,4.54,3.44,11.77,11.77,0,0,1,2.3,4l-4.85,2.08a8.42,8.42,0,0,0-8.52-5.95,9,9,0,0,0-5.77,1.9,5.87,5.87,0,0,0-2.39,4.79,5.13,5.13,0,0,0,2,4.2,20.63,20.63,0,0,0,6.14,3l2.82,1a24.54,24.54,0,0,1,8.74,5.06A10.92,10.92,0,0,1,678.31,39a11.4,11.4,0,0,1-2.18,7.11,12.77,12.77,0,0,1-5.49,4.24,18,18,0,0,1-6.87,1.35A15.57,15.57,0,0,1,657.36,50.32Z"/><path class="cls-1" d="M691,51.07a8.28,8.28,0,0,1-2.67-1.69,7.32,7.32,0,0,1-1.81-2.78,11,11,0,0,1-.58-3.78V25h-5.4V20.28h5.4V11.2h5.15v9.08h7.49V25h-7.49V41.58a6,6,0,0,0,1,3.89,3.74,3.74,0,0,0,3.19,1.38,6.25,6.25,0,0,0,3.31-.86v5a9.79,9.79,0,0,1-1.87.52,13.53,13.53,0,0,1-2.36.16A9,9,0,0,1,691,51.07Z"/><path class="cls-1" d="M706.69,48.44c-1.94-2.16-2.92-5.17-2.92-9V20.28H709V38.57q0,8.4,7.55,8.4a7.64,7.64,0,0,0,4.51-1.41,9.32,9.32,0,0,0,3.06-3.68,11,11,0,0,0,1.08-4.79V20.28h5.15V50.71h-4.91V46.17h-.24a10.88,10.88,0,0,1-4.08,3.93,11.48,11.48,0,0,1-5.86,1.6C711.49,51.7,708.63,50.61,706.69,48.44Z"/><path class="cls-1" d="M742.61,49.61a15,15,0,0,1-5.27-5.8,17.46,17.46,0,0,1-2-8.31,17.53,17.53,0,0,1,2-8.32,15,15,0,0,1,5.27-5.79,13.27,13.27,0,0,1,7.24-2.09,13,13,0,0,1,6.39,1.56,11.15,11.15,0,0,1,4.23,3.9h.25l-.25-4.17V6.78h5.16V50.71h-4.91V46.17h-.25a10.83,10.83,0,0,1-4.23,4,12.9,12.9,0,0,1-6.39,1.57A13.36,13.36,0,0,1,742.61,49.61Zm13-4a9.85,9.85,0,0,0,3.68-4,12.91,12.91,0,0,0,1.39-6.07,12.9,12.9,0,0,0-1.39-6.11,9.89,9.89,0,0,0-3.68-4,9.53,9.53,0,0,0-5-1.38,9.33,9.33,0,0,0-5,1.42,10.22,10.22,0,0,0-3.68,4,12.76,12.76,0,0,0-1.38,6.05,12.72,12.72,0,0,0,1.38,6,10.18,10.18,0,0,0,3.68,4,9.41,9.41,0,0,0,5,1.41A9.53,9.53,0,0,0,755.65,45.59Z"/><path class="cls-1" d="M778.05,49.61a14.59,14.59,0,0,1-5.43-5.77,17.41,17.41,0,0,1-2-8.34,18,18,0,0,1,1.84-8.13,14.38,14.38,0,0,1,5.24-5.89,14.23,14.23,0,0,1,7.83-2.18,14.86,14.86,0,0,1,7.76,2,13.1,13.1,0,0,1,5.12,5.62,18.6,18.6,0,0,1,1.78,8.34,4.41,4.41,0,0,1-.12,1.23H775.93a11.31,11.31,0,0,0,1.66,5.8,9.93,9.93,0,0,0,3.83,3.53A10.51,10.51,0,0,0,786.18,47q5.77,0,8.9-5.64l4.6,2.21a15.86,15.86,0,0,1-5.43,5.92,16.24,16.24,0,0,1-16.2.15Zm16.66-17.49a9.7,9.7,0,0,0-1-3.68,7.93,7.93,0,0,0-3-3.13A9.72,9.72,0,0,0,785.44,24a8.74,8.74,0,0,0-6,2.21,10,10,0,0,0-3.19,5.89Z"/><path class="cls-1" d="M805.51,20.28h5v4.54h.24a10.51,10.51,0,0,1,4-3.93,11.63,11.63,0,0,1,5.89-1.59c3.72,0,6.56,1.08,8.5,3.25s2.91,5.14,2.91,8.9V50.71h-5.15V32.25q0-8.23-7.67-8.23a7.33,7.33,0,0,0-4.42,1.42,9.26,9.26,0,0,0-3,3.68,11,11,0,0,0-1.08,4.78V50.71h-5.21Z"/><path class="cls-1" d="M845.67,51.07A8.07,8.07,0,0,1,843,49.38a7.32,7.32,0,0,1-1.81-2.78,11,11,0,0,1-.59-3.78V25h-5.4V20.28h5.4V11.2h5.16v9.08h7.48V25h-7.48V41.58a6.07,6.07,0,0,0,1,3.89A3.75,3.75,0,0,0,850,46.85,6.25,6.25,0,0,0,853.3,46v5a9.59,9.59,0,0,1-1.87.52,13.53,13.53,0,0,1-2.36.16A9,9,0,0,1,845.67,51.07Z"/><path class="cls-1" d="M881.16,48.69A21.64,21.64,0,0,1,873,40.41a23.29,23.29,0,0,1-3-11.66,23.26,23.26,0,0,1,3-11.66,21.57,21.57,0,0,1,8.19-8.28,22.64,22.64,0,0,1,11.54-3,21.43,21.43,0,0,1,9,1.87,20.29,20.29,0,0,1,7,5.31l-3.68,3.62a15.65,15.65,0,0,0-5.49-4.42,16.24,16.24,0,0,0-6.9-1.41A17.56,17.56,0,0,0,884,13a16.68,16.68,0,0,0-6.35,6.32,18.51,18.51,0,0,0-2.36,9.42,18.51,18.51,0,0,0,2.36,9.42A16.75,16.75,0,0,0,884,44.49a17.56,17.56,0,0,0,8.72,2.24,17.26,17.26,0,0,0,13.62-6.57l3.74,3.68a21.4,21.4,0,0,1-7.49,5.74,23.81,23.81,0,0,1-21.41-.89Z"/><path class="cls-1" d="M915.15,6.78h5.22V50.71h-5.22Z"/><path class="cls-1" d="M930,48.44q-2.91-3.24-2.91-9V20.28h5.21V38.57q0,8.4,7.55,8.4a7.62,7.62,0,0,0,4.51-1.41,9.34,9.34,0,0,0,3.07-3.68,11,11,0,0,0,1.07-4.79V20.28h5.16V50.71h-4.91V46.17h-.25a10.88,10.88,0,0,1-4.08,3.93,11.45,11.45,0,0,1-5.86,1.6Q933,51.7,930,48.44Z"/><path class="cls-1" d="M970.16,50.13a10.88,10.88,0,0,1-4.2-4h-.25v4.54h-5V6.78H966V20.59l-.25,4.17H966a11.77,11.77,0,0,1,4.23-3.9,12.75,12.75,0,0,1,6.38-1.56,13.11,13.11,0,0,1,7.24,2.12,15.24,15.24,0,0,1,5.28,5.79,17.35,17.35,0,0,1,2,8.29,17.28,17.28,0,0,1-2,8.28,15.2,15.2,0,0,1-5.28,5.8,13.19,13.19,0,0,1-7.24,2.12A12.82,12.82,0,0,1,970.16,50.13Zm10.62-4.57a10.18,10.18,0,0,0,3.68-4,12.72,12.72,0,0,0,1.38-6,12.76,12.76,0,0,0-1.38-6.05,10.22,10.22,0,0,0-3.68-4,9.36,9.36,0,0,0-5-1.42,9.59,9.59,0,0,0-5,1.38,10,10,0,0,0-3.68,4,12.9,12.9,0,0,0-1.38,6.11,12.9,12.9,0,0,0,1.38,6.07,9.92,9.92,0,0,0,3.68,4,9.59,9.59,0,0,0,5,1.38A9.44,9.44,0,0,0,980.78,45.56Z"/><path class="cls-1" d="M998.54,49.24a13,13,0,0,1-4.72-6.07l4.6-2a9.84,9.84,0,0,0,3.46,4.42,8.49,8.49,0,0,0,4.88,1.53,8.6,8.6,0,0,0,4.88-1.28,3.73,3.73,0,0,0,1.93-3.13,3.64,3.64,0,0,0-1.44-3,13.09,13.09,0,0,0-4.94-2L1003,36.66a13.51,13.51,0,0,1-5.86-2.88,6.91,6.91,0,0,1-2.42-5.52,7.53,7.53,0,0,1,1.62-4.85,10.09,10.09,0,0,1,4.33-3.07,16.31,16.31,0,0,1,5.89-1,14.34,14.34,0,0,1,7.15,1.81,10.17,10.17,0,0,1,4.57,5.12l-4.6,2a6.56,6.56,0,0,0-3-3.26,9.51,9.51,0,0,0-4.45-1,8.16,8.16,0,0,0-4.32,1.17,3.43,3.43,0,0,0-1.94,3,2.94,2.94,0,0,0,1.26,2.52,12.6,12.6,0,0,0,4,1.66l4.54,1.1a14.15,14.15,0,0,1,6.78,3.47,7.6,7.6,0,0,1,2.24,5.49,8,8,0,0,1-1.53,4.78,10.27,10.27,0,0,1-4.3,3.38,15.24,15.24,0,0,1-6.26,1.23A13.58,13.58,0,0,1,998.54,49.24Z"/><path class="cls-2" d="M28.84,29.42,48.5,18.06A9.67,9.67,0,1,0,38.83,1.3l-34,19.62Z"/><path class="cls-3" d="M43.66,58.6A9.68,9.68,0,0,0,48.5,40.54l-34-19.62A9.68,9.68,0,0,0,4.84,37.68l34,19.62A9.63,9.63,0,0,0,43.66,58.6Z"/><path class="cls-4" d="M77.46,58.6a9.6,9.6,0,0,0,4.83-1.3l34-19.62L92.59,29l-20,11.53A9.68,9.68,0,0,0,77.46,58.6Z"/><path class="cls-5" d="M111.43,39a9.68,9.68,0,0,0,4.85-18.06L82.29,1.3a9.67,9.67,0,1,0-9.67,16.76l34,19.62A9.66,9.66,0,0,0,111.43,39Z"/><text class="cls-6" transform="translate(149.43 114.27)">FET<tspan class="cls-7" x="69.59" y="0"> </tspan><tspan x="76.99" y="0">Jain</tspan><tspan class="cls-8" x="155.65" y="0"> </tspan><tspan x="164.77" y="0">Uni</tspan><tspan class="cls-9" x="226.4" y="0">v</tspan><tspan x="247.34" y="0">e</tspan><tspan class="cls-10" x="271" y="0">r</tspan><tspan class="cls-11" x="285.88" y="0">si</tspan><tspan class="cls-12" x="315" y="0">t</tspan><tspan x="330.61" y="0">y - Be</tspan><tspan class="cls-13" x="440.75" y="0">ng</tspan><tspan x="489.44" y="0">aluru</tspan></text></g></g></svg>