<svg width="1440" height="384" viewBox="0 0 1440 384" fill="none" xmlns="http://www.w3.org/2000/svg">
<mask id="mask0_12_240" style="mask-type:alpha" maskUnits="userSpaceOnUse" x="0" y="0" width="1440" height="384">
<rect width="1440" height="384" rx="20" fill="#EDF0F9"/>
</mask>
<g mask="url(#mask0_12_240)">
<rect y="-2" width="1440" height="388" rx="20" fill="#FFFAFA"/>
<g opacity="0.5" filter="url(#filter0_f_12_240)">
<ellipse cx="1033.97" cy="260.5" rx="280.918" ry="227.5" fill="#FFDCED"/>
</g>
<g opacity="0.5" filter="url(#filter1_f_12_240)">
<ellipse cx="375.344" cy="176.5" rx="280.918" ry="227.5" fill="#A7F9EA"/>
</g>
<ellipse cx="426.741" cy="10.5442" rx="49.0358" ry="41.5442" fill="#BEF3EA"/>
<ellipse opacity="0.7" cx="915.396" cy="228.544" rx="49.0358" ry="41.5442" fill="#FFDBEC"/>
<path d="M-428.783 3.23936C-436.921 57.2268 -393.203 137.618 -153.223 27.2847C146.752 -110.632 275.8 26.208 285.639 208.853C293.51 354.969 374.565 331.177 414.108 301.016" stroke="white" stroke-width="4"/>
<path d="M1176.63 313.949C1152.56 286.778 1114.7 223.228 1155.86 186.389C1207.31 140.339 1451.91 128.92 1332.41 -105" stroke="white" stroke-width="3"/>
</g>
<defs>
<filter id="filter0_f_12_240" x="553.049" y="-167" width="961.836" height="855" filterUnits="userSpaceOnUse" color-interpolation-filters="sRGB">
<feFlood flood-opacity="0" result="BackgroundImageFix"/>
<feBlend mode="normal" in="SourceGraphic" in2="BackgroundImageFix" result="shape"/>
<feGaussianBlur stdDeviation="100" result="effect1_foregroundBlur_12_240"/>
</filter>
<filter id="filter1_f_12_240" x="-105.574" y="-251" width="961.836" height="855" filterUnits="userSpaceOnUse" color-interpolation-filters="sRGB">
<feFlood flood-opacity="0" result="BackgroundImageFix"/>
<feBlend mode="normal" in="SourceGraphic" in2="BackgroundImageFix" result="shape"/>
<feGaussianBlur stdDeviation="100" result="effect1_foregroundBlur_12_240"/>
</filter>
</defs>
</svg>
