<svg width="47" height="47" viewBox="0 0 47 47" fill="none" xmlns="http://www.w3.org/2000/svg">
<path d="M36.862 20.6436C33.1057 20.6436 30.3043 19.7205 28.458 17.8741C26.548 16.0278 25.593 13.5448 25.593 10.4251C25.593 7.43279 26.548 4.94979 28.458 2.97613C30.368 1.00246 32.7873 0.0156247 35.716 0.015625C38.6447 0.0156253 41.1277 1.25713 43.165 3.74013C45.2023 6.28679 46.221 9.97946 46.221 14.8181C46.221 20.2935 45.457 25.164 43.929 29.4296C42.3373 33.759 40.109 37.3243 37.244 40.1256C34.3153 42.9906 30.8137 44.9961 26.739 46.1421C26.4207 46.2695 26.166 46.3013 25.975 46.2376C25.784 46.2376 25.6567 46.1421 25.593 45.9511C25.5293 45.7601 25.5612 45.5691 25.6885 45.3781C25.8158 45.1871 26.0068 45.0598 26.2615 44.9961C30.0815 43.7865 33.2012 41.9083 35.6205 39.3616C37.9762 36.8786 39.727 34.141 40.873 31.1486C41.9553 28.22 42.4965 25.4823 42.4965 22.9356C42.4965 22.2353 42.3373 21.6623 42.019 21.2166C41.637 20.8346 41.0322 20.6436 40.2045 20.6436H36.862ZM11.65 20.7391C7.95732 20.7391 5.18782 19.816 3.34149 17.9696C1.43149 16.1233 0.476489 13.6403 0.476489 10.5206C0.476489 7.52829 1.43149 5.04528 3.34149 3.07162C5.25149 1.09796 7.63899 0.111127 10.504 0.111127C13.4327 0.111128 15.9157 1.35262 17.953 3.83562C19.9903 6.38229 21.009 10.0431 21.009 14.8181C21.009 20.3571 20.245 25.2595 18.717 29.5251C17.189 33.8545 14.9925 37.4198 12.1275 40.2211C9.19882 43.0861 5.69715 45.0916 1.62248 46.2376C1.24048 46.365 0.953984 46.3968 0.762985 46.3331C0.571986 46.3331 0.444651 46.2376 0.380981 46.0466C0.380981 45.8556 0.444649 45.6646 0.571985 45.4736C0.635651 45.2826 0.82665 45.1235 1.14498 44.9961C4.90132 43.8501 7.98915 42.0038 10.4085 39.4571C12.8278 36.9105 14.6105 34.141 15.7565 31.1486C16.8388 28.22 17.38 25.5141 17.38 23.0311C17.38 22.3308 17.189 21.7578 16.807 21.3121C16.425 20.9301 15.8202 20.7391 14.9925 20.7391H11.65Z" fill="#7AA3F3"/>
</svg>
