<svg width="183" height="194" viewBox="0 0 183 194" fill="none" xmlns="http://www.w3.org/2000/svg">
<path d="M166.146 115.187C158.669 113.267 146.073 111.212 141.425 108.046C139.505 106.733 139.741 105.285 140.078 104.274C140.414 103.331 142.334 102.354 143.513 102.422C146.174 102.523 148.835 103.095 151.394 103.803C157.086 105.352 162.745 106.969 168.336 108.821C171.3 109.798 172.243 112.054 170.525 113.503C169.514 114.345 168.571 115.187 166.146 115.187Z" fill="#E85E56"/>
<path d="M48.2643 167.223C48.6011 165.438 49.2747 164.495 50.2514 163.114C54.0573 157.793 58.0316 152.572 61.9386 147.352C62.1743 147.049 62.4438 146.712 62.7469 146.476C64.0941 145.331 65.6097 143.984 67.3611 145.23C69.1125 146.51 68.5063 148.396 67.5632 149.911C63.6563 156.277 59.682 162.609 55.6403 168.907C55.0341 169.884 53.99 170.726 52.9459 171.231C50.3525 172.477 48.0622 170.76 48.2643 167.223Z" fill="#E85E56"/>
<path d="M132.432 166.046C132.432 167.561 131.253 168.639 130.378 168.807C129.199 169.043 128.188 168.841 126.504 167.696C125.932 167.325 125.595 166.416 125.258 165.709C122.799 160.387 120.307 155.099 117.916 149.744C117.31 148.431 116.703 146.915 116.804 145.534C116.905 144.288 117.68 142.503 118.69 142.065C119.667 141.627 120.981 141.492 122.53 143.008C123.103 143.547 123.641 144.456 124.012 145.298C126.437 150.923 128.862 156.548 131.22 162.206C131.657 163.284 131.927 164.463 132.432 166.046Z" fill="#E85E56"/>
<path d="M25.53 119.633C23.9807 119.196 22.9702 118.455 22.7345 117.444C22.4314 116.164 23.0713 114.447 23.8123 113.234C24.3848 112.325 25.6984 111.752 26.8098 111.382C32.3671 109.529 37.9581 107.711 43.5827 105.993C44.5258 105.69 45.7383 105.589 46.6477 105.892C48.1296 106.397 48.7695 107.576 47.557 108.99C46.8834 109.799 46.1088 110.641 45.1994 111.079C39.9452 113.706 34.6574 116.232 29.3359 118.724C28.3591 119.162 27.0456 120.105 25.53 119.633Z" fill="#E85E56"/>
<path d="M139.64 61.8376C138.899 61.5345 138.259 60.322 138.225 59.5137C138.191 58.4022 138.528 57.055 139.202 56.1456C142.334 51.8345 145.635 47.5908 148.902 43.3807C149.373 42.7408 150.013 42.2356 150.653 41.7303C152.101 40.6189 153.988 39.6421 155.267 41.3262C156.008 42.3029 156.244 44.7953 155.537 45.6373C151.226 50.8915 146.578 55.9099 141.964 60.9283C141.593 61.3661 140.852 62.0734 139.64 61.8376Z" fill="#E85E56"/>
<path d="M31.6598 54.5288C33.5459 55.1014 34.9941 55.4382 36.375 55.9434C40.383 57.3917 44.391 58.8736 48.3653 60.3892C49.4768 60.8271 50.6556 61.2649 51.565 61.9722C52.2049 62.4774 52.9122 63.7573 52.6764 64.2288C52.2723 65.0035 51.666 65.9802 50.2851 65.8791C49.7125 65.8455 48.9716 65.8118 48.3316 65.6434C43.8184 64.4309 39.3053 63.2857 34.8257 61.9385C33.3101 61.5007 31.7271 60.8608 30.5146 59.884C29.6389 59.1767 28.8306 57.5937 29.0664 56.6507C29.2684 55.775 30.0094 54.5288 31.6598 54.5288Z" fill="#E85E56"/>
<path d="M93.2954 40.5848C93.2617 40.9889 93.228 41.3931 93.0933 41.7636C92.5208 43.4139 92.1503 45.2664 89.8263 45.0979C87.3676 44.9295 87.2666 42.9087 87.3003 41.2584C87.4013 37.2841 87.7718 33.3098 88.0749 29.3018C88.2096 27.8535 88.378 26.3716 88.7822 24.9907C89.1864 23.5761 89.7589 22.1278 91.7124 22.3636C93.5312 22.5993 94.1374 23.8118 94.1711 25.4285C94.1711 27.1799 93.6322 37.2841 93.2954 40.5848Z" fill="#E85E56"/>
<path d="M114.002 78.2054C113.598 82.1934 113.308 85.5194 112.904 88.8293C112.678 90.6376 111.935 92.2038 109.901 92.6397C108.206 92.9949 106.446 92.0585 105.429 89.9757C104.444 87.9736 103.733 85.8262 102.991 83.7111C100.843 77.6403 97.5333 72.2475 93.4323 67.3231C92.1568 65.7892 90.8974 64.2554 89.4281 62.4793C89.1052 63.5611 88.8469 64.433 88.5885 65.3048C85.8438 74.7824 84.9073 84.4376 85.3271 94.2705C85.4562 97.4512 85.0849 100.697 84.6328 103.861C84.3422 105.895 83.5833 107.962 81.1292 108.414C79.3693 108.737 77.6255 107.284 76.5599 104.636C75.8495 102.86 75.3812 100.971 74.7354 99.1626C74.3802 98.1455 73.8635 97.1929 73.3953 96.1272C67.4698 103.328 71.9906 127.079 79.8859 130.55C79.9182 124.189 82.8406 118.925 86.2958 113.952C91.188 106.913 93.8521 99.1304 94.7401 90.6699C94.8047 90.0402 94.9339 89.3944 95.0469 88.7809C95.5958 85.9069 96.7745 85.4387 98.9219 87.5699C100.31 88.9423 101.537 90.6376 102.345 92.3975C106.349 101.019 108.012 109.964 105.299 119.361C104.993 120.394 104.298 121.848 104.815 122.59C105.719 123.72 107.14 121.783 107.447 120.992C108.254 118.909 108.755 116.729 109.401 114.582C109.804 113.242 110.046 111.773 110.773 110.61C111.338 109.706 112.565 108.592 113.405 108.673C114.277 108.753 115.488 109.996 115.778 110.965C117.909 118.182 116.908 124.786 110.256 130.389C106.833 133.279 102.619 134.215 98.3083 134.78C93.4484 135.41 88.6531 135.604 83.7771 134.49C81.4521 133.957 79.0302 133.602 77.6255 133.085C76.2208 132.568 75.026 131.519 74.4609 130.647C67.276 119.555 66.0974 107.865 71.151 95.6106C72.2005 93.0757 74.2187 92.5429 75.9948 94.6418C77.3026 96.1918 78.0453 98.2746 78.8687 100.212C79.4339 101.568 79.7406 103.038 80.1281 104.458C80.6125 106.235 81.3229 106.509 81.8073 106.202C82.4047 106.025 82.7599 103.877 82.6953 101.73C82.5823 98.1939 82.6469 94.6418 82.2755 91.1382C81.1937 80.8694 83.6964 71.2465 87.3453 61.8173C88.2495 59.46 89.2828 59.1694 91.2203 60.8163C99.1641 67.5491 104.896 75.7512 107.495 85.9554C107.899 87.5054 108.028 89.2491 109.998 90.4762C110.192 88.9746 110.353 87.7314 110.531 86.5043C110.983 83.4689 111.273 80.4012 111.952 77.4304C112.371 75.6382 113.615 75.2668 114.922 76.5585C116.634 78.2538 118.313 80.1267 119.427 82.2418C123.577 90.1533 124.997 98.7429 124.965 107.591C124.933 114.55 123.641 121.299 120.444 127.515C119.362 129.63 117.538 131.374 115.988 133.23C115.294 134.07 113.711 133.795 114.438 131.923C114.503 131.761 114.583 131.567 114.696 131.406C120.703 123.349 121.3 113.92 121.381 104.426C121.445 96.8538 120.347 89.4267 116.811 82.5809C116.069 81.1762 115.116 79.9168 114.002 78.2054ZM113.13 111.32C112.178 114.485 111.435 117.101 110.579 119.7C109.901 121.751 108.868 123.607 106.833 124.625C104.476 125.819 102.183 124.495 102.054 121.848C102.006 120.766 102.054 119.652 102.264 118.602C103.911 110.174 103.136 102.004 99.8422 94.0767C99.2771 92.7205 98.4536 91.4772 97.6302 89.9918C97.3396 90.4762 97.1297 92.2361 97.0974 92.9949C96.8875 98.7429 96.2417 104.426 93.2224 109.496C91.4141 112.515 89.3797 115.405 87.4099 118.344C85.2302 121.621 83.2927 125.012 82.5823 128.952C82.0979 131.648 82.3078 131.777 84.8911 132.439C90.3646 133.828 95.725 132.94 101.069 131.874C107.156 130.663 110.951 126.659 113.211 121.137C114.454 118.118 114.099 114.986 113.13 111.32Z" fill="#E85E56"/>
</svg>
