<svg width="120" height="143" viewBox="0 0 120 143" fill="none" xmlns="http://www.w3.org/2000/svg">
    <path d="M96.2474 39.3258C96.4124 38.869 96.55 38.4978 96.6589 38.0985C97.1739 36.0173 97.0355 33.9723 96.5554 31.8746C95.8663 28.9552 94.5555 26.3274 92.9337 23.8456C90.2408 19.7564 86.8165 16.3015 82.9436 13.3636C77.2059 8.99849 70.858 5.89149 63.9554 3.9282C60.0764 2.83802 56.1741 2.17449 52.1678 2.30814C50.7187 2.35405 49.2997 2.54174 47.8814 2.78626C47.0589 2.93832 46.2679 3.34582 45.4762 3.69648C45.1934 3.8136 44.9105 3.93071 44.6804 3.70609C44.5359 3.50885 44.39 3.19794 44.3873 2.97057C44.4092 2.43022 44.7742 2.05629 45.2269 1.88027C46.1316 1.4714 47.0068 0.977602 47.971 0.795409C49.5304 0.463907 51.1199 0.274166 52.7396 0.226187C55.807 0.0186057 58.9101 0.407524 61.9316 1.1101C72.479 3.5979 81.7197 8.51762 89.4586 16.1843C92.911 19.6105 95.7436 23.499 97.5326 28.0539C99.0872 32.0431 99.7325 36.0432 98.1348 40.2695C98.4499 40.4646 98.7642 40.603 99.0505 40.7701C102.798 42.743 106.379 45.0591 109.597 47.8628C112.728 50.5822 115.465 53.6475 117.329 57.3772C117.912 58.564 118.382 59.809 118.738 61.0554C120.376 67.2039 118.053 72.5759 112.519 75.7127C110.515 76.8455 108.363 77.5536 106.124 78.0639C101.758 79.0262 97.3249 79.1366 92.8871 78.8491C91.664 78.7785 90.4682 78.6224 89.2163 78.5238C88.9602 78.4985 88.7328 78.5013 88.363 78.4773C88.4815 78.8738 88.5712 79.2423 88.6603 79.5539C89.5773 82.5274 90.0123 85.5921 89.6234 88.6952C89.1584 92.5666 87.5786 95.9115 84.6544 98.5619C82.9108 100.118 80.9624 101.193 78.7545 101.959C75.2728 103.166 71.6664 103.466 67.9977 103.311C67.5142 103.288 67.0307 103.266 66.4616 103.216C66.4664 103.614 66.4993 103.983 66.5034 104.324C66.6589 107.79 65.9591 111.039 63.8902 113.906C62.409 115.999 60.4373 117.501 58.1486 118.637C55.21 120.094 52.12 120.785 48.8827 121.052C44.3963 121.447 39.9571 121.046 35.5679 120.075C35.2262 120.023 34.8557 119.942 34.4284 119.862C34.4619 120.288 34.4941 120.6 34.527 120.969C34.9702 124.716 35.2429 128.465 34.9471 132.221C34.8259 133.956 34.5623 135.665 34.2418 137.374C34.0295 138.627 33.5611 139.855 32.8352 140.944C32.3052 141.775 31.7977 142.122 31.004 142.302C31.0033 142.245 30.9738 142.161 30.9738 142.161C31.9018 141.325 32.3147 140.211 32.6133 139.042C33.0748 137.246 33.2234 135.425 33.2583 133.605C33.3725 128.942 32.9752 124.285 32.3225 119.66C32.293 119.575 32.2636 119.49 32.2327 119.291C31.9759 119.209 31.6903 119.099 31.3767 119.017C23.7878 116.721 16.8653 113.11 10.7222 108.124C7.44992 105.492 4.54268 102.485 2.45176 98.8152C1.69703 97.5167 1.14091 96.1875 0.753934 94.7424C0.484762 93.6371 0.386117 92.5297 0.514841 91.4196C0.854463 88.9425 2.19809 87.2207 4.51832 86.34C6.13112 85.7236 7.77953 85.7037 9.48755 85.9105C12.9892 86.3514 16.1039 87.7066 18.9981 89.6331C25.4179 93.9899 29.725 99.9356 31.8332 107.386C32.6647 110.332 33.1852 113.424 33.8468 116.429C33.9078 116.77 33.9688 117.11 34.0297 117.45C34.1441 117.506 34.2016 117.562 34.2872 117.589C39.5044 118.862 44.7983 119.424 50.162 118.705C53.1985 118.299 56.0598 117.497 58.6834 115.845C62.9992 113.093 65.0461 108.406 64.242 103.015C63.9571 102.962 63.5866 102.881 63.2449 102.828C56.495 101.744 50.1588 99.6037 44.2889 96.0645C41.8549 94.5874 39.5894 92.9376 37.6594 90.829C36.5363 89.6203 35.4973 88.3253 34.9104 86.7974C34.559 85.9489 34.2919 85.0141 34.2241 84.1053C34.0282 82.0042 35.0876 80.2859 37.0092 79.3531C38.1118 78.8565 39.2747 78.6435 40.4684 78.6291C42.5147 78.6044 44.5097 79.0351 46.4225 79.7227C50.9329 81.3169 54.8016 83.9137 58.1396 87.2845C61.8804 91.0483 64.6048 95.3929 65.9184 100.607C65.9479 100.692 65.9773 100.777 66.0362 100.947C66.2924 100.972 66.5773 101.026 66.8334 101.051C69.8207 101.271 72.8326 101.178 75.7809 100.517C78.0772 100.006 80.1988 99.1557 82.1149 97.7682C84.7358 95.8889 86.3821 93.3392 87.1121 90.232C87.7085 87.8371 87.7359 85.3922 87.2516 82.9535C86.979 81.5639 86.5366 80.2333 86.179 78.8732C86.0297 78.2781 85.6572 78.0267 85.0305 77.9206C80.7585 77.2331 76.5959 76.2032 72.5149 74.8596C66.2657 72.86 60.2088 70.318 54.6238 66.8323C51.9029 65.1312 49.3785 63.2287 47.2178 60.8387C46.1515 59.6293 45.2262 58.3329 44.7242 56.7755C43.9263 54.2553 44.9521 52.111 47.4134 51.1433C48.0921 50.8509 48.829 50.6714 49.5672 50.6056C50.7315 50.5063 51.8683 50.4926 53.0065 50.5925C55.5391 50.8178 58.0203 51.4985 60.3906 52.4079C68.7286 55.5477 75.8655 60.436 81.6615 67.2734C83.7956 69.8059 85.6201 72.5979 87.0206 75.5941C87.2247 76.018 87.4275 76.3283 87.9966 76.3782C92.5515 76.9486 97.0749 77.2635 101.646 76.782C104.258 76.523 106.81 76.0374 109.243 75.0984C110.658 74.5697 112.014 73.8711 113.197 72.9472C116.267 70.6077 117.594 67.5218 117.292 63.688C117.06 60.9336 115.978 58.4736 114.529 56.1602C112.587 53.0853 110.084 50.5289 107.242 48.2607C104.314 45.9083 101.164 43.9566 97.8178 42.2631C97.6459 42.1514 97.4747 42.0966 97.2466 42.0425C97.0782 42.2151 96.909 42.3309 96.7974 42.5028C95.3421 44.3964 93.5109 45.7545 91.2749 46.549C89.8032 47.0784 88.2739 47.5517 86.7419 47.7976C80.188 48.8147 73.8662 47.8677 67.8073 45.1552C66.4068 44.5183 65.061 43.7102 63.968 42.6433C63.6228 42.3063 63.2776 41.9694 62.9605 41.6037C61.0847 39.267 61.5654 36.703 64.0472 35.0812C65.0909 34.4148 66.2517 34.0313 67.4427 33.7895C69.3136 33.3689 71.2456 33.2888 73.2077 33.3504C78.1269 33.49 82.9147 34.5123 87.5669 36.0764C90.1638 36.9262 92.6786 38.0329 95.2201 38.9971C95.5899 39.021 95.9043 39.1594 96.2474 39.3258ZM32.0327 116.849C31.8197 115.686 31.6368 114.665 31.4252 113.616C30.7307 110.242 29.9512 106.897 28.5205 103.759C25.7474 97.738 21.5684 92.9846 15.7594 89.7858C13.6131 88.5895 11.3011 87.7931 8.82603 87.624C7.63097 87.5247 6.46605 87.5672 5.30593 88.0076C3.66506 88.6527 2.65563 89.8019 2.53515 91.5942C2.48859 92.4475 2.49957 93.357 2.76531 94.1781C3.12077 95.3677 3.58992 96.5559 4.20014 97.6571C5.94314 100.763 8.36208 103.349 11.0618 105.647C16.9495 110.664 23.6447 114.279 31.0068 116.634C31.2917 116.688 31.6047 116.712 32.0327 116.849ZM84.9189 75.7332C84.8017 75.4504 84.7716 75.3086 84.6846 75.1675C83.521 72.9644 82.1602 70.9058 80.6021 68.9917C76.621 64.1506 71.827 60.2573 66.3612 57.225C62.6698 55.1945 58.8415 53.592 54.6824 52.8463C53.3435 52.6067 51.9499 52.5382 50.5857 52.5547C49.733 52.565 48.8831 52.8026 48.0627 53.1252C46.8745 53.5944 46.4602 54.5943 46.7876 55.8126C46.9369 56.4077 47.1992 56.9446 47.5184 57.4809C48.4183 59.0334 49.6558 60.2976 51.0057 61.4467C53.0452 63.2129 55.2525 64.7496 57.6276 66.057C65.9561 70.7603 74.8899 73.8076 84.2641 75.6558C84.4066 75.6825 84.6059 75.7085 84.9189 75.7332ZM63.9002 100.603C63.8399 100.32 63.8372 100.092 63.7495 99.8944C63.3968 98.9322 63.129 97.9406 62.6914 97.0078C60.1792 91.4099 56.1762 87.1092 51.0206 83.8741C48.5003 82.3127 45.8712 81.1506 42.9373 80.6459C41.5984 80.4063 40.2616 80.3371 38.9008 80.6378C36.6902 81.1761 35.7704 82.6938 36.3656 84.9038C36.693 86.1221 37.3882 87.1939 38.1675 88.1794C39.8427 90.3763 42.0233 92.0555 44.3436 93.534C50.1299 97.2163 56.4669 99.4138 63.1886 100.527C63.3599 100.581 63.5872 100.579 63.9002 100.603ZM95.3866 41.0133C95.1291 40.8742 94.9572 40.7626 94.814 40.6791C89.127 38.161 83.2202 36.271 77.0422 35.4644C74.4514 35.1261 71.8627 34.9584 69.2521 35.331C68.0885 35.4872 66.8983 35.7858 65.8237 36.2536C63.5049 37.2481 63.2413 38.9568 64.9972 40.7832C66.1197 41.9351 67.4655 42.7432 68.9228 43.3794C74.3236 45.7303 79.9339 46.6006 85.781 45.9047C87.9383 45.6512 90.0065 45.0862 91.9268 44.0397C93.254 43.313 94.4079 42.3611 95.3866 41.0133Z" fill="#494949" />
</svg>