<svg xmlns="http://www.w3.org/2000/svg" viewBox="0 0 452.07 308.73"><defs><style>.cls-1,.cls-10,.cls-11,.cls-15,.cls-16,.cls-17,.cls-18,.cls-21,.cls-22,.cls-24,.cls-4,.cls-5{fill:none;stroke-miterlimit:10;}.cls-1{stroke:#c3c8ff;}.cls-2{fill:#2376e5;}.cls-3{fill:#e84435;}.cls-4{stroke:#f3ba1a;stroke-width:4px;}.cls-5{stroke:#f4ba19;}.cls-6{fill:#e9a394;}.cls-7{fill:#f6ba17;}.cls-8{fill:#e37a82;}.cls-9{fill:#16005c;}.cls-10,.cls-11{stroke:#16005c;}.cls-10,.cls-18{stroke-width:2px;}.cls-11,.cls-22{stroke-width:0.5px;}.cls-12{fill:#9b1818;}.cls-13{fill:#fff;}.cls-14{fill:#db9b1b;}.cls-15{stroke:#5321d7;}.cls-16{stroke:#c4c6c5;}.cls-17,.cls-22{stroke:#1c145e;}.cls-18{stroke:#7079f1;}.cls-19{fill:#089d57;}.cls-20{fill:#97d367;}.cls-21{stroke:#059d56;}.cls-23{fill:#c3c8ff;}.cls-24{stroke:#fff;}.cls-25{fill:#ea4335;}.cls-26{fill:#4285f4;}.cls-27{fill:#fbbc04;}.cls-28{fill:#34a853;}</style></defs><g id="Layer_2" data-name="Layer 2"><g id="OBJECTS"><path class="cls-1" d="M49.38,283.65s-58-30.32-44-98.48,70.92-84.34,94.34-79.33c43.89,9.37-27.82,37-45-10.45C33.24,35.79,109.87-9.33,180.9,2.35c45.66,7.5,67.69,29.36,108.28,43.09,40.43,13.68,57.39-4.64,41.28-15.26-15.29-10.09-70.82,6.36-51.75,28.91,26.1,30.87,89-17,137.77,36.3s6.44,120.22-31.05,125.8-21.05-48.22,37.49-5.58-15.41,88.86-15.41,88.86"/><path class="cls-2" d="M4.26,300.21H452.07a0,0,0,0,1,0,0v4.26a4.26,4.26,0,0,1-4.26,4.26H4.26A4.26,4.26,0,0,1,0,304.47v0a4.26,4.26,0,0,1,4.26-4.26Z"/><path class="cls-2" d="M0,300.21H167.92a0,0,0,0,1,0,0v4.26a4.26,4.26,0,0,1-4.26,4.26H4.26A4.26,4.26,0,0,1,0,304.47v-4.26a0,0,0,0,1,0,0Z"/><path class="cls-3" d="M229.92,137.68c-19,36.5-40.34,51.37-40.34,51.37L208,218.48,240.2,185Z"/><path class="cls-3" d="M277,129l-47.09,8.71c-3,89.11-4.1,162.52-4.1,162.52h84.53S312.81,163.75,299.21,134Z"/><line class="cls-4" x1="271.55" y1="174.38" x2="294.49" y2="172.44"/><path class="cls-5" d="M261,155.23s14.57,99.38,1.9,139.59"/><path class="cls-5" d="M245.77,205a104.85,104.85,0,0,0,32.3,6.26c18.23.6,6.89,10.3-20.15,8.46"/><polygon class="cls-6" points="249.39 125.35 261.01 156.23 277.01 128.97 266.47 111.74 249.39 125.35"/><polygon class="cls-7" points="261.01 156.23 282.71 150.24 277.01 128.97 261.01 156.23"/><polygon class="cls-7" points="251.97 132.21 240.2 145.36 261.01 156.23 251.97 132.21"/><path class="cls-6" d="M208,218.48s6.88-14.34-7.89-32.81c-8.18-10.25-12-27.92-12-27.92l-12.3,1.87,11.27,58.86Z"/><polygon class="cls-6" points="173.35 139.29 168.31 143.87 175.04 149.82 153.96 149.46 153.51 156.69 175.86 159.62 188.16 157.75 173.35 139.29"/><polygon class="cls-6" points="177.03 150.56 156.8 142.22 155.5 145.81 172.38 152.91 177.03 150.56"/><path class="cls-3" d="M299.21,134s27.17,15.48,35.76,73.44L303.44,215Z"/><polygon class="cls-6" points="240.18 87.61 229.92 113.88 237.77 116.29 240.18 131.08 265.24 125.35 268.86 85.2 240.18 87.61"/><polygon class="cls-8" points="256.91 93.85 237.74 93.85 239.83 88.19 256.91 87.14 256.91 93.85"/><path class="cls-9" d="M266.92,105.84s-12.23-2.53-12.23-15.18c0,0-18.14,2.47-24.4-7.38-7.42-11.66,3.92-25.06,13.28-22.34,0,0-5.9,5.85,3.06,6.53,6.39.49,18.07-8,22.23.21,0,0,32.16,7.35,8.15,37.31Z"/><path class="cls-10" d="M254.69,89.66S230.45,94.34,225.38,77c-3-10.17,7.22-16,7.22-16"/><circle class="cls-11" cx="244.43" cy="103.89" r="9.15"/><line class="cls-11" x1="253.09" y1="100.92" x2="266.13" y2="101.64"/><path class="cls-6" d="M282.71,108.14c0,5.67-7.59,10.26-13.26,10.26s-7.27-4.59-7.27-10.26a10.27,10.27,0,0,1,20.53,0Z"/><polygon class="cls-6" points="331.2 208.33 331.2 255.66 307.6 255.66 305.64 214.5 331.2 208.33"/><polygon class="cls-12" points="228.08 197.63 229.07 164.65 213.78 212.48 228.08 197.63"/><polygon class="cls-8" points="250.61 128.49 265.24 125.35 253.24 135.58 250.61 128.49"/><ellipse class="cls-9" cx="241.95" cy="104.49" rx="1.75" ry="3.65"/><path class="cls-9" d="M246.71,95.6c0-4.9-3.9-1.6-3.9-1.6Z"/><path class="cls-13" d="M242.81,117.27l5.58-1.48S250.77,136.47,242.81,117.27Z"/><path class="cls-14" d="M122.67,210s37.61-5.82,38.35,59.77c.12,10.64,6.9,30.48,6.9,30.48H133.83Z"/><path class="cls-7" d="M83.34,204.14l-22.73,5.37,6.94,90.7H156s-3-71.77-36.33-93.3Z"/><path class="cls-7" d="M60.61,209.5c-23.43,5.35-18,23.33-13.42,60.26-11.7,9.5-.48,13.78-.48,13.78-12.84,13.61,3.18,16.67,3.18,16.67H92.67S84.06,204.16,60.61,209.5Z"/><line class="cls-15" x1="90.12" y1="279.26" x2="79.86" y2="232.14"/><path class="cls-6" d="M49.89,300.21s7.22-16.58,30.05-24.92c18.92-6.91,46.61,11,64.33-6l3.28,19.2L92.67,300.21Z"/><polygon class="cls-6" points="125.13 157.43 142.06 183.18 131.2 187.06 129.32 207.99 96.69 196.65 99.76 154.07 125.13 157.43"/><polygon class="cls-8" points="100.02 184.48 83.34 204.14 104.73 230.35 114.38 199.73 100.02 184.48"/><polygon class="cls-8" points="105.6 172.31 129.47 164.03 125.13 157.43 101.55 159.88 105.6 172.31"/><path class="cls-9" d="M103.54,181.33s7.23,14.47,2.2-13.42c0,0,6.86.77,12.23-8.28,0,0-1.67,14.75,14.08,0s-4.27-26.29-28.74-21.95c-21.22,3.77-42.44,15.75-11.42,56.39Z"/><path class="cls-6" d="M99.68,187.09a11.9,11.9,0,0,1-7.34,4.58c-5.81.85-11.49-3.74-12.34-9.56s2.09-8.83,7.91-9.68a14.37,14.37,0,0,1,9.89,2.47C98.66,176,99.68,187.09,99.68,187.09Z"/><ellipse class="cls-9" cx="121.73" cy="175.44" rx="1.63" ry="3.73" transform="translate(-41.7 38.01) rotate(-15.18)"/><path class="cls-9" d="M116.08,170.39s-.85-4.78,3.59-2.48Z"/><polygon class="cls-7" points="80.67 204.94 84.55 200.5 83.12 197.2 91.89 194.06 117.04 206.71 117.97 216.37 113.71 215.03 106.76 240.92 80.67 204.94"/><polyline class="cls-15" points="103.38 211.27 117.97 216.37 117.04 206.71"/><path class="cls-9" d="M105.74,167.91S108.67,185,113,188.5c1.4,1.15,4.07-1.78,16.35-2,7.51-.15,7.5,26.06-2.46,25.31s-25.1-7-27.37-26.07C97.5,169,105.74,167.91,105.74,167.91Z"/><path class="cls-16" d="M118,191.67s2.53,4.72,7.52,1.53"/><path class="cls-9" d="M90.93,289.42h84a4.56,4.56,0,0,1,4.56,4.56v1.66a4.56,4.56,0,0,1-4.56,4.56H95.49a4.56,4.56,0,0,1-4.56-4.56v-6.22a0,0,0,0,1,0,0Z"/><path class="cls-9" d="M243.09,227.06H145.42a5.76,5.76,0,0,0-5.72,5l-7.87,61.62a5.76,5.76,0,0,0,5.72,6.5h97.68a5.77,5.77,0,0,0,5.72-5l7.87-61.61A5.77,5.77,0,0,0,243.09,227.06Z"/><path class="cls-2" d="M247.82,227.06H150.15a5.77,5.77,0,0,0-5.73,5l-7.86,61.62a5.76,5.76,0,0,0,5.72,6.5H240a5.76,5.76,0,0,0,5.72-5l7.87-61.61A5.76,5.76,0,0,0,247.82,227.06Z"/><ellipse class="cls-13" cx="195.05" cy="263.63" rx="10.15" ry="9.14" transform="translate(-127.9 206.64) rotate(-43.5)"/><line class="cls-17" x1="245.69" y1="299.68" x2="124.11" y2="299.68"/><path class="cls-9" d="M299.42,217.23l40.36.77-9.15-49.38-21.46,2.43s-9.66,14.27-2,25.36C315.75,208.93,298.54,209.4,299.42,217.23Z"/><path class="cls-18" d="M309.17,171.05s-9.66,14.27-2,25.36c8.61,12.52-8.6,13-7.72,20.82"/><path class="cls-19" d="M317.22,211.27s-18.36,18-28,85.93h20.44Z"/><path class="cls-20" d="M365.76,206.25l-8,90.95H298.39l7.39-34.74s-22.6-11.79,11.44-51.19l8.47-4.36,36.75-2.77Z"/><path class="cls-21" d="M317.22,252s-3.55,6.1-.13,11l-5,34.24"/><line class="cls-21" x1="308.93" y1="262.62" x2="343.31" y2="263.63"/><line class="cls-21" x1="350.09" y1="279.74" x2="346.46" y2="235.99"/><path class="cls-20" d="M365.76,206.25s3.28,4.12,7.07,13.69c5.38,13.56,11.8,38.06,11.38,77.26H357.77Z"/><path class="cls-6" d="M384.21,300.2S371,270,337.76,278.62C301.47,288.07,288,286.3,288,286.3l-2.76,13.9Z"/><path class="cls-19" d="M349.62,272.27l-11.79,2.64,26.78,25.29h25.25S379,273.81,349.62,272.27Z"/><line class="cls-1" x1="350.35" y1="280.12" x2="355.97" y2="278.4"/><polygon class="cls-6" points="288 286.3 270.75 282.74 258.39 300.2 285.24 300.2 288 286.3"/><polygon class="cls-19" points="317.22 251.97 349.27 219.93 343.31 217.12 365.76 206.25 355.45 199.69 331.47 199.69 317.22 217.49 321.16 218.48 317.22 221.24 317.22 251.97"/><polygon class="cls-6" points="339.63 210.58 350.1 203.35 338.8 178.08 321.28 189.08 326.21 210.04 317.22 251.97 339.63 210.58"/><polygon class="cls-8" points="322.69 195.07 334.98 188.66 324.01 200.66 322.69 195.07"/><polygon class="cls-6" points="300.23 158.49 294.87 188.23 302.92 188.23 311.96 200.66 334.98 188.66 318.88 152.78 300.23 158.49"/><polygon class="cls-8" points="298.93 165.7 298.39 168.97 319.63 166.07 319.3 162 298.93 165.7"/><path class="cls-9" d="M358.92,156.23c-5.31-14.41-11.81-20-11.81-20-13-12.94-35.29,1.42-35.29,1.42-28.54-6.9-16.95,28.52-16.95,28.52l23.23-2.85C321.35,182.84,333,173,333,173l5.42,9.78s-5.47,4.83.23,13.11c4.69,6.82-6.54,9.15-3.64,16.41L379.89,203C379.89,173.41,368.53,182.27,358.92,156.23Z"/><path class="cls-18" d="M293.05,166.43s-4.11-20.23,3.44-26.81c3.93-3.43,16.33-1.94,16.33-1.94"/><path class="cls-10" d="M382.84,202.11s3.58-13.45-16-28.7"/><circle class="cls-6" cx="333.64" cy="174.32" r="9.68"/><path class="cls-13" d="M308.93,187.14l6-1.47S317,202.77,308.93,187.14Z"/><path class="cls-22" d="M303.93,177s1.91-11.63,6.09,0"/><path class="cls-9" d="M305.41,168.18s2.32-3.94,5.08,0Z"/><path class="cls-23" d="M177.65,86.42a17.94,17.94,0,1,0-25.37,21.87,25.77,25.77,0,0,1,9.29,8.4l.68,1,13.44-4.83-.13-1.22a26.85,26.85,0,0,1,1.89-12.58A17.89,17.89,0,0,0,177.65,86.42Z"/><path class="cls-7" d="M177.65,86.42a17.94,17.94,0,1,0-25.37,21.87,25.77,25.77,0,0,1,9.29,8.4l.68,1,13.44-4.83-.13-1.22a26.85,26.85,0,0,1,1.89-12.58A17.89,17.89,0,0,0,177.65,86.42Z"/><path class="cls-24" d="M165.32,113.74l-10.71-15.1a2.85,2.85,0,0,1,3.56-2.58c3.36.49,5.37,5.8,3,4.94s-3.25-7.09,1.29-8,6.06,9.37,3.55,7.38-2-8.55,2.88-8.61l2.85,21.79"/><rect class="cls-9" x="162.02" y="111.55" width="15.94" height="13.17" rx="4.62" transform="translate(-29.94 64.48) rotate(-19.78)"/><rect class="cls-2" x="158.94" y="110.56" width="20.19" height="9.86" transform="translate(-29.11 64) rotate(-19.78)"/><line class="cls-5" x1="160.32" y1="69.98" x2="158.42" y2="59.11"/><line class="cls-5" x1="146.62" y1="76.45" x2="137.54" y2="67.58"/><line class="cls-5" x1="137.16" y1="92.56" x2="126.8" y2="93.3"/><line class="cls-5" x1="175.25" y1="75.93" x2="179.91" y2="67.29"/><path class="cls-25" d="M191.37,264.34l2.44-1.41a1.2,1.2,0,0,0-1.2-2.08l-4.21,2.44Z"/><path class="cls-26" d="M193.21,268a1.2,1.2,0,0,0,.6-2.24l-4.21-2.43a1.2,1.2,0,1,0-1.2,2.07l4.21,2.43A1.21,1.21,0,0,0,193.21,268Z"/><path class="cls-27" d="M197.4,268a1.21,1.21,0,0,0,.6-.17l4.21-2.43-2.94-1.07-2.47,1.43a1.2,1.2,0,0,0,.6,2.24Z"/><path class="cls-28" d="M201.61,265.52a1.19,1.19,0,0,0,.6-2.23L198,260.85a1.2,1.2,0,0,0-1.2,2.08l4.21,2.43A1.2,1.2,0,0,0,201.61,265.52Z"/></g></g></svg>